<?xml version="1.0" encoding="UTF-8"?>
<svg width="166px" height="166px" viewBox="0 0 166 166" version="1.1" xmlns="http://www.w3.org/2000/svg" xmlns:xlink="http://www.w3.org/1999/xlink">
    <!-- Generator: Sketch 50.2 (55047) - http://www.bohemiancoding.com/sketch -->
    <title>adultos copy</title>
    <desc>Created with Sketch.</desc>
    <defs></defs>
    <g id="Page-1" stroke="none" stroke-width="1" fill="none" fill-rule="evenodd">
        <g id="main-slide-copy" transform="translate(-12188.000000, -1647.000000)">
            <g id="foto">
                <g id="adultos-copy" transform="translate(12188.000000, 1647.000000)">
                    <circle id="Oval" fill="#27387E" cx="83" cy="83" r="83"></circle>
                    <path d="M136.128672,105.616466 L135.939102,105.560167 C132.710342,104.687536 130.34498,103.850035 128.920283,103.294253 C127.979619,102.935292 127.172598,102.590518 126.477656,102.266913 C134.619521,100.803144 137.434102,98.4458006 137.841318,98.0728773 L139.834727,96.221998 L137.753496,94.4697542 C135.110742,92.2389706 134.556406,86.6723706 133.966807,80.768203 C133.38417,74.913128 132.724492,68.2682934 129.783682,63.0642577 C128.116631,60.1191549 125.831904,57.8444583 122.985654,56.3050239 C119.865605,54.61606 115.956055,53.7540128 111.351787,53.741627 C106.761221,53.7540128 102.85167,54.61606 99.7320703,56.3050239 C96.8858203,57.8444583 94.6010937,60.1191549 92.934043,63.0642577 C89.9930078,68.2682934 89.3333301,74.913128 88.7506934,80.768203 C88.1610937,86.6723706 87.6065332,92.2389706 84.9642285,94.4697542 L82.8865918,96.221998 L84.8782031,98.0728773 C85.2818262,98.4458006 88.0979785,100.810125 96.2470312,102.266913 C95.5696094,102.583537 94.7870703,102.914349 93.8816699,103.266329 C93.2956641,102.893406 92.6532812,102.583762 91.9724902,102.351586 L91.740918,102.281325 C87.8241797,101.218629 84.9554687,100.205476 83.2270996,99.5368713 C77.1064941,97.1723217 75.5097461,95.4693957 75.1043262,94.6670252 C75.0904004,94.6388758 75.0780469,94.6037454 75.0656934,94.575596 L75.0412109,91.3242277 C79.1560547,86.4825311 82.3023828,79.980245 82.3023828,73.3581552 C82.3023828,73.3581552 86.1400586,58.9954309 75.0587305,48.9373128 C73.0269141,47.0918382 68.1926465,45 62.2070312,45 C57.9852734,45 53.1930078,46.0397262 48.4043359,48.9373128 C42.5418066,52.4836867 38.2726562,68.1538942 38.2726562,68.1538942 C38.2726562,68.1538942 39.5605664,68.8839771 41.8313672,69.5895136 C41.6611133,70.7999378 41.5717187,72.0558514 41.5717187,73.3577048 C41.5717187,79.9797947 44.7178223,86.4820807 48.832666,91.3237774 L48.8097559,94.5751456 C48.7974023,94.603295 48.7852734,94.6384254 48.771123,94.6665748 C48.3641309,95.4687201 46.770752,97.1718713 40.6485742,99.5364209 C38.9217773,100.205025 36.0476758,101.218179 32.1713672,102.273668 L31.9045312,102.351136 C28.375918,103.53341 26,106.848058 26,110.591929 L26,121 L81.7197461,121 L97.8720801,121 L141,121 L141,112.414658 C141,109.332187 139.041631,106.594714 136.128672,105.616466 Z M104.210107,93.4210202 C101.125547,89.7967287 99.356748,85.5252263 99.356748,81.7041143 C99.356748,81.4226203 99.3637109,81.1411263 99.3778613,80.8666133 C100.630732,80.4162229 101.890566,79.8813844 103.153994,79.2551165 C106.61792,77.5380032 110.113291,75.1592663 113.542178,72.1826363 C113.784307,71.9750063 114.019473,71.7658 114.251045,71.5583952 C116.047695,72.868806 118.911465,74.7091011 122.407061,76.0744596 C123.038662,77.7634236 123.365244,79.6564144 123.365244,81.7043395 C123.365244,85.5256767 121.592852,89.7971791 118.51166,93.4212454 C115.613076,96.8343037 112.584219,98.3685586 111.359424,98.3685586 C110.137773,98.3683334 107.108916,96.8340786 104.210107,93.4210202 Z M129.882061,96.5595656 C127.495586,97.2563195 124.842275,97.7348593 122.178633,98.0445027 L122.168076,96.5244352 C125.561699,92.5272205 128.155264,87.1718536 128.155264,81.7038891 C128.155264,80.2682697 128.029033,78.8959302 127.779717,77.5940768 C128.127188,77.6573566 128.481621,77.7066744 128.836055,77.7559921 C128.969473,78.9170985 129.085146,80.0854112 129.201045,81.2465176 C129.748643,86.7214632 130.267715,91.9642325 132.527959,95.6306354 C131.847168,95.9193357 130.973213,96.2429412 129.882061,96.5595656 Z M125.614482,65.4339867 C126.825352,67.5751426 127.579814,70.0910233 128.099111,72.7701705 C123.831533,71.9256885 120.07292,69.7478258 117.774043,68.1644784 C120.680039,65.1630769 122.525879,62.7246633 122.971729,62.1175371 C124.007178,63.0358831 124.884502,64.1391143 125.614482,65.4339867 Z M97.1034668,65.4339867 C99.7495898,60.7524038 104.283779,58.5639569 111.352012,58.5463917 C114.247451,58.5533727 116.714336,58.9229181 118.802529,59.677322 C117.767305,61.0284931 114.686113,64.8516319 110.327344,68.6200483 C103.806709,74.2584856 98.1950684,76.5737174 93.9241211,77.3830689 C94.443418,73.019912 95.2154004,68.7713795 97.1034668,65.4339867 Z M90.1897656,95.6306354 C92.3024414,92.2033898 92.8956348,87.4179919 93.4079688,82.3373631 C93.7940723,82.2880454 94.1835449,82.2247655 94.5696484,82.1545046 C94.7064355,87.4605538 97.2510352,92.6400433 100.549873,96.5246604 L100.54291,98.0447279 C97.8756738,97.7350845 95.2223633,97.2565447 92.8361133,96.5597908 C91.7481055,96.2429412 90.8741504,95.9193357 90.1897656,95.6306354 Z M45.5670703,61.7128613 C48.4202832,54.80072 50.4943262,53.2840304 50.8804297,53.0500526 C54.4409375,50.8967362 58.2503125,49.8040891 62.2072559,49.8040891 C67.247041,49.8040891 70.8758301,51.6180364 71.8443457,52.4976488 C75.1308301,55.4814851 77.1523145,59.262062 77.8665723,63.7484007 C77.5629004,63.3561106 77.2259863,62.9726032 76.8347168,62.6084626 C75.3641992,61.2379246 73.5675488,60.5447738 71.4950781,60.5447738 C69.2700977,60.5447738 66.6819238,61.3365601 62.5616895,63.2804451 C58.6135059,65.1434849 54.5725586,66.0884039 50.5504785,66.0884039 C48.0287891,66.0884039 45.8705176,65.7118776 44.214248,65.2738729 C44.5931641,64.1900084 45.0475488,62.9708017 45.5670703,61.7128613 Z M46.5268262,70.6222588 C47.758584,70.7893536 49.104668,70.8931686 50.5504785,70.8931686 C54.5795215,70.8931686 59.3785254,70.0925997 64.6024902,67.6278383 C68.0138574,66.0197194 70.0896973,65.3477369 71.4950781,65.3477369 C73.7622852,65.3477369 74.2869727,67.0911981 75.8590137,69.4539461 C76.2134473,69.9887847 76.759248,70.4866913 77.3838867,70.9370816 C77.4681152,71.7252648 77.5101172,72.5343912 77.5101172,73.3577048 C77.5101172,78.2275509 75.276377,83.6464228 71.3791797,88.2273434 C67.4188672,92.8861816 63.561875,94.5751456 61.9368262,94.5751456 C60.3117773,94.5751456 56.4552344,92.8861816 52.4946973,88.2273434 C48.5972754,83.6461976 46.3635352,78.2275509 46.3635352,73.3577048 C46.3635352,72.4217936 46.4196875,71.5106538 46.5268262,70.6222588 Z M30.792041,116.193434 L30.792041,110.591929 C30.792041,108.938095 31.8185059,107.481533 33.3539355,106.932507 L33.469834,106.897376 C37.5321191,105.792569 40.548623,104.722891 42.3699805,104.019156 C48.4202832,101.682756 51.7121582,99.473141 53.0440918,96.8412848 L53.0476855,96.8343037 L53.0528516,96.8273227 C53.1159668,96.700763 53.1633594,96.5881654 53.2001953,96.503492 L53.5108301,95.8139443 C56.4343457,98.0519342 59.4382715,99.381937 61.9370508,99.381937 C64.4358301,99.381937 67.4399805,98.0519342 70.3650684,95.8139443 L70.6757031,96.503492 C70.7125391,96.5879402 70.7599316,96.6935568 70.8230469,96.8273227 L70.8248437,96.8273227 L70.8284375,96.8343037 C72.1549805,99.4663852 75.4484277,101.682756 81.500752,104.019156 C83.3099805,104.71591 86.3228906,105.785588 90.4217871,106.897376 L90.5060156,106.925526 C92.0502051,107.467345 93.0820605,108.93832 93.0820605,110.591929 L93.0820605,116.193434 L30.792041,116.193434 Z M136.205938,116.193434 L97.8720801,116.193434 L97.8720801,110.591929 C97.8720801,109.367317 97.6158008,108.192249 97.1526563,107.122571 C101.329043,105.342178 103.70833,103.561785 104.775225,101.457561 L104.775225,101.45058 L104.782188,101.443599 C104.841934,101.317039 104.887529,101.211423 104.922568,101.133956 L105.101582,100.732883 C107.28793,102.274119 109.495391,103.167693 111.358975,103.167693 C113.225928,103.167693 115.43002,102.273894 117.619736,100.732883 L117.795156,101.119993 C117.823232,101.197461 117.872422,101.302852 117.928574,101.422656 L117.935537,101.436618 L117.9425,101.45058 C119.139219,103.822111 121.992432,105.771625 127.193711,107.777214 C128.702861,108.36137 131.211973,109.254945 134.623115,110.1841 L134.661748,110.191081 C135.588262,110.528874 136.205938,111.415693 136.205938,112.414884 L136.205938,116.193434 Z" id="Shape" fill="#FFFFFF" fill-rule="nonzero"></path>
                </g>
            </g>
        </g>
    </g>
</svg>