<?xml version="1.0" encoding="UTF-8"?>
<svg width="79px" height="25px" viewBox="0 0 79 25" version="1.1" xmlns="http://www.w3.org/2000/svg" xmlns:xlink="http://www.w3.org/1999/xlink">
    <!-- Generator: Sketch 50.2 (55047) - http://www.bohemiancoding.com/sketch -->
    <title>AE</title>
    <desc>Created with Sketch.</desc>
    <defs></defs>
    <g id="Page-1" stroke="none" stroke-width="1" fill="none" fill-rule="evenodd">
        <g id="Index-Transp-Copy-2" transform="translate(-846.000000, -960.000000)" fill="#2E77BC">
            <g id="compra-segura-copy-2" transform="translate(195.000000, 960.000000)">
                <g id="AE" transform="translate(651.000000, 0.000000)">
                    <g id="express" transform="translate(17.678322, 15.760870)">
                        <path d="M52.0343945,4.38184708 C52.4608518,4.81616428 52.689696,5.36477547 52.689696,6.29355026 C52.689696,8.23491545 51.4578618,9.14110358 49.2487413,9.14110358 L44.9830631,9.14110358 L44.9830631,7.20626947 L49.231882,7.20626947 C49.647284,7.20626947 49.9416307,7.15211589 50.1262538,6.98257979 C50.276882,6.84324997 50.3852237,6.64024206 50.3852237,6.3939657 C50.3852237,6.13108951 50.2683141,5.9223669 50.1179624,5.79718776 C49.9501986,5.6594907 49.7191433,5.59690113 49.3380127,5.59690113 C47.28947,5.52832473 44.7243696,5.6594907 44.7243696,2.80377353 C44.7243696,1.49483512 45.5598721,0.117048191 47.8557765,0.117048191 L52.2469322,0.117048191 L52.2469322,2.03800374 L48.2291685,2.03800374 C47.8306258,2.03800374 47.5719323,2.05242656 47.3513796,2.20073662 C47.1117564,2.34686966 47.0227615,2.56375613 47.0227615,2.85003538 C47.0227615,3.19074035 47.2264549,3.42204963 47.5020077,3.52246507 C47.733063,3.60165448 47.9809775,3.62451328 48.3543695,3.62451328 L49.5334147,3.65580807 C50.7221332,3.68438157 51.538289,3.88711735 52.0343945,4.38184708 L52.0343945,4.38184708 Z" id="s"></path>
                        <path d="M60.3211078,4.38184708 C60.747565,4.81616428 60.9764093,5.36477547 60.9764093,6.29355026 C60.9764093,8.23491545 59.7445751,9.14110358 57.5354546,9.14110358 L53.2697763,9.14110358 L53.2697763,7.20626947 L57.5185953,7.20626947 C57.9339973,7.20626947 58.228344,7.15211589 58.4129671,6.98257979 C58.5635953,6.84324997 58.671937,6.64024206 58.671937,6.3939657 C58.671937,6.13108951 58.5550274,5.9223669 58.4046757,5.79718776 C58.2369119,5.6594907 58.0058566,5.59690113 57.6247259,5.59690113 C55.5761833,5.52832473 53.0110829,5.6594907 53.0110829,2.80377353 C53.0110829,1.49483512 53.8465854,0.117048191 56.1424898,0.117048191 L60.5336454,0.117048191 L60.5336454,2.03800374 L56.5158818,2.03800374 C56.1173391,2.03800374 55.8586456,2.05242656 55.6380928,2.20073662 C55.3984697,2.34686966 55.3094748,2.56375613 55.3094748,2.85003538 C55.3094748,3.19074035 55.5131682,3.42204963 55.788721,3.52246507 C56.0197762,3.60165448 56.2676908,3.62451328 56.6410828,3.62451328 L57.8201279,3.65580807 C59.0088465,3.68438157 59.8250023,3.88711735 60.3211078,4.38184708 L60.3211078,4.38184708 Z" id="s"></path>
                        <polygon id="Path-4" points="36.3607769 0.116776063 43.6708018 0.116776063 43.6708018 1.9833059 38.5417065 1.9833059 38.5417065 3.62396903 43.5453244 3.62396903 43.5453244 5.46491878 38.5417065 5.46491878 38.5417065 7.26042306 43.6708018 7.26858692 43.6708018 9.14110358 36.3607769 9.14110358"></polygon>
                        <path d="M33.5939177,4.94733024 C34.081179,5.12475807 34.4799981,5.44205998 34.6665558,5.70493617 C34.9761036,6.14551232 35.0208774,6.55669859 35.0294453,7.35240251 L35.0294453,9.14110358 L32.8308273,9.14110358 L32.8308273,8.01204216 C32.8308273,7.4694178 32.8836162,6.66527788 32.4767821,6.24592776 C32.1567318,5.9223669 31.6689178,5.84508238 30.8696213,5.84508238 L28.5292194,5.84508238 L28.5292194,9.14110358 L26.3283903,9.14110358 L26.3283903,0.116776063 L31.3850735,0.116776063 C32.4936413,0.116776063 33.3012293,0.164942819 34.020375,0.542929398 C34.7116061,0.953843533 35.1463548,1.51714967 35.1463548,2.54661203 C35.1460784,3.98698853 34.1704503,4.72200779 33.5939177,4.94733024 Z M32.2711539,3.82425565 C32.5549981,3.65526381 32.7244202,3.34449299 32.7244202,2.95807042 C32.7244202,2.57219212 32.5549981,2.29244395 32.2711539,2.14631091 C32.0061037,1.99174189 31.6158524,1.98357803 31.2256012,1.98357803 L28.528943,1.98357803 L28.528943,4.01039159 L31.1893952,4.01039159 C31.6158524,4.01039159 31.9779127,3.99542452 32.2711539,3.82425565 Z" id="r"></path>
                        <path d="M25.2999732,3.08978065 C25.2999732,5.59690113 23.4004004,6.11421754 21.4856266,6.11421754 L18.7527624,6.11421754 L18.7527624,9.14110358 L14.495652,9.14110358 L11.7987174,6.15394831 L8.99620493,9.14110358 L0.320300691,9.14110358 L0.320300691,0.116776063 L9.12942101,0.116776063 L11.8241445,3.07481358 L14.6100741,0.116776063 L21.608893,0.116776063 C23.3470587,0.116776063 25.2999732,0.590551897 25.2999732,3.08978065 Z M21.5834658,4.28143164 C22.4250487,4.28143164 22.9482396,3.87051751 22.9482396,3.08978065 C22.9482396,2.30087994 22.3996216,1.98357803 21.608893,1.98357803 L18.7527624,1.98357803 L18.7527624,4.28143164 L21.5834658,4.28143164 Z M16.5715564,8.32036382 L16.5715564,1.08555376 L13.2088179,4.64445115 L16.5715564,8.32036382 Z M7.88736075,7.26042306 L10.3891697,4.61315636 L7.99349139,1.9833059 L2.5023358,1.9833059 L2.5023358,3.62396903 L7.31055172,3.62396903 L7.31055172,5.46491878 L2.5023358,5.46491878 L2.5023358,7.26042306 L7.88736075,7.26042306 Z" id="exp"></path>
                    </g>
                    <g id="american">
                        <path d="M72.8354424,9.37974118 L69.73195,9.37974118 L65.5801411,2.60809394 L65.5801411,9.37974118 L61.11989,9.37974118 L60.2675282,7.36735043 L55.7177294,7.36735043 L54.8907948,9.37974118 L52.327629,9.37974118 C51.2632823,9.37974118 49.9153678,9.14788764 49.152001,8.38184573 C48.3822774,7.61580381 47.9815236,6.57844972 47.9815236,4.93751446 C47.9815236,3.5994583 48.2211467,2.3762404 49.1625035,1.40963973 C49.8703175,0.689587544 50.9791617,0.357590693 52.4884833,0.357590693 L54.6091616,0.357590693 L54.6091616,2.29079203 L52.5329808,2.29079203 C51.7339607,2.29079203 51.282629,2.40780731 50.8478803,2.82552466 C50.474212,3.20514401 50.218006,3.9232913 50.218006,4.86893807 C50.218006,5.83553873 50.4131316,6.53273212 50.8205185,6.98773108 C51.1577044,7.34476376 51.7701667,7.45307093 52.3466994,7.45307093 L53.3303425,7.45307093 L56.4175284,0.357862821 L59.6992871,0.357862821 L63.407503,8.89154253 L63.407503,0.357862821 L66.7420506,0.357862821 L70.5920505,6.64158355 L70.5920505,0.357862821 L72.8354424,0.357862821 L72.8354424,9.37974118 Z M59.4445848,5.48666991 L57.9457658,1.89021878 L56.4549618,5.48666991 L59.4445848,5.48666991 Z" id="can"></path>
                        <polygon id="i" points="44.6740614 0.357590693 46.9088855 0.357590693 46.9088855 9.37974118 44.6740614 9.37974118"></polygon>
                        <path d="M43.4035338,2.78742666 C43.4035338,4.22617039 42.4287349,4.96908138 41.8602173,5.1922268 C42.3394635,5.37183166 42.7490615,5.68913356 42.9439107,5.95200976 C43.2529057,6.40074977 43.3062474,6.80159514 43.3062474,7.60736783 L43.3062474,9.37974118 L41.0971269,9.37974118 L41.0888354,8.24197165 C41.0888354,7.69907516 41.1416244,6.9183383 40.7430816,6.48429324 C40.4233078,6.16699133 39.9352174,6.0981428 39.1469762,6.0981428 L36.7957953,6.0981428 L36.7957953,9.37974118 L34.6054688,9.37974118 L34.6054688,0.357590693 L39.6433581,0.357590693 C40.7624284,0.357590693 41.5874284,0.386980578 42.2952424,0.789730856 C42.9881318,1.19302539 43.4035338,1.78109522 43.4035338,2.78742666 Z M40.5396646,4.05445727 C40.8235088,3.90859636 40.9909962,3.59102232 40.9909962,3.19670803 C40.9909962,2.81028546 40.8152173,2.53080942 40.5310967,2.3990992 C40.2724033,2.25351041 39.8738606,2.23636631 39.4924535,2.23636631 L36.795519,2.23636631 L36.795519,4.24032108 L39.4562475,4.24032108 C39.8827048,4.24032108 40.2386847,4.23433425 40.5396646,4.05445727 Z" id="r"></path>
                        <polygon id="e" points="33.0875794 9.37974118 25.770645 9.37974118 25.770645 0.357590693 33.0875794 0.357590693 33.0875794 2.23636631 27.9612479 2.23636631 27.9612479 3.86260663 32.9645894 3.86260663 32.9645894 5.71199236 27.9612479 5.71199236 27.9612479 7.5137556 33.0875794 7.5137556"></polygon>
                        <path d="M24.1386098,9.37974118 L21.8932833,9.37974118 L21.8849918,2.31365083 L18.708811,9.37974118 L16.7857457,9.37974118 L13.6018263,2.30739187 L13.6018263,9.37974118 L9.14710278,9.37974118 L8.3055199,7.36735043 L3.74521854,7.36735043 L2.89506781,9.37974118 L0.515972412,9.37974118 L4.43838434,0.357590693 L7.69222846,0.357590693 L11.4175801,8.89970639 L11.4175801,0.357590693 L14.9920272,0.357590693 L17.8583839,6.47803428 L20.4917507,0.357590693 L24.1383334,0.357590693 L24.1383334,9.37974118 L24.1386098,9.37974118 Z M7.5145149,5.48666991 L6.01569585,1.89021878 L4.52489188,5.48666991 L7.5145149,5.48666991 Z" id="am"></path>
                    </g>
                </g>
            </g>
        </g>
    </g>
</svg>