<?xml version="1.0" encoding="UTF-8"?>
<svg width="64px" height="64px" viewBox="0 0 64 64" version="1.1" xmlns="http://www.w3.org/2000/svg" xmlns:xlink="http://www.w3.org/1999/xlink">
    <!-- Generator: Sketch 50.2 (55047) - http://www.bohemiancoding.com/sketch -->
    <title>Group 3</title>
    <desc>Created with Sketch.</desc>
    <defs></defs>
    <g id="Page-1" stroke="none" stroke-width="1" fill="none" fill-rule="evenodd">
        <g id="Restricciones-de-enviÌo" transform="translate(-89.000000, -836.000000)">
            <g id="Group-3" transform="translate(89.000000, 836.000000)">
                <circle id="Oval-2-Copy" fill="#27387E" cx="32" cy="32" r="32"></circle>
                <path d="M54.7240481,18.9002934 C54.2285881,18.0732957 53.1859886,17.6711775 51.5355617,17.6711775 C51.3293176,17.6711775 51.1112204,17.6773421 50.8826924,17.6896712 C50.3848618,16.7464955 48.8757239,14.9236864 44.5777865,14.6002848 L44.5246846,14.5964912 L44.4720568,14.600759 C44.37012,14.6088203 42.1625969,14.8293214 40.3718292,18.3696681 C40.2030409,18.5901692 40.0133911,18.9372806 39.9256781,19.3488827 C39.9014978,19.407683 39.8768433,19.4631639 39.8536112,19.5233868 C38.2738288,23.4928808 36.0819518,25.5750751 28.9008641,25.4081581 C27.875333,25.3844483 26.7127801,25.3578933 25.6867749,25.3578933 C22.0440774,25.3578933 18.993087,25.6025784 17.285291,27.9602805 C16.2663977,27.5372978 13.9066807,26.2470107 13.983963,23.3800222 C14.0342202,21.5259161 15.196299,20.6837442 16.267346,20.5144563 C17.2331373,20.3622394 18.3933197,20.7240509 18.7436976,21.7122751 C19.2984231,23.2771217 20.3808491,23.5948329 21.1384998,23.3914029 C22.0967052,23.1343887 22.6964725,22.1167643 22.5035039,21.0749558 C22.302001,19.9871504 21.2589274,18.4227781 19.6549646,17.5388769 C18.5450395,16.9276384 16.7244019,16.3970131 14.3561506,17.3444566 C12.5388319,18.0718731 11.2340416,19.2919792 10.5830689,20.8734226 C9.88847665,22.56156 9.95437994,24.676948 10.7599172,26.533425 C11.3407196,27.8730285 13.4700122,30.5584 16.0108447,31.3384522 C16.0013622,31.3948816 15.9909315,31.4489399 15.9819231,31.5067918 C15.6675786,33.622654 15.691759,35.2591041 15.7111981,36.5745235 C15.7448609,38.8805383 15.7619294,40.0366279 14.105813,41.469648 L13.9299128,41.6180713 L13.8834486,41.8390466 C13.7720294,42.3872171 12.840375,47.2349219 14.4258469,49.1383443 L14.6306686,49.3555261 L18.7271032,49.3555261 L20.1006415,49.3555261 L24.9694247,49.3555261 L24.9594681,48.6916518 C24.9376584,47.1154246 24.4962486,46.1110776 23.6485142,45.6515818 C22.8368133,45.2110538 21.9326581,45.4495743 21.3769844,45.6847755 C21.272677,45.5382489 21.1996618,45.3774965 21.207722,45.2172183 C21.2238422,44.9061458 21.5272818,44.6202057 21.6439164,44.5357988 C25.3885507,41.86655 26.3477043,39.121904 26.5880854,37.7363035 C28.6728102,38.3043902 31.5583312,38.9170514 34.3205798,38.9170514 C35.4968823,38.9170514 36.5660328,38.8084605 37.5114368,38.5836916 L37.4137672,44.255549 C37.4057071,44.6562445 37.3763114,48.2350011 38.8726479,49.7623862 C39.3334968,50.2323143 39.910032,50.5263158 40.5415657,50.5263158 L44.8745883,50.5263158 L45.2297075,50.5263158 L48.9724453,50.5263158 L48.9724453,49.7529023 C48.9724453,48.111236 48.5324579,46.9835981 47.6221391,46.4012855 C46.7815166,45.8630732 45.8090875,45.9612317 45.1538476,46.1229325 C43.7191472,41.2662179 46.8862981,33.6321379 46.920435,33.552473 L46.866859,33.5297116 C47.473264,31.7870416 47.9042431,29.3335519 47.5827868,26.0511678 C49.1829565,25.8633862 52.8308695,25.2170572 53.9355793,23.1514598 C54.697023,21.7293462 55.448036,20.1099671 54.7240481,18.9002934 Z M46.9123749,47.5991044 C47.3552071,47.8850445 47.5443827,48.3801051 47.6150272,49.1611057 L45.4122454,49.1611057 C45.425995,48.7054035 45.388065,48.1145554 45.1913034,47.5554784 C45.6094811,47.4136938 46.3936828,47.2643221 46.9123749,47.5991044 Z M44.1913751,16.0911568 C45.1329861,17.8807721 46.0945104,20.4788916 45.5236646,21.2684278 C45.2842318,21.5989423 44.6275695,21.5453582 44.1193082,21.4415093 C41.8468301,20.9791683 41.3746022,20.2963261 41.2774067,20.0241377 C41.2423215,19.9255049 41.2347355,19.8259238 41.2437439,19.732033 C42.3138426,17.2112075 43.5702722,16.3666646 44.1913751,16.0911568 Z M12.0116056,25.9914191 C11.3502021,24.466405 11.2880918,22.747919 11.8447138,21.3940897 C12.3591388,20.1436351 13.3747132,19.2085207 14.8625155,18.6134048 C16.3659638,18.011176 17.7565706,18.0524311 18.9954576,18.7357474 C20.2902913,19.4494122 21.0413043,20.6794764 21.1603095,21.3248571 C21.234747,21.7279236 20.9896247,22.0190799 20.7843289,22.0740866 C20.5259311,22.1433192 20.2300775,21.8227628 20.0290488,21.2570471 C19.5004001,19.7652267 17.8281634,18.8865417 16.0530418,19.1667915 C14.514034,19.4105282 12.6914999,20.6505505 12.6184848,23.3439833 C12.5307718,26.579422 14.8767392,28.4216732 16.6082414,29.1680575 C16.4977704,29.4288653 16.3977302,29.7072183 16.3090689,30.0040649 C14.2214993,29.3141099 12.4212491,26.935069 12.0116056,25.9914191 Z M20.8582923,43.4195416 C20.7610968,43.4873516 19.9076729,44.1085483 19.8460368,45.1285437 C19.8047879,45.807118 20.1167618,46.4458599 20.7729499,47.0319661 L21.1569907,47.3710162 L21.5917627,47.0888696 C21.7743006,46.97364 22.5471233,46.579109 22.9980156,46.8233199 C23.2763266,46.9745884 23.4650281,47.4051583 23.5479999,47.990316 L20.2125349,47.990316 C20.197837,47.3582129 20.0736165,46.4975473 19.568674,45.923296 C19.1998052,45.5041068 18.6891733,45.29878 18.0903542,45.3348189 C18.062855,44.8928683 18.2425481,44.1284645 19.4098423,43.2108954 C21.5045238,41.5644872 23.6651086,39.8682884 24.3478477,37.0567808 C24.6019784,37.1426103 24.9134781,37.2440882 25.271442,37.3541016 C25.1372648,38.3608196 24.4369831,40.869316 20.8582923,43.4195416 Z M43.7196214,46.0361547 C43.4498446,45.9422639 43.1321813,45.8815668 42.7552524,45.8815668 C42.5215091,45.8815668 42.2721197,45.9043282 42.0089806,45.949851 C42.2322932,43.8226081 42.8462843,40.1902674 44.0775853,38.0426341 C43.5005759,40.520782 43.1226988,43.5110614 43.7196214,46.0361547 Z M43.9320291,35.9879432 C41.1038772,38.7558248 40.5856593,46.4852182 40.5647978,46.8124134 L40.500791,47.8300378 L41.4618411,47.5199137 C42.5490083,47.1562054 43.3170898,47.2055218 43.6869068,47.6498434 C43.9941394,48.0197162 44.0590944,48.575948 44.0462931,49.1615799 L40.5410916,49.1615799 C40.2741595,49.1615799 40.0541658,49.018847 39.8483959,48.8087782 C38.9167415,47.8589638 38.7602804,45.1916117 38.7782971,44.2593426 L38.9082072,36.6921241 L37.9841388,37.0159999 C36.9766245,37.3683275 35.7439011,37.5475736 34.3196315,37.5475736 C29.5262341,37.5475736 24.1160009,35.527499 24.0619507,35.5071085 L23.254991,35.2022006 L23.14452,36.05765 C22.812633,38.6258951 21.116216,40.1309929 18.5654268,42.1349449 C16.2867851,43.9255086 16.5783716,45.763492 17.0510736,46.4856924 L17.3336517,46.9157881 L17.8262669,46.7578808 C17.9765643,46.7109354 18.1097933,46.6801127 18.2216867,46.6801127 C18.4032763,46.6801127 18.4829292,46.7280065 18.5426689,46.7953423 C18.7527059,47.0329145 18.8380483,47.5995786 18.8489532,47.990316 L18.726155,47.990316 L15.3096147,47.990316 C14.6576937,46.8195263 14.856826,44.0431092 15.1778082,42.3179845 C17.1335712,40.5288433 17.1089167,38.8691576 17.0747798,36.5574525 C17.0562889,35.2913494 17.033531,33.7155964 17.3312811,31.7097476 C17.9685042,27.416852 20.3163681,26.7240518 25.6858267,26.7240518 C26.6236447,26.7240518 27.5965479,26.7444422 28.8681495,26.7733682 C33.3400906,26.8772171 36.0952273,26.1355746 37.9651738,24.6826384 C39.0087216,25.7012112 41.6913173,27.8431541 45.7948638,27.8431541 C45.9660227,27.8431541 46.1414487,27.8369896 46.3178229,27.8298767 C46.4249751,33.5425149 43.9704332,35.9514301 43.9320291,35.9879432 Z M52.7317775,22.5084501 C51.8897326,24.0832547 48.1512619,24.6660415 46.7815166,24.7570871 L46.0594252,24.8059293 L46.1499829,25.5252845 C46.1907576,25.8482119 46.2206274,26.1597586 46.2467043,26.465615 C42.4100898,26.6268416 39.9119285,24.6655673 38.9632056,23.749895 C39.5895239,23.0547238 40.0992076,22.2481165 40.5444104,21.3386088 C41.183056,21.9835152 42.273542,22.4591337 43.8471608,22.779216 C44.1932716,22.849397 44.5137797,22.8849616 44.8077368,22.8849616 C45.6260755,22.8849616 46.2367477,22.6118248 46.6297968,22.0679221 C47.6595949,20.6434375 46.5501439,17.7925717 45.7351241,16.1143924 C49.2393773,16.7180438 49.7599659,18.4867945 49.7798791,18.5588723 L49.9131081,19.1373913 L50.5043412,19.085704 C52.1699401,18.9396516 53.271331,19.1326494 53.5524868,19.6021033 C53.9407946,20.2489065 53.0940085,21.8322467 52.7317775,22.5084501 Z" id="perro" fill="#FFFFFF" fill-rule="nonzero"></path>
            </g>
        </g>
    </g>
</svg>