<?xml version="1.0" encoding="UTF-8"?>
<svg width="64px" height="64px" viewBox="0 0 64 64" version="1.1" xmlns="http://www.w3.org/2000/svg" xmlns:xlink="http://www.w3.org/1999/xlink">
    <!-- Generator: Sketch 50.2 (55047) - http://www.bohemiancoding.com/sketch -->
    <title>Group 6</title>
    <desc>Created with Sketch.</desc>
    <defs></defs>
    <g id="Page-1" stroke="none" stroke-width="1" fill="none" fill-rule="evenodd">
        <g id="Restricciones-de-enviÌo" transform="translate(-501.000000, -835.000000)">
            <g id="Group-6" transform="translate(501.000000, 835.000000)">
                <circle id="Oval-2-Copy-4" fill="#27387E" cx="32" cy="32" r="32"></circle>
                <g id="armas" transform="translate(13.473684, 19.087719)" fill="#FFFFFF" fill-rule="nonzero">
                    <path d="M21.4162201,5.10366826 L13.9528605,5.10366826 C13.4819487,5.10366826 13.0994152,5.47333765 13.0994152,5.9284134 L13.0994152,14.4856223 C13.0994152,14.940698 13.4826082,15.3110048 13.9528605,15.3110048 L21.4162201,15.3110048 C21.8864724,15.3110048 22.2690058,14.940698 22.2690058,14.4856223 L22.2690058,5.9284134 C22.2690058,5.47333765 21.8864724,5.10366826 21.4162201,5.10366826 Z M20.941351,10.9712137 L16.9260688,10.9712137 C16.6642312,10.9712137 16.4511997,10.7653461 16.4511997,10.5123138 L16.4511997,10.0228205 C16.4511997,9.77042555 16.6642312,9.56455795 16.9260688,9.56455795 L20.941351,9.56455795 L20.941351,10.9712137 Z M14.4270701,14.0273597 L14.4270701,6.38731333 L20.9406914,6.38731333 L20.9406914,8.2821876 L16.9254093,8.2821876 C15.9314818,8.2821876 15.1228853,9.0635922 15.1228853,10.0234579 L15.1228853,10.5129511 C15.1228853,11.4734542 15.9314818,12.2548588 16.9254093,12.2548588 L20.9406914,12.2548588 L20.9406914,14.0273597 L14.4270701,14.0273597 Z" id="Shape"></path>
                    <path d="M39.2970229,0.626144482 C39.2970229,0.280428164 39.0212972,0 38.6813781,0 L35.5151177,0 C34.2159667,0 33.1595276,1.06761676 33.1436321,2.38519388 L22.3236908,2.38519388 L11.2732648,2.38519388 C11.0947461,2.38519388 10.925398,2.46478324 10.8086272,2.60157747 C10.6918565,2.73899349 10.6392791,2.92180032 10.664345,3.1008764 C10.6667905,3.11953015 10.8826024,4.75733012 10.2186598,5.90640162 L9.03138858,4.12434593 C8.91645192,3.95273135 8.72570598,3.85013568 8.52212136,3.85013568 L3.59757467,3.85013568 C3.25765561,3.85013568 2.98192991,4.12994205 2.98192991,4.47628016 C2.98192991,4.82199648 3.25765561,5.10242465 3.59757467,5.10242465 L8.19565235,5.10242465 L9.30344609,6.7644745 C8.93051332,6.94790312 8.48971901,7.04738983 7.95538582,7.03868474 C7.93949033,7.03744116 7.92298347,7.03681937 7.90647661,7.03681937 C7.8960834,7.03744116 7.88446746,7.03806295 7.87407425,7.03744116 C7.80132179,7.03371041 7.72979206,7.04614625 7.6607078,7.06977434 C7.32934786,7.18294047 -0.456387986,10.0239078 0.0210882364,25.928102 C0.025979158,26.0916333 0.0932293301,26.2464595 0.208777353,26.3590039 C0.235066057,26.3851191 1.99029555,28.0707971 4.38012212,28.0701753 C5.57962065,28.0701753 6.93929686,27.6448696 8.31975948,26.3733051 C8.44814618,26.2551646 8.52212136,26.0860372 8.52212136,25.9094483 L8.52212136,23.6473692 C11.5936201,23.4042486 14.0604787,20.9382217 14.3557681,17.8298838 L21.2232334,17.8298838 C22.5327777,17.8298838 23.5977759,16.7467223 23.5977759,15.4148439 L23.5977759,10.9130703 L36.3202857,10.9130703 C36.7561891,10.9130703 37.1107809,10.552431 37.1107809,10.1084715 L37.1107809,7.81281571 L38.5065277,7.81281571 C38.9430424,7.81281571 39.2982456,7.45155459 39.2982456,7.00759515 L39.2982456,3.19041444 C39.2982456,3.15870305 39.2841842,3.1313442 39.280516,3.1008764 C39.2854069,3.07040859 39.2982456,3.04304975 39.2982456,3.01071657 L39.2982456,0.626144482 L39.2970229,0.626144482 Z M35.5151177,1.25166717 L38.0657334,1.25166717 L38.0657334,2.38457208 L34.3749216,2.38457208 C34.3908171,1.75780581 34.8945821,1.25166717 35.5151177,1.25166717 Z M7.29022048,25.623424 C4.50973155,27.9918295 1.9401636,26.1967162 1.24381864,25.6178279 C0.961367916,13.8759089 5.45490215,9.82058187 7.29022048,8.65907453 L7.29022048,25.623424 Z M8.52151,22.3938367 L8.52151,19.4751453 C8.95863612,19.8693614 9.54860354,20.2125905 10.3415442,20.4252434 C10.3941216,20.4389228 10.4473104,20.4457625 10.4992764,20.4457625 C10.7719453,20.4457625 11.0213823,20.2604685 11.0941348,19.9794186 C11.1809486,19.6455163 10.9847004,19.3029089 10.6563973,19.2146145 C9.30711428,18.8521098 8.86020632,18.0897929 8.71286731,17.5880068 C9.02527493,17.7378586 9.36886217,17.8286402 9.7320131,17.8286402 L13.1146968,17.8286402 C12.8285778,20.2455455 10.9143934,22.1587993 8.52151,22.3938367 Z M22.3652636,15.4136004 C22.3652636,16.0546678 21.8523282,16.5763513 21.2220107,16.5763513 L9.73140173,16.5763513 C9.08457735,16.5763513 8.53801686,16.0440974 8.53801686,15.4136004 C8.53801686,15.3831326 8.52517819,15.3570173 8.52089863,15.3277931 L8.52089863,8.26548024 C9.50030569,8.1678589 10.2901895,7.78172611 10.8746547,7.11329978 C11.8106548,6.04319585 11.9445438,4.52353635 11.9310937,3.63686105 L22.3236908,3.63686105 L22.3652636,3.63686105 L22.3652636,7.36326013 L22.3652636,10.1066062 L22.3652636,15.4136004 Z M35.8782687,9.65953776 L23.5965531,9.65953776 L23.5965531,7.81095033 L35.8782687,7.81095033 L35.8782687,9.65953776 Z M38.0657334,6.55928316 L36.319063,6.55928316 L23.5965531,6.55928316 L23.5965531,3.63748284 L38.0657334,3.63748284 L38.0657334,6.55928316 Z" id="Shape"></path>
                    <ellipse id="Oval" cx="4.58479532" cy="23.6044657" rx="1" ry="1"></ellipse>
                </g>
            </g>
        </g>
    </g>
</svg>