<?xml version="1.0" encoding="UTF-8"?>
<svg width="64px" height="64px" viewBox="0 0 64 64" version="1.1" xmlns="http://www.w3.org/2000/svg" xmlns:xlink="http://www.w3.org/1999/xlink">
    <!-- Generator: Sketch 50.2 (55047) - http://www.bohemiancoding.com/sketch -->
    <title>Group 4</title>
    <desc>Created with Sketch.</desc>
    <defs></defs>
    <g id="Page-1" stroke="none" stroke-width="1" fill="none" fill-rule="evenodd">
        <g id="Restricciones-de-enviÌo" transform="translate(-89.000000, -938.000000)">
            <g id="Group-4" transform="translate(89.000000, 938.000000)">
                <circle id="Oval-2-Copy-2" fill="#27387E" cx="32" cy="32" r="32"></circle>
                <path d="M17.5566188,16.8421053 C15.9305511,16.8421053 14.5964912,18.1761645 14.5964912,19.8022329 C14.5964912,20.8905127 15.1688419,21.8887491 16.076555,22.4385965 L16.076555,43.7954545 C15.1688302,44.3452612 14.5964912,45.3550903 14.5964912,46.4433812 C14.5964912,48.0694533 15.9305496,49.4035088 17.5566188,49.4035088 C18.6437482,49.4035088 19.6426899,48.829429 20.1929825,47.923445 L41.5614035,47.923445 C42.111696,48.829429 43.1106377,49.4035088 44.1977671,49.4035088 C45.8238363,49.4035088 47.1578947,48.0694533 47.1578947,46.4433812 C47.1578947,45.3550903 46.5855559,44.3452612 45.6778309,43.7954545 L45.6778309,22.4385965 C46.5855441,21.8887491 47.1578947,20.8905127 47.1578947,19.8022329 C47.1578947,18.1761645 45.8238348,16.8421053 44.1977671,16.8421053 C43.1052766,16.8421053 42.0980424,17.408152 41.5498405,18.3221691 L20.2045455,18.3221691 C19.6563435,17.408152 18.6491094,16.8421053 17.5566188,16.8421053 Z M17.5566188,18.3221691 C18.2083808,18.3221691 18.9020323,18.7927701 19.0829346,19.3050239 C19.1857072,19.6008526 19.4635505,19.7999736 19.7767145,19.8022329 L41.9776715,19.8022329 C42.2908354,19.7999736 42.5686788,19.6008526 42.6714514,19.3050239 C42.8523536,18.7927701 43.5460051,18.3221691 44.1977671,18.3221691 C45.0239491,18.3221691 45.6778309,18.9760501 45.6778309,19.8022329 C45.6778309,20.4539974 45.2072302,21.1360848 44.6949761,21.3169856 C44.3951321,21.4211499 44.1950988,21.704918 44.1977671,22.0223285 L44.1977671,44.2232855 C44.2000264,44.5364495 44.3991474,44.8142928 44.6949761,44.9170654 C45.207208,45.0979662 45.6778309,45.7916351 45.6778309,46.4433812 C45.6778309,47.2695528 45.0239476,47.923445 44.1977671,47.923445 C43.5460181,47.923445 42.8523499,47.4412402 42.6714514,46.9290271 C42.5648073,46.6377573 42.2878501,46.4438873 41.9776715,46.4433812 L19.7767145,46.4433812 C19.4665359,46.4438873 19.1895787,46.6377573 19.0829346,46.9290271 C18.902036,47.4412402 18.2083679,47.923445 17.5566188,47.923445 C16.7304383,47.923445 16.076555,47.2695528 16.076555,46.4433812 C16.076555,45.7916351 16.5471779,45.0979662 17.0594099,44.9170654 C17.3552385,44.8142928 17.5543596,44.5364495 17.5566188,44.2232855 L17.5566188,22.0223285 C17.5592871,21.704918 17.3592539,21.4211499 17.0594099,21.3169856 C16.5471557,21.1360848 16.076555,20.4539974 16.076555,19.8022329 C16.076555,18.9760501 16.7304368,18.3221691 17.5566188,18.3221691 Z M20.4473684,22.0223285 C20.0659889,22.0582726 19.7750629,22.3792944 19.7767145,22.7623604 L19.7767145,38.2567783 C19.7762327,38.2721919 19.7762327,38.2876167 19.7767145,38.3030303 L19.7767145,40.15311 C19.7752381,40.1800702 19.7752381,40.2070909 19.7767145,40.234051 L19.7767145,43.4832536 C19.7767555,43.8919449 20.1080551,44.2232445 20.5167464,44.2232855 L41.2376396,44.2232855 C41.6463309,44.2232445 41.9776304,43.8919449 41.9776715,43.4832536 L41.9776715,40.210925 C41.9784245,40.1916607 41.9784245,40.1723744 41.9776715,40.15311 L41.9776715,38.6730463 C41.978756,38.649933 41.978756,38.6267815 41.9776715,38.6036683 L41.9776715,22.7623604 C41.9776304,22.3536691 41.6463309,22.0223696 41.2376396,22.0223285 L20.5167464,22.0223285 C20.4936331,22.021244 20.4704817,22.021244 20.4473684,22.0223285 Z M21.2567783,23.5023923 L40.4976077,23.5023923 L40.4976077,32.1052632 L38.242823,30.9720893 C38.1069379,30.9044531 37.9535427,30.8802328 37.803429,30.9027113 C37.7144286,30.9140496 37.6282314,30.941476 37.5490431,30.9836523 L33.7679426,33.041866 L29.4202552,30.2783094 C29.2734766,30.18202 29.0972508,30.1410372 28.9230463,30.1626794 C28.7817972,30.1825171 28.6492895,30.2427478 28.5414673,30.3361244 L21.2567783,36.6726475 L21.2567783,23.5023923 Z M33.8373206,25.3524721 C32.4156068,25.3524721 31.2472089,26.5208715 31.2472089,27.9425837 C31.2472089,29.364296 32.4156068,30.5326954 33.8373206,30.5326954 C35.2590343,30.5326954 36.4274322,29.364296 36.4274322,27.9425837 C36.4274322,26.5208715 35.2590343,25.3524721 33.8373206,25.3524721 Z M33.8373206,26.8325359 C34.4591483,26.8325359 34.9473684,27.3207571 34.9473684,27.9425837 C34.9473684,28.5644103 34.4591483,29.0526316 33.8373206,29.0526316 C33.2154929,29.0526316 32.7272727,28.5644103 32.7272727,27.9425837 C32.7272727,27.3207571 33.2154929,26.8325359 33.8373206,26.8325359 Z M29.0964912,31.8161882 L40.4976077,39.0777512 L40.4976077,39.4130781 L21.2567783,39.4130781 L21.2567783,38.6383573 L29.0964912,31.8161882 Z M37.919059,32.4752791 L40.4976077,33.7703349 L40.4976077,37.3317384 L35.2017544,33.9553429 L37.919059,32.4752791 Z M21.2567783,40.8931419 L40.4976077,40.8931419 L40.4976077,42.7432217 L21.2567783,42.7432217 L21.2567783,40.8931419 Z" id="arte" fill="#FFFFFF" fill-rule="nonzero"></path>
            </g>
        </g>
    </g>
</svg>