<?xml version="1.0" encoding="UTF-8"?>
<svg width="15px" height="16px" viewBox="0 0 15 16" version="1.1" xmlns="http://www.w3.org/2000/svg" xmlns:xlink="http://www.w3.org/1999/xlink">
    <!-- Generator: Sketch 50.2 (55047) - http://www.bohemiancoding.com/sketch -->
    <title>Fill 1</title>
    <desc>Created with Sketch.</desc>
    <defs></defs>
    <g id="Page-1" stroke="none" stroke-width="1" fill="none" fill-rule="evenodd">
        <path d="M13.6772992,10.9592611 C12.6350423,10.1094208 7.1190979,10.6385666 5.96459791,11.4723722 C5.94631832,11.485681 5.92932152,11.4991502 5.91120228,11.5126193 C6.0460543,11.3764846 6.14258332,11.2438774 6.17320964,11.0876992 C6.31752214,10.3499416 4.69801521,4.72191454 3.7519666,4.00035204 C2.805918,3.27878955 1.44296662,3.55121948 1.29865412,4.24087287 C1.15450197,4.92956419 4.17816952,14.5619425 4.18474375,14.5827876 L4.18474375,14.5832686 L14.270584,14.5832686 C15.0242159,13.1079139 14.6393826,11.7449625 13.6772992,10.9592611 Z M4.53750764,15.6734694 L13.8376465,15.6734694 L13.8376465,14.9038027 L4.53750764,14.9038027 L4.53750764,15.6734694 Z M2.63081884,3.38285489 C2.93547856,3.38285489 3.06375633,3.30268128 3.17599939,2.88577851 C3.28824244,2.46887573 2.11770773,0.512799985 2.11770773,0.512799985 C1.49235357,-0.16081869 0.289749408,-0.0806450796 0.0331938544,0.240049362 C-0.223361699,0.560743805 1.09148551,3.86389656 1.09148551,3.86389656 C1.4442494,3.27061184 2.34219384,3.38285489 2.63081884,3.38285489 Z" id="Fill-1" fill="#27387E"></path>
    </g>
</svg>