<?xml version="1.0" encoding="UTF-8"?>
<svg width="16px" height="16px" viewBox="0 0 16 16" version="1.1" xmlns="http://www.w3.org/2000/svg" xmlns:xlink="http://www.w3.org/1999/xlink">
    <!-- Generator: Sketch 50.2 (55047) - http://www.bohemiancoding.com/sketch -->
    <title>Fill 1</title>
    <desc>Created with Sketch.</desc>
    <defs></defs>
    <g id="Page-1" stroke="none" stroke-width="1" fill="none" fill-rule="evenodd">
        <g id="Destinos" transform="translate(-653.000000, -514.000000)" fill="#FFFFFF">
            <g id="asiento" transform="translate(649.000000, 510.000000)">
                <path d="M18.5102236,14.9691051 C17.4679667,14.1192649 11.9520223,14.6484107 10.7975223,15.4822162 C10.7792427,15.4955251 10.7622459,15.5089942 10.7441266,15.5224634 C10.8789787,15.3863286 10.9755077,15.2537215 11.006134,15.0975433 C11.1504465,14.3597857 9.53093957,8.73175858 8.58489097,8.01019609 C7.63884236,7.28863359 6.27589098,7.56106352 6.13157849,8.25071692 C5.98742633,8.93940823 9.01109388,18.5717865 9.01766812,18.5926316 L9.01766812,18.5931127 L19.1035083,18.5931127 C19.8571403,17.1177579 19.4723069,15.7548065 18.5102236,14.9691051 Z M9.370432,19.6833134 L18.6705708,19.6833134 L18.6705708,18.9136468 L9.370432,18.9136468 L9.370432,19.6833134 Z M7.4637432,7.39269894 C7.76840292,7.39269894 7.89668069,7.31252533 8.00892375,6.89562255 C8.1211668,6.47871978 6.95063209,4.52264403 6.95063209,4.52264403 C6.32527793,3.84902535 5.12267377,3.92919897 4.86611822,4.24989341 C4.60956266,4.57058785 5.92440988,7.8737406 5.92440988,7.8737406 C6.27717376,7.28045588 7.1751182,7.39269894 7.4637432,7.39269894 Z" id="Fill-1"></path>
            </g>
        </g>
    </g>
</svg>