<?xml version="1.0" encoding="UTF-8"?>
<svg width="33px" height="34px" viewBox="0 0 33 34" version="1.1" xmlns="http://www.w3.org/2000/svg" xmlns:xlink="http://www.w3.org/1999/xlink">
    <!-- Generator: Sketch 50.2 (55047) - http://www.bohemiancoding.com/sketch -->
    <title>Fill 1</title>
    <desc>Created with Sketch.</desc>
    <defs></defs>
    <g id="Page-1" stroke="none" stroke-width="1" fill="none" fill-rule="evenodd">
        <g id="Destinos" transform="translate(-897.000000, -505.000000)" fill="#FFFFFF">
            <g id="comprar" transform="translate(767.000000, 501.000000)">
                <path d="M155.907954,20.0314474 C155.764131,20.1756313 155.583901,20.2477232 155.403671,20.2477232 C155.223441,20.2477232 155.043211,20.1756313 154.898667,20.0314474 L153.34869,18.5175164 C153.060683,18.2291486 153.060683,17.7965969 153.34869,17.5082291 C153.637058,17.2198613 154.06961,17.2198613 154.357977,17.5082291 L155.871908,19.0221601 C156.160276,19.3105279 156.160276,19.7430796 155.907954,20.0314474 M152.844047,16.9675395 C152.700223,17.1117234 152.519993,17.1838154 152.339763,17.1838154 C152.159533,17.1838154 151.979304,17.1117234 151.834759,16.9675395 L150.320828,15.4536086 C150.03246,15.1652408 150.03246,14.7326891 150.320828,14.4443213 C150.609557,14.1559535 151.041748,14.1559535 151.330476,14.4443213 L152.844047,15.9582522 C153.132775,16.24662 153.132775,16.7152177 152.844047,16.9675395 M150.03246,19.1641812 L145.961789,29.6391416 C145.744431,30.1938891 145.159766,30.5557907 144.568612,30.5402909 C143.890947,30.5237098 143.266271,30.0006827 143.154168,29.3244602 L142.490922,25.2865901 C142.47434,25.1914287 142.436132,25.1056393 142.369447,25.0367915 L142.365121,25.0331869 L142.362598,25.0306637 L142.361517,25.0299427 L142.357191,25.02778 L142.357191,25.0266986 C142.287622,24.9592926 142.204356,24.9189211 142.108474,24.9034214 L138.06808,24.239815 C137.394021,24.1287934 136.869191,23.5033957 136.85261,22.8271732 C136.835669,22.2385424 137.199012,21.6491907 137.755562,21.4339963 L148.232325,17.3633243 C148.736968,17.1949896 149.312983,17.3290806 149.686419,17.7090052 C150.068867,18.0824415 150.201516,18.660619 150.03246,19.1641812 M147.220874,11.3804134 C147.509242,11.0920456 147.941794,11.0920456 148.230162,11.3804134 L149.744093,12.8943443 C150.068867,13.1827121 150.068867,13.6513098 149.780139,13.9396776 C149.636315,14.0838615 149.456085,14.1559535 149.275855,14.1559535 C149.095626,14.1559535 148.915396,14.0838615 148.770851,13.9396776 L147.220874,12.3897007 C146.932867,12.1013329 146.932867,11.6687812 147.220874,11.3804134 M162.648552,14.9489649 L160.377655,12.6780685 C160.377655,12.6780685 157.602115,14.6605971 154.862982,12.1373789 C152.339763,9.36183878 154.322292,6.62234468 154.322292,6.62234468 L152.051396,4.35144826 C151.582437,3.88285058 150.861518,3.88285058 150.39292,4.35144826 L145.815081,8.92928708 L146.716231,9.83043646 C147.004959,10.1188043 147.004959,10.551356 146.716231,10.8397238 C146.572407,10.9839077 146.392177,11.0559996 146.211948,11.0559996 C146.031718,11.0559996 145.851488,10.9839077 145.706943,10.8397238 L144.805794,9.93857438 L139.939587,14.804781 L139.939587,14.840827 L130.351719,24.4651023 C129.88276,24.9337 129.88276,25.6546195 130.351719,26.1232172 L132.622255,28.3941136 C132.622255,28.3941136 135.398155,26.411585 138.137289,28.9348032 C140.660507,31.7103433 138.677978,34.4498374 138.677978,34.4498374 L140.948875,36.7207338 C141.417472,37.1893315 142.138392,37.1893315 142.60735,36.7207338 L153.060683,26.2674011 L153.060683,26.2313551 L157.061426,22.2302519 L156.412598,21.5814243 C156.124591,21.2930565 156.124591,20.8605048 156.412598,20.572137 C156.700966,20.2837692 157.133518,20.2837692 157.421885,20.572137 L158.070713,21.2209646 L162.648552,16.6431257 C163.117149,16.1745281 163.117149,15.4175626 162.648552,14.9489649" id="Fill-1"></path>
            </g>
        </g>
    </g>
</svg>