<?xml version="1.0" encoding="UTF-8"?>
<svg width="33px" height="31px" viewBox="0 0 33 31" version="1.1" xmlns="http://www.w3.org/2000/svg" xmlns:xlink="http://www.w3.org/1999/xlink">
    <!-- Generator: Sketch 50.2 (55047) - http://www.bohemiancoding.com/sketch -->
    <title>Fill 1</title>
    <desc>Created with Sketch.</desc>
    <defs></defs>
    <g id="Symbols" stroke="none" stroke-width="1" fill="none" fill-rule="evenodd">
        <g id="Formulario-camion" transform="translate(0.000000, -9.000000)" fill="#27387E">
            <path d="M27.6191083,31.483169 C26.7783439,32.7480449 25.6012739,33.4648079 25.0127389,33.0853451 C24.4242038,32.7058824 24.6343949,31.3566814 25.4751592,30.049643 C26.3159236,28.7847671 27.4929936,28.0680041 28.0815287,28.4474668 C28.6700637,28.8269296 28.4598726,30.1761306 27.6191083,31.483169 Z M4.70828025,26.3393404 L4.70828025,17.2322339 C4.70828025,16.0095206 5.71719745,15.0397824 6.89426752,15.0397824 L26.1057325,15.0397824 C27.3248408,15.0397824 28.2917197,16.0095206 28.2917197,17.2322339 L28.2917197,26.3393404 L4.70828025,26.3393404 Z M12.9477707,35.7415845 L20.0522293,35.7415845 L20.0522293,33.2118327 L12.9477707,33.2118327 L12.9477707,35.7415845 Z M7.98726115,33.0853451 C7.39872611,33.4648079 6.22165605,32.7480449 5.38089172,31.483169 C4.54012739,30.1761306 4.32993631,28.8269296 4.91847134,28.4474668 C5.50700637,28.0680041 6.68407643,28.7847671 7.52484076,30.049643 C8.3656051,31.3566814 8.57579618,32.7058824 7.98726115,33.0853451 Z M10.4254777,11.3294798 L22.6165605,11.3294798 C23.3312102,11.3294798 23.9197452,11.9197552 23.9197452,12.6365182 C23.9197452,13.3532812 23.3312102,13.9435566 22.6165605,13.9435566 L10.4254777,13.9435566 C9.66878981,13.9435566 9.08025478,13.3532812 9.08025478,12.6365182 C9.08025478,11.9197552 9.66878981,11.3294798 10.4254777,11.3294798 Z M29.510828,12.383543 C29.3426752,7.87215233 3.65732484,7.87215233 3.48917197,12.383543 C2.94267516,12.4678681 0,13.1846311 0,14.1543693 L0,19.1295478 C0,19.466848 0.294267516,19.7619857 0.630573248,19.7619857 L1.68152866,19.7619857 C2.05987261,19.7619857 2.31210191,19.466848 2.31210191,19.1295478 L2.31210191,14.5759946 L3.48917197,14.5759946 L3.48917197,33.6756205 C3.48917197,34.8140088 4.11974522,35.783747 5.00254777,36.3318599 L5.00254777,39.4940496 C5.00254777,39.7470248 5.21273885,40 5.50700637,40 L8.19745223,40 C8.44968153,40 8.65987261,39.7470248 8.65987261,39.4940496 L8.65987261,36.8378103 L24.3401274,36.8378103 L24.3401274,39.4940496 C24.3401274,39.7470248 24.5503185,40 24.844586,40 L27.5350318,40 C27.7872611,40 28.0394904,39.7470248 28.0394904,39.4940496 L28.0394904,36.3318599 C28.922293,35.783747 29.510828,34.8140088 29.510828,33.6756205 L29.510828,14.5759946 L30.6878981,14.5759946 L30.6878981,19.1295478 C30.6878981,19.466848 30.9821656,19.7619857 31.3184713,19.7619857 L32.3694268,19.7619857 C32.7057325,19.7619857 33,19.466848 33,19.1295478 L33,14.1543693 C33,13.1846311 30.0993631,12.4678681 29.510828,12.383543 Z" id="Fill-1"></path>
        </g>
    </g>
</svg>