<?xml version="1.0" encoding="UTF-8"?>
<svg width="79px" height="73px" viewBox="0 0 79 73" version="1.1" xmlns="http://www.w3.org/2000/svg" xmlns:xlink="http://www.w3.org/1999/xlink">
    <!-- Generator: Sketch 50.2 (55047) - http://www.bohemiancoding.com/sketch -->
    <title>Fill 1</title>
    <desc>Created with Sketch.</desc>
    <defs></defs>
    <g id="Page-1" stroke="none" stroke-width="1" fill="none" fill-rule="evenodd">
        <g id="Politicas-de-viaje" transform="translate(-845.000000, -142.000000)" fill="#FFFFFF">
            <g id="Hero-politicas" transform="translate(0.000000, 117.000000)">
                <path d="M911.081581,78.128672 C909.056812,81.0027991 906.222134,82.6314711 904.804795,81.769233 C903.387457,80.9069949 903.893649,77.8412593 905.918419,74.871328 C907.943188,71.9972009 910.777866,70.3685289 912.195205,71.230767 C913.612543,72.0930051 913.106351,75.1587407 911.081581,78.128672 Z M856,66 L856,44.238806 C856,41.3171642 858.438503,39 861.283422,39 L907.716578,39 C910.663102,39 913,41.3171642 913,44.238806 L913,66 L856,66 Z M875,88 L892,88 L892,82 L875,82 L875,88 Z M863.195205,81.769233 C861.777866,82.6314711 858.943188,81.0027991 856.918419,78.128672 C854.893649,75.1587407 854.387457,72.0930051 855.804795,71.230767 C857.222134,70.3685289 860.056812,71.9972009 862.081581,74.871328 C864.106351,77.8412593 864.612543,80.9069949 863.195205,81.769233 Z M870.263456,31 L899.838527,31 C901.572238,31 903,32.3548387 903,34 C903,35.6451613 901.572238,37 899.838527,37 L870.263456,37 C868.427762,37 867,35.6451613 867,34 C867,32.3548387 868.427762,31 870.263456,31 Z M915.647134,32.9676981 C915.244586,22.3441006 853.755414,22.3441006 853.352866,32.9676981 C852.044586,33.16627 845,34.8541312 845,37.1377083 L845,48.8534512 C845,49.6477389 845.704459,50.3427406 846.509554,50.3427406 L849.025478,50.3427406 C849.93121,50.3427406 850.535032,49.6477389 850.535032,48.8534512 L850.535032,38.1305678 L853.352866,38.1305678 L853.352866,83.1071064 C853.352866,85.7878273 854.86242,88.0714043 856.975796,89.3621217 L856.975796,96.8085685 C856.975796,97.4042843 857.478981,98 858.183439,98 L864.624204,98 C865.228025,98 865.73121,97.4042843 865.73121,96.8085685 L865.73121,90.5535532 L903.26879,90.5535532 L903.26879,96.8085685 C903.26879,97.4042843 903.771975,98 904.476433,98 L910.917197,98 C911.521019,98 912.124841,97.4042843 912.124841,96.8085685 L912.124841,89.3621217 C914.238217,88.0714043 915.647134,85.7878273 915.647134,83.1071064 L915.647134,38.1305678 L918.464968,38.1305678 L918.464968,48.8534512 C918.464968,49.6477389 919.169427,50.3427406 919.974522,50.3427406 L922.490446,50.3427406 C923.295541,50.3427406 924,49.6477389 924,48.8534512 L924,37.1377083 C924,34.8541312 917.056051,33.16627 915.647134,32.9676981 Z" id="Fill-1"></path>
            </g>
        </g>
    </g>
</svg>