<?xml version="1.0" encoding="UTF-8"?>
<svg width="30px" height="31px" viewBox="0 0 30 31" version="1.1" xmlns="http://www.w3.org/2000/svg" xmlns:xlink="http://www.w3.org/1999/xlink">
    <!-- Generator: Sketch 50.2 (55047) - http://www.bohemiancoding.com/sketch -->
    <title>van</title>
    <desc>Created with Sketch.</desc>
    <defs></defs>
    <g id="Symbols" stroke="none" stroke-width="1" fill="none" fill-rule="evenodd">
        <g id="Formulario-VAN" transform="translate(-229.000000, -9.000000)" fill="#27387E">
            <path d="M259,18.7218163 L259,21.2124956 C259,21.7056212 258.602823,22.1050633 258.113255,22.1050633 L256.273626,22.1050633 L256.273626,17.8292486 L258.113255,17.8292486 C258.602823,17.8292486 259,18.2286907 259,18.7218163 Z M229,21.2124956 L229,18.7214732 C229,18.2283475 229.396836,17.8289054 229.886745,17.8289054 L231.726374,17.8289054 L231.726374,22.1047204 L229.886745,22.1047202 C229.396836,22.1050633 229,21.7052781 229,21.2124956 Z M241.601936,15.6875664 C241.601936,15.4662261 241.779899,15.2870948 241.999795,15.2870948 L245.561435,15.2870948 C245.781331,15.2870948 245.959294,15.4662261 245.959294,15.6875664 L245.959294,16.2596196 C245.959294,16.4806168 245.781331,16.6600912 245.561435,16.6600912 L241.999795,16.6600912 C241.779899,16.6600912 241.601936,16.48096 241.601936,16.2596196 L241.601936,15.6875664 Z M255.889745,36.6164098 L255.889745,38.6077865 L255.889745,39.1070891 C255.889745,39.6002148 255.492568,40 255.003,40 L254.01466,40 L253.163371,40 L252.56573,40 L252.56573,36.52856 L235.43427,36.52856 L235.43427,39.9996568 L234.836629,39.9996568 L233.98534,39.9996568 L232.997,39.9996568 C232.507091,39.9996568 232.110255,39.5998716 232.110255,39.1067459 L232.110255,38.1122587 L232.110255,36.6164098 L232.110255,30.1882749 L235.216419,30.1882749 C235.706328,30.1882749 236.103164,29.7888328 236.103164,29.295364 L236.103505,28.288866 C234.752761,28.0620351 233.42111,27.7796117 232.110255,27.4436548 L232.110255,25.586455 C232.110255,25.4066374 232.135143,25.2326536 232.181849,25.0675921 C232.518342,21.8768597 234.3907,11.2367384 234.504227,10.5888461 C234.55673,10.2885782 234.677417,10.0174792 234.846857,9.78893243 C235.187099,9.31124911 235.743488,9 236.371812,9 L251.628188,9 C252.256512,9 252.812901,9.31124911 253.153143,9.78893243 C253.322583,10.0178224 253.44327,10.2885782 253.495432,10.5888461 C253.608959,11.2370816 255.481658,21.8768597 255.818151,25.0675921 C255.864857,25.2323105 255.889745,25.4062943 255.889745,25.586455 L255.889745,27.5771453 C254.578208,27.8969735 253.246557,28.1639546 251.896836,28.3756863 L251.896836,29.295364 C251.896836,29.7888328 252.293672,30.1882749 252.783581,30.1882749 L255.889745,30.1882749 L255.889745,36.6164098 Z M234.346038,22.1050633 L253.654302,22.1050633 L252.582095,15.3766605 C252.506068,14.9435884 252.13071,14.6388594 251.708646,14.6388594 L236.291695,14.6388594 C235.86963,14.6388594 235.493932,14.9435884 235.418246,15.3766605 L234.346038,22.1050633 Z M240.136302,34.1470067 L240.136302,34.71906 C240.136302,34.9404003 240.314264,35.1195315 240.53382,35.1195315 L247.46618,35.1195315 C247.685736,35.1195315 247.863698,34.9404003 247.863698,34.71906 L247.863698,34.1470067 C247.863698,33.9256664 247.685736,33.7468783 247.46618,33.7468783 L240.53382,33.7468783 C240.314264,33.7468783 240.136302,33.9260096 240.136302,34.1470067 Z M239.041593,31.0207891 C239.205578,31.3069872 239.503205,31.4672445 239.809696,31.4672445 L248.190645,31.4672445 C248.496113,31.4669013 248.794422,31.3066441 248.958407,31.0207891 L250.350743,28.5929087 C248.357016,28.8410158 246.326469,28.9683293 244.266262,28.9683293 C242.007296,28.9683293 239.784127,28.8152785 237.605959,28.5180991 L239.041593,31.0207891 Z" id="van"></path>
        </g>
    </g>
</svg>