<?xml version="1.0" encoding="UTF-8"?>
<svg width="66px" height="88px" viewBox="0 0 66 88" version="1.1" xmlns="http://www.w3.org/2000/svg" xmlns:xlink="http://www.w3.org/1999/xlink">
    <!-- Generator: Sketch 50.2 (55047) - http://www.bohemiancoding.com/sketch -->
    <title>Fill 1</title>
    <desc>Created with Sketch.</desc>
    <defs></defs>
    <g id="Page-1" stroke="none" stroke-width="1" fill="none" fill-rule="evenodd">
        <g id="Transporte" transform="translate(-30.000000, -1815.000000)" fill="#D01D56">
            <path d="M43.8224859,1833 C49.5525514,1832.07216 56.2992414,1831.60825 63.0459314,1831.60825 C69.7926215,1831.60825 76.5383873,1832.07216 82.269377,1833 C85.7804284,1831.14433 87.9994425,1828.73196 87.9994425,1826.04124 C88.0909387,1819.91753 76.9089931,1815 63.0459314,1815 C49.2752902,1815 38,1819.91753 38,1826.04124 C38,1828.73196 40.2180899,1831.14433 43.8224859,1833 Z M81,1835.37615 C75.9628713,1834.55046 69.7351485,1834 62.5,1834 C55.2648515,1834 49.0371287,1834.55046 44,1835.37615 C44.6410891,1840.23853 52.700495,1844 62.5,1844 C72.299505,1843.90826 80.3589109,1840.14679 81,1835.37615 Z M62.5,1867 C65.0207271,1867 67.4514282,1865.98377 68.7117917,1864.25618 C69.1619216,1863.64644 69.0718956,1862.83345 68.5317398,1862.32534 C68.08161,1861.81722 67.2713763,1861.91884 66.8212464,1862.52858 C65.110753,1864.66267 59.799221,1864.66267 58.1787536,1862.52858 C57.7286237,1861.91884 56.91839,1861.81722 56.4682602,1862.32534 C55.9281044,1862.83345 55.8380784,1863.74806 56.2882083,1864.25618 C57.6385978,1865.98377 59.9792729,1867 62.5,1867 Z M72,1851 C72,1849.27273 70.6363636,1848 69,1848 C67.3636364,1848 66,1849.36364 66,1851 C66,1852.63636 67.3636364,1854 69,1854 C70.6363636,1854 72,1852.63636 72,1851 Z M60,1851 C60,1849.27273 58.6363636,1848 57,1848 C55.3636364,1848 54,1849.36364 54,1851 C54,1852.63636 55.3636364,1854 57,1854 C58.6363636,1854 60,1852.63636 60,1851 Z M88.0294118,1887 L87.8520588,1887 L80,1883.34375 L81.1470588,1881 L89,1884.65625 L88.0294118,1887 Z M53,1880.77193 L54.588785,1876 C57.2056075,1877.21637 60.1028037,1877.96491 63,1877.96491 C65.8962617,1877.96491 68.7943925,1877.21637 71.411215,1876 L73,1880.77193 C67.0186916,1885.07602 58.9813084,1885.07602 53,1880.77193 Z M38.0909091,1887 L37.8181818,1886.90323 L37,1884.3871 L45.1818182,1881 L46,1883.51613 L38.0909091,1887 Z M95.8920452,1898.9957 L93.5988718,1890.33524 C93.2319641,1888.65903 92.4055044,1887.16905 91.488235,1885.77221 L91.7643331,1885.12034 C92.0395139,1884.46848 92.0395139,1883.7235 91.7643331,1883.07163 C91.488235,1882.41977 90.9387906,1881.86103 90.2967021,1881.58166 L82.3155413,1878.22923 C81.5826431,1877.94986 80.9396372,1877.94986 80.206739,1878.22923 C79.8398312,1878.41547 79.5637332,1878.60172 79.2894696,1878.97421 L75.8946557,1878.5086 L74.336215,1873.85244 C78.5556541,1870.77937 81.8569066,1866.03009 83.142001,1860.44269 C84.6087147,1859.60458 87.0862593,1857.55587 87.0862593,1852.4341 C87.0862593,1848.70917 86.4432534,1846.38109 85.2517205,1845.17049 C84.9765397,1844.89112 84.6087147,1844.70487 84.3344512,1844.51862 C84.0592704,1842.19054 83.5089087,1840.04871 82.6833663,1838 C81.67437,1839.76934 79.8398312,1841.35244 77.5466578,1842.65616 C77.9135656,1846.28797 78.2804733,1850.19914 78.2804733,1850.19914 C78.2804733,1850.75788 78.6464638,1851.2235 79.1977427,1851.2235 L81.67437,1851.2235 C82.1330047,1851.2235 82.5916394,1848.89542 82.5916394,1848.33668 C82.5916394,1848.33668 82.8668202,1848.33668 83.142001,1848.24355 C83.4171818,1848.89542 83.6006357,1850.01289 83.6006357,1852.34097 C83.6006357,1856.53152 81.3982719,1857.2765 81.2157353,1857.2765 C80.4810025,1857.46275 80.0223679,1858.02149 79.8398312,1858.67335 C78.1878291,1867.52006 71.1257722,1873.94556 62.8703479,1873.94556 C54.7066505,1873.94556 47.6436763,1867.52006 45.9925915,1858.67335 C45.8091376,1858.02149 45.258776,1857.46275 44.6166874,1857.2765 C44.4332335,1857.18338 42.2317871,1856.53152 42.2317871,1852.34097 C42.2317871,1850.10602 42.5069679,1848.89542 42.6904217,1848.24355 C43.0573295,1848.33668 43.3325103,1848.33668 43.3325103,1848.33668 C43.3325103,1848.89542 43.699418,1851.2235 44.2497797,1851.2235 L46.726407,1851.2235 C47.2767686,1851.2235 47.6436763,1850.75788 47.6436763,1850.19914 C47.6436763,1850.19914 47.9188572,1846.28797 48.2857649,1842.65616 C45.9008645,1841.35244 44.1580527,1839.76934 43.1490564,1838 C42.323514,1840.04871 41.7731524,1842.19054 41.5896985,1844.51862 C41.3145177,1844.70487 40.9476099,1844.79799 40.7641561,1845.07736 C39.388252,1846.38109 38.8378904,1848.61605 38.8378904,1852.4341 C38.8378904,1857.55587 41.3145177,1859.60458 42.8738756,1860.44269 C44.1580527,1866.12321 47.3684955,1870.77937 51.6796616,1873.85244 L50.1203036,1878.60172 L46.8181339,1879.06734 C46.5429531,1878.78797 46.1760453,1878.5086 45.9008645,1878.32235 C45.258776,1878.04298 44.5249605,1878.04298 43.8828719,1878.32235 L35.8109015,1881.76791 C35.1688129,1882.04728 34.6184513,1882.60602 34.3432705,1883.25788 C34.0680897,1883.90974 34.0680897,1884.65473 34.3432705,1885.30659 L34.5267243,1885.86533 C33.609455,1887.26218 32.7839125,1888.75215 32.4170048,1890.42837 L30.1238314,1899.08883 C29.8486506,1900.02006 30.0321044,1901.04441 30.674193,1901.7894 C31.2245546,1902.53438 32.141824,1903 33.0590934,1903 L92.9567832,1903 C93.8740526,1903 94.791322,1902.62751 95.3416836,1901.7894 C95.8920452,1900.95129 96.167226,1900.02006 95.8920452,1898.9957 Z" id="Fill-1"></path>
        </g>
    </g>
</svg>