<?xml version="1.0" encoding="UTF-8"?>
<svg width="64px" height="64px" viewBox="0 0 64 64" version="1.1" xmlns="http://www.w3.org/2000/svg" xmlns:xlink="http://www.w3.org/1999/xlink">
    <!-- Generator: Sketch 50.2 (55047) - http://www.bohemiancoding.com/sketch -->
    <title>Group 5</title>
    <desc>Created with Sketch.</desc>
    <defs></defs>
    <g id="Page-1" stroke="none" stroke-width="1" fill="none" fill-rule="evenodd">
        <g id="Restricciones-de-enviÌo" transform="translate(-503.000000, -735.000000)">
            <g id="Group-5" transform="translate(503.000000, 735.000000)">
                <circle id="Oval-2-Copy-3" fill="#27387E" cx="32" cy="32" r="32"></circle>
                <g id="drogas" transform="translate(14.596491, 10.105263)" fill="#FFFFFF">
                    <path d="M23.2128349,14.0383907 C22.3965988,13.3869146 23.3760822,12.2468314 24.1923183,12.8983075 L25.6615434,14.2012597 L27.6205102,11.5953553 L24.8453073,9.31518892 L10.3163035,26.5793058 C10.3163035,26.7421749 10.3163035,26.9050439 10.3163035,27.0679129 L12.765012,29.0223413 C12.9282593,29.0223413 13.0915065,29.0223413 13.0915065,28.8594722 L15.3769677,26.4164368 L13.9077427,25.1134846 C13.0915065,24.4620085 14.0709899,23.3219253 14.887226,23.9734014 L16.1932039,25.2763536 L17.662429,23.6476633 L16.1932039,22.3447111 C15.540215,21.693235 16.3564511,20.5531518 17.1726873,21.2046279 L18.6419124,22.5075802 L19.9478903,20.7160208 L18.4786652,19.5759377 C17.8256762,18.9244615 18.8051596,17.7843784 19.4581486,18.4358545 L20.9273737,19.7388067 L22.3965988,17.9472474 L20.9273737,16.8071642 C20.1111375,16.1556881 21.0906209,15.0156049 21.7436098,15.667081 L23.2128349,16.9700332 L24.68206,15.1784739 L23.2128349,14.0383907 Z M14.2342371,29.8366864 C13.9077427,30.3252935 13.0915065,30.6510315 12.4385176,30.4881625 L10.9692925,32.1168528 C10.4795508,32.7683289 9.6633146,32.6054599 9.01032567,32.1168528 L1.33770572,41.2375183 C0.684716787,42.0518635 -0.458013843,41.0746493 0.194975088,40.2603042 L8.03084227,31.1396386 C7.37785334,30.6510315 7.05135887,29.9995554 7.54110057,29.1852103 L9.01032567,27.55652 C8.6838312,26.9050439 8.84707843,26.0906988 9.1735729,25.6020917 L23.7025766,8.33797475 L22.7230932,7.36076059 C21.9068571,6.87215351 22.8863405,5.73207031 23.5393294,6.38354642 C24.1923183,6.87215351 24.8453073,7.36076059 25.4982962,8.0122367 L30.3957132,2.14895171 L29.4162298,1.33460657 C28.7632408,0.68313046 29.579477,-0.456952733 30.3957132,0.194523377 L35.6196246,4.59198712 C36.4358608,5.24346323 35.4563774,6.38354642 34.8033885,5.73207031 L33.8239051,4.91772518 L28.9264881,10.7810102 C29.579477,11.2696173 30.2324659,11.9210934 30.8854549,12.4097004 C31.5384438,13.0611766 30.7222076,14.2012597 29.9059715,13.5497836 L28.7632408,12.5725695 C24.0290711,18.2729854 19.1316541,24.1362704 14.2342371,29.8366864 Z M27.7837574,9.803796 L32.6811744,4.10338004 L31.5384438,3.12616587 L26.6410268,8.82658184 L27.7837574,9.803796 Z M9.98980906,30.9767696 L11.1325397,29.6738174 L9.98980906,28.5337342 L8.84707843,29.9995554 C9.33682013,30.3252935 9.6633146,30.6510315 9.98980906,30.9767696 Z" id="Shape" fill-rule="nonzero"></path>
                    <path d="M23.4249679,32.4561404 L16.292725,32.4561404 C13.307135,32.4561404 13.4730011,37.6491228 16.292725,37.6491228 L23.4249679,37.6491228 C26.4105579,37.6491228 26.4105579,32.4561404 23.4249679,32.4561404 Z M19.9417795,36.1654135 L19.9417795,33.9398496 L23.4249679,33.9398496 C24.7518968,33.9398496 24.7518968,36.1654135 23.4249679,36.1654135 L19.9417795,36.1654135 Z" id="Shape"></path>
                    <path d="M13.7880647,36.3508772 L20.9203075,36.3508772 C23.9058976,36.3508772 23.7400314,41.5438596 20.9203075,41.5438596 L13.7880647,41.5438596 C10.8024747,41.5438596 10.8024747,36.3508772 13.7880647,36.3508772 Z M17.4371192,40.0601504 L17.4371192,37.8345865 L13.7880647,37.8345865 C12.4611358,37.8345865 12.4611358,40.0601504 13.7880647,40.0601504 L17.4371192,40.0601504 Z" id="Shape"></path>
                </g>
            </g>
        </g>
    </g>
</svg>