<?xml version="1.0" encoding="UTF-8"?>
<svg width="30px" height="30px" viewBox="0 0 30 30" version="1.1" xmlns="http://www.w3.org/2000/svg" xmlns:xlink="http://www.w3.org/1999/xlink">
    <!-- Generator: Sketch 50.2 (55047) - http://www.bohemiancoding.com/sketch -->
    <title>Fill 1</title>
    <desc>Created with Sketch.</desc>
    <defs></defs>
    <g id="Symbols" stroke="none" stroke-width="1" fill="none" fill-rule="evenodd">
        <g id="Formulario-Paquete-" transform="translate(-389.000000, -10.000000)" fill="#27387E">
            <path d="M414.029048,25.5052381 C413.889524,25.6447619 413.706667,25.7142857 413.52381,25.7142857 C413.352381,25.7142857 413.183333,25.6471429 413.047619,25.5242857 L413.047619,27.3809524 C413.047619,27.7752381 412.727619,28.0952381 412.333333,28.0952381 C411.939048,28.0952381 411.619048,27.7752381 411.619048,27.3809524 L411.619048,25.5242857 C411.483333,25.647619 411.314286,25.7142857 411.142857,25.7142857 C410.96,25.7142857 410.777143,25.6447619 410.637619,25.5052381 C410.597619,25.4652381 410.575714,25.4157143 410.547619,25.3695238 C410.519048,25.4157143 410.497619,25.4652381 410.457619,25.5052381 C410.318095,25.6447619 410.135238,25.7142857 409.952381,25.7142857 C409.780952,25.7142857 409.611905,25.6471429 409.47619,25.5242857 L409.47619,27.3809524 C409.47619,27.7752381 409.15619,28.0952381 408.761905,28.0952381 C408.367619,28.0952381 408.047619,27.7752381 408.047619,27.3809524 L408.047619,25.5242857 C407.911905,25.647619 407.742857,25.7142857 407.571429,25.7142857 C407.388571,25.7142857 407.205714,25.6447619 407.06619,25.5052381 C406.787143,25.2266667 406.787143,24.7738095 407.06619,24.4952381 L408.256667,23.3047619 C408.535714,23.0257143 408.987619,23.0257143 409.266667,23.3047619 L410.457143,24.4952381 C410.497143,24.5352381 410.519048,24.5847619 410.547143,24.6309524 C410.575714,24.5847619 410.597143,24.5352381 410.637143,24.4952381 L411.827619,23.3047619 C412.106667,23.0257143 412.558571,23.0257143 412.837619,23.3047619 L414.028095,24.4952381 C414.307619,24.7738095 414.307619,25.2261905 414.029048,25.5052381 Z M413.52381,30.4761905 L407.571429,30.4761905 C407.177143,30.4761905 406.857143,30.1561905 406.857143,29.7619048 C406.857143,29.367619 407.177143,29.047619 407.571429,29.047619 L413.52381,29.047619 C413.918095,29.047619 414.238095,29.367619 414.238095,29.7619048 C414.238095,30.1561905 413.918095,30.4761905 413.52381,30.4761905 Z M408.761905,38.0952381 L399.238095,38.0952381 L399.238095,33.3333333 C399.238095,32.6757143 399.770952,32.1428571 400.428571,32.1428571 L407.571429,32.1428571 C408.229048,32.1428571 408.761905,32.6757143 408.761905,33.3333333 L408.761905,38.0952381 Z M399.238095,11.9047619 L408.761905,11.9047619 L408.761905,16.6666667 C408.761905,17.3242857 408.229048,17.8571429 407.571429,17.8571429 L400.428571,17.8571429 C399.770952,17.8571429 399.238095,17.3242857 399.238095,16.6666667 L399.238095,11.9047619 Z M417.095238,10 L390.904762,10 C389.854286,10 389,10.8542857 389,11.9047619 L389,38.0952381 C389,39.1457143 389.854286,40 390.904762,40 L417.095238,40 C418.145714,40 419,39.1457143 419,38.0952381 L419,11.9047619 C419,10.8542857 418.145714,10 417.095238,10 Z" id="Fill-1"></path>
        </g>
    </g>
</svg>