<?xml version="1.0" encoding="UTF-8"?>
<svg width="10px" height="11px" viewBox="0 0 10 11" version="1.1" xmlns="http://www.w3.org/2000/svg" xmlns:xlink="http://www.w3.org/1999/xlink">
    <!-- Generator: Sketch 50.2 (55047) - http://www.bohemiancoding.com/sketch -->
    <title>Shape</title>
    <desc>Created with Sketch.</desc>
    <defs></defs>
    <g id="Page-1" stroke="none" stroke-width="1" fill="none" fill-rule="evenodd">
        <path d="M8.43874988,3.76220649 L9.20181683,3.14315714 L8.5550982,2.45312945 L7.791014,3.07300689 C8.03032278,3.28215637 8.24750631,3.51224446 8.43874988,3.76220649 Z M4.92045303,2.31566808 L4.92045303,1.37331243 L5.90451821,1.37331243 L5.90451821,0 L2.95232268,0 L2.95232268,1.37331243 L3.93638786,1.37331243 L3.93638786,2.31566808 C1.72246374,2.54362683 0,4.28815593 0,6.4086336 C0,8.68396233 1.98262621,10.5284526 4.42835687,10.5284526 C6.87408753,10.5284526 8.85684089,8.68396233 8.85684089,6.4086336 C8.85684089,4.28815593 7.13463146,2.54362683 4.92045303,2.31566808 Z M4.42848402,9.6129504 C2.52609365,9.6129504 0.984192332,8.17847831 0.984192332,6.4086336 C0.984192332,4.63890719 2.52609365,3.2043168 4.42848402,3.2043168 C6.33074724,3.2043168 7.87277571,4.63878889 7.87277571,6.4086336 C7.87277571,8.17847831 6.33074724,9.6129504 4.42848402,9.6129504 Z M4.92045303,4.11981899 L3.93638786,4.11981899 L3.93638786,6.86632555 L6.39661437,6.86632555 L6.39661437,5.95094166 L4.92045303,5.95094166 L4.92045303,4.11981899 Z" id="Shape" fill="#FFFFFF" fill-rule="nonzero"></path>
    </g>
</svg>