<?xml version="1.0" encoding="UTF-8"?>
<svg width="120px" height="65px" viewBox="0 0 120 65" version="1.1" xmlns="http://www.w3.org/2000/svg" xmlns:xlink="http://www.w3.org/1999/xlink">
    <!-- Generator: Sketch 50.2 (55047) - http://www.bohemiancoding.com/sketch -->
    <title>Fill 1</title>
    <desc>Created with Sketch.</desc>
    <defs></defs>
    <g id="Page-1" stroke="none" stroke-width="1" fill="none" fill-rule="evenodd">
        <g id="Transporte" transform="translate(-850.000000, -1223.000000)" fill="#FFFFFF">
            <g id="rastrear-paquete-copy" transform="translate(687.000000, 1158.000000)">
                <path d="M182.155652,70.6906307 C187.158082,70.6906307 191.204929,74.737477 191.204929,79.739907 C191.204929,86.5271462 182.155652,96.5455445 182.155652,96.5455445 C182.155652,96.5455445 173.106376,86.5271462 173.106376,79.739907 C173.106376,74.737477 177.152094,70.6906307 182.155652,70.6906307 Z M200.774304,83.6175235 C200.774304,73.3351269 192.438049,65 182.155652,65 C171.873256,65 163.537001,73.3351269 163.537001,83.6175235 C163.537001,93.9010484 171.873256,102.236175 182.155652,102.236175 C192.438049,102.236175 200.774304,93.9010484 200.774304,83.6175235 Z M185.38794,79.739907 C185.38794,77.9562259 183.939333,76.5076197 182.155652,76.5076197 C180.370843,76.5076197 178.923365,77.9562259 178.923365,79.739907 C178.923365,81.5247162 180.370843,82.9721943 182.155652,82.9721943 C183.939333,82.9721943 185.38794,81.5247162 185.38794,79.739907 Z M271.859804,102.875864 L256.059391,102.875864 C254.87704,102.875864 253.801867,101.802947 253.801867,100.62398 L253.801867,89.3656924 C253.797354,88.2544173 254.738271,87.2187316 255.848418,87.1149373 C258.908091,87.1138091 262.012892,87.1149373 265.08836,87.1149373 C265.86456,87.1126809 266.62835,87.5425244 267.027732,88.2047766 L273.799177,99.4630645 C274.620505,100.822543 273.450563,102.879248 271.859804,102.875864 Z M251.545471,100.095984 C251.178807,102.447148 249.272152,102.750634 247.418523,102.875864 L239.90698,102.875864 C237.958582,102.861197 235.792442,102.04551 235.745058,100.095984 L235.745058,89.893689 C236.13203,87.5504218 238.056735,87.2390391 239.90698,87.1149373 L247.418523,87.1149373 C249.378203,87.1296039 251.499215,87.9340091 251.545471,89.893689 L251.545471,100.095984 Z M233.488662,100.095984 C233.120869,102.447148 231.215343,102.750634 229.361713,102.875864 L221.850171,102.875864 C219.901773,102.861197 217.735633,102.04551 217.688249,100.095984 L217.688249,89.893689 C218.075221,87.5504218 219.999926,87.2390391 221.850171,87.1149373 L229.361713,87.1149373 C232.570309,87.517704 233.211125,87.3800639 233.488662,89.893689 L233.488662,100.095984 Z M279.794421,114.098049 C279.797805,109.878589 279.812472,105.409796 279.830523,101.890947 C279.841805,99.4980387 274.222251,89.3656924 270.836529,82.6111709 L203.012649,82.6111709 C203.031828,82.9451175 203.052136,83.2790641 203.052136,83.6175235 C203.052136,84.8517721 202.92465,86.053303 202.719318,87.2277571 C203.073572,87.17586 203.432339,87.1386295 203.792234,87.1149373 L211.304904,87.1149373 C213.264584,87.1296039 215.385597,87.9340091 215.430724,89.893689 L215.430724,100.095984 C215.06406,102.447148 213.157405,102.750634 211.304904,102.875864 L203.792234,102.875864 C201.844964,102.861197 199.678824,102.04551 199.63144,100.095984 L199.63144,95.0585795 C198.963546,96.0750859 198.204269,97.0239004 197.373915,97.9072795 L197.373915,100.095984 C197.007251,102.447148 195.100596,102.750634 193.248095,102.875864 L190.280934,102.875864 C187.783104,103.930729 185.03707,104.514007 182.155652,104.514007 C180.406946,104.514007 178.718033,104.275957 177.094556,103.872062 L177.094556,120.888673 L182.737803,120.888673 C182.737803,114.697122 187.81695,109.630385 194.023167,109.630385 C200.229385,109.630385 205.308532,114.697122 205.308532,120.888673 C221.348123,120.95298 237.750994,120.899955 251.545471,120.888673 C251.604137,114.746763 256.661849,109.735307 262.830836,109.735307 C269.00095,109.735307 274.057534,114.746763 274.1162,120.888673 C276.06347,120.887545 277.890023,120.888673 279.583448,120.888673 C280.823337,120.985698 282.020355,119.876679 282.016971,118.63679 L282.016971,116.384906 C282.03615,115.20594 280.976772,114.117228 279.794421,114.098049 Z M262.830836,111.987191 C257.8442,111.987191 253.801867,116.020498 253.801867,120.994724 C253.801867,125.968949 257.8442,130 262.830836,130 C267.817471,130 271.859804,125.968949 271.859804,120.994724 C271.859804,116.020498 267.817471,111.987191 262.830836,111.987191 Z M194.023167,111.882268 C189.036532,111.882268 184.995327,115.914448 184.995327,120.888673 C184.995327,125.86177 189.036532,129.895078 194.023167,129.895078 C199.009802,129.895078 203.052136,125.86177 203.052136,120.888673 C203.052136,115.914448 199.009802,111.882268 194.023167,111.882268 Z" id="Fill-1"></path>
            </g>
        </g>
    </g>
</svg>