<?xml version="1.0" encoding="UTF-8"?>
<svg width="15px" height="18px" viewBox="0 0 15 18" version="1.1" xmlns="http://www.w3.org/2000/svg" xmlns:xlink="http://www.w3.org/1999/xlink">
    <!-- Generator: Sketch 50.2 (55047) - http://www.bohemiancoding.com/sketch -->
    <title>Fill 1</title>
    <desc>Created with Sketch.</desc>
    <defs></defs>
    <g id="Symbols" stroke="none" stroke-width="1" fill="none" fill-rule="evenodd">
        <g id="footer" transform="translate(-61.000000, -311.000000)" fill="#FFFFFF">
            <g id="dudas" transform="translate(57.000000, 241.000000)">
                <g id="factura" transform="translate(4.000000, 69.000000)">
                    <path d="M0,1 L0,19 L2.43245455,18.1818182 L4.90909091,19 L7.36363636,18.1818182 L9.81818182,19 L12.2727273,18.1818182 L14.7272727,19 L14.7272727,1 L0,1 Z M0.818181818,1.81818182 L13.9090909,1.81818182 L13.9090909,18.1818182 L12.2727273,17.3636364 L9.81818182,18.1818182 L7.36363636,17.3636364 L4.90909091,18.1818182 L2.45454545,17.3636364 L0.818181818,18.1818182 L0.818181818,1.81818182 Z M2.45454545,5.90827273 L12.2735455,5.90827273 L12.2735455,4.27190909 L2.45454545,4.27190909 L2.45454545,5.90827273 Z M9.81818182,9.18181818 L12.2735455,9.18181818 L12.2735455,8.36363636 L9.81818182,8.36363636 L9.81818182,9.18181818 Z M2.45454545,9.18181818 L8.18181818,9.18181818 L8.18181818,8.36363636 L2.45454545,8.36363636 L2.45454545,9.18181818 Z M9.81818182,10.8181818 L12.2735455,10.8181818 L12.2735455,10 L9.81818182,10 L9.81818182,10.8181818 Z M2.45454545,10.8181818 L5.72809091,10.8181818 L5.72809091,10 L2.45454545,10 L2.45454545,10.8181818 Z M9.81818182,13.2719091 L12.2735455,13.2719091 L12.2735455,12.4537273 L9.81818182,12.4537273 L9.81818182,13.2719091 Z M2.45454545,13.2719091 L8.18181818,13.2719091 L8.18181818,12.4537273 L2.45454545,12.4537273 L2.45454545,13.2719091 Z M9.81818182,14.9082727 L12.2735455,14.9082727 L12.2735455,14.0900909 L9.81818182,14.0900909 L9.81818182,14.9082727 Z M2.45454545,14.9082727 L5.72809091,14.9082727 L5.72809091,14.0900909 L2.45454545,14.0900909 L2.45454545,14.9082727 Z" id="Fill-1"></path>
                </g>
            </g>
        </g>
    </g>
</svg>