<?xml version="1.0" encoding="UTF-8"?>
<svg width="21px" height="18px" viewBox="0 0 21 18" version="1.1" xmlns="http://www.w3.org/2000/svg" xmlns:xlink="http://www.w3.org/1999/xlink">
    <!-- Generator: Sketch 50.2 (55047) - http://www.bohemiancoding.com/sketch -->
    <title>Fill 1</title>
    <desc>Created with Sketch.</desc>
    <defs></defs>
    <g id="Symbols" stroke="none" stroke-width="1" fill="none" fill-rule="evenodd">
        <g id="footer" transform="translate(-58.000000, -243.000000)" fill="#FFFFFF">
            <g id="dudas" transform="translate(57.000000, 241.000000)">
                <g id="faq" transform="translate(1.000000, 0.000000)">
                    <path d="M7.33857534,7.22739726 L8.67008219,7.22739726 C8.86734247,7.22739726 9.06460274,7.07945205 9.11391781,6.88219178 C9.16323288,6.73424658 9.26186301,6.58630137 9.36049315,6.48767123 C9.55775342,6.33972603 9.7550137,6.24109589 10.0509041,6.24109589 C10.3961096,6.24109589 10.6426849,6.33972603 10.8399452,6.5369863 C11.0372055,6.78356164 11.1358356,7.03013699 11.1358356,7.37534247 C11.1358356,7.72054795 11.0372055,8.01643836 10.8892603,8.2630137 C10.7413151,8.50958904 10.5440548,8.75616438 10.2481644,8.90410959 C9.70569863,9.29863014 9.36049315,9.59452055 9.16323288,9.89041096 C9.01528767,10.1369863 8.91665753,10.4328767 8.86734247,10.8273973 C8.8180274,11.0246575 8.9659726,11.1726027 9.16323288,11.1726027 L10.5933699,11.1726027 C10.7413151,11.1726027 10.8892603,11.0246575 10.8892603,10.8767123 C10.9385753,10.630137 10.9878904,10.4821918 11.0372055,10.3342466 C11.1358356,10.1369863 11.3330959,9.93972603 11.5796712,9.79178082 C12.0235068,9.54520548 12.4180274,9.24931507 12.7139178,8.80547945 C13.0098082,8.36164384 13.1577534,7.91780822 13.1084384,7.37534247 C13.1084384,6.5369863 12.8125479,5.89589041 12.2700822,5.40273973 C11.7276164,4.90958904 10.9878904,4.6630137 10.001589,4.6630137 C9.11391781,4.6630137 8.37419178,4.86027397 7.83172603,5.30410959 C7.33857534,5.69863014 7.092,6.24109589 7.04268493,6.93150685 C7.04268493,7.07945205 7.19063014,7.22739726 7.33857534,7.22739726 Z M8.86734247,13.2438356 C8.86734247,13.490411 9.06460274,13.6876712 9.31117808,13.6876712 L10.4454247,13.6876712 C10.692,13.6876712 10.8892603,13.490411 10.8892603,13.2438356 L10.8892603,12.5041096 C10.8892603,12.2575342 10.692,12.060274 10.4454247,12.060274 L9.31117808,12.060274 C9.06460274,12.060274 8.86734247,12.2575342 8.86734247,12.5041096 L8.86734247,13.2438356 Z M2.86027397,2 L17.2109589,2 C18.7890411,2 20.0712329,3.28219178 20.0712329,4.86027397 L20.0712329,13.539726 C20.0712329,14.9205479 19.0849315,16.1041096 17.7534247,16.3506849 L17.7534247,18.9150685 C17.7534247,19.2109589 17.6054795,19.5068493 17.4082192,19.7041096 C17.2109589,19.9013699 16.9643836,20 16.6684932,20 C16.3726027,20 16.1260274,19.9013699 15.8794521,19.7041096 L12.6246575,16.4493151 L2.76164384,16.4493151 C1.28219178,16.4493151 0,15.1178082 0,13.539726 L0,4.86027397 C0,3.28219178 1.28219178,2 2.86027397,2 Z" id="Fill-1"></path>
                </g>
            </g>
        </g>
    </g>
</svg>