<?xml version="1.0" encoding="UTF-8"?>
<svg width="23px" height="20px" viewBox="0 0 23 20" version="1.1" xmlns="http://www.w3.org/2000/svg" xmlns:xlink="http://www.w3.org/1999/xlink">
    <!-- Generator: Sketch 50.2 (55047) - http://www.bohemiancoding.com/sketch -->
    <title>Fill 1 Copy 2</title>
    <desc>Created with Sketch.</desc>
    <defs></defs>
    <g id="Page-1" stroke="none" stroke-width="1" fill="none" fill-rule="evenodd">
        <g id="Index-Transp-Copy-2" transform="translate(-977.000000, -142.000000)" fill="#FFFFFF">
            <g id="main-slide" transform="translate(0.000000, 117.000000)">
                <path d="M997.813062,37.1563022 L980.420793,44.8129568 C979.49775,45.2176684 978.366248,44.9509907 977.677018,44.2251391 C976.887314,43.3959968 976.765243,42.0231701 977.440388,41.0804081 L981.475297,35.4585794 C981.569198,35.3261796 981.626477,35.1778166 981.628355,35.0153686 L981.627416,35.0059785 L981.628355,35.0003445 L981.627416,34.9975275 L981.624599,34.9890764 L981.626477,34.9881374 C981.62366,34.8256894 981.572015,34.6773265 981.476236,34.5439876 L977.43851,28.9193419 C976.765243,27.9803359 976.885436,26.6056312 977.674201,25.7764889 C978.357797,25.0525153 979.496811,24.7830206 980.419854,25.1905492 L997.814001,32.8509599 C998.618729,33.2528544 999.147389,34.1017158 999.139877,35.0022225 C999.149267,35.9064853 998.616851,36.7562857 997.813062,37.1563022" id="Fill-1-Copy-2"></path>
            </g>
        </g>
    </g>
</svg>