<?xml version="1.0" encoding="UTF-8"?>
<svg width="23px" height="20px" viewBox="0 0 23 20" version="1.1" xmlns="http://www.w3.org/2000/svg" xmlns:xlink="http://www.w3.org/1999/xlink">
    <!-- Generator: Sketch 50.2 (55047) - http://www.bohemiancoding.com/sketch -->
    <title>Fill 1 Copy 5</title>
    <desc>Created with Sketch.</desc>
    <defs></defs>
    <g id="Page-1" stroke="none" stroke-width="1" fill="none" fill-rule="evenodd">
        <g id="Index-Transp-Copy-2" transform="translate(-25.000000, -126.000000)" fill="#FFFFFF">
            <g id="main-slide" transform="translate(0.000000, 117.000000)">
                <path d="M45.8130617,21.1563022 L28.4207932,28.8129568 C27.4977504,29.2176684 26.3662482,28.9509907 25.6770178,28.2251391 C24.8873138,27.3959968 24.765243,26.0231701 25.4403883,25.0804081 L29.4752969,19.4585794 C29.5691975,19.3261796 29.6264769,19.1778166 29.6283549,19.0153686 L29.6274159,19.0059785 L29.6283549,19.0003445 L29.6274159,18.9975275 L29.6245989,18.9890764 L29.6264769,18.9881374 C29.6236599,18.8256894 29.5720146,18.6773265 29.476236,18.5439876 L25.4385103,12.9193419 C24.765243,11.9803359 24.8854358,10.6056312 25.6742008,9.77648892 C26.3577971,9.05251532 27.4968114,8.78302061 28.4198542,9.1905492 L45.8140007,16.8509599 C46.6187288,17.2528544 47.1473892,18.1017158 47.1398772,19.0022225 C47.1492672,19.9064853 46.6168508,20.7562857 45.8130617,21.1563022" id="Fill-1-Copy-5" transform="translate(36.070000, 19.001098) scale(-1, 1) translate(-36.070000, -19.001098) "></path>
            </g>
        </g>
    </g>
</svg>