<?xml version="1.0" encoding="UTF-8"?>
<svg width="32px" height="32px" viewBox="0 0 32 32" version="1.1" xmlns="http://www.w3.org/2000/svg" xmlns:xlink="http://www.w3.org/1999/xlink">
    <!-- Generator: Sketch 50.2 (55047) - http://www.bohemiancoding.com/sketch -->
    <title>IG</title>
    <desc>Created with Sketch.</desc>
    <defs></defs>
    <g id="Page-1" stroke="none" stroke-width="1" fill="none" fill-rule="evenodd">
        <g id="Sobre-Nosotros" transform="translate(-687.000000, -2322.000000)">
            <g id="info-redes-tel" transform="translate(687.000000, 2234.000000)">
                <g id="IG" transform="translate(0.000000, 88.000000)">
                    <rect id="Rectangle-7" stroke="#D01D56" x="0.5" y="0.5" width="31" height="31" rx="15.5"></rect>
                    <path d="M15.9971607,7.00000357 C13.5536964,7.00000357 13.2472679,7.01036071 12.2876607,7.05414643 C11.3299821,7.097825 10.6759821,7.24993214 10.1036607,7.47236071 C9.51205357,7.70225357 9.01026786,8.00989643 8.51008929,8.510075 C8.009875,9.01028929 7.70226786,9.51203929 7.47233929,10.1036464 C7.24991071,10.6759679 7.09783929,11.3299679 7.054125,12.2876464 C7.01033929,13.2472893 7.00001786,13.5536464 7.00001786,15.9971464 C7.00001786,18.4406464 7.01033929,18.7470393 7.054125,19.7066821 C7.09783929,20.664325 7.24991071,21.3183607 7.47233929,21.8906464 C7.70226786,22.4822536 8.009875,22.9840393 8.51008929,23.4842179 C9.01026786,23.9844321 9.51205357,24.2920393 10.1036607,24.5220036 C10.6759821,24.7443964 11.3299821,24.8965036 12.2876607,24.9402179 C13.2472679,24.9839679 13.5536964,24.994325 15.9971607,24.994325 C18.4406607,24.994325 18.7470179,24.9839679 19.7066607,24.9402179 C20.6643393,24.8965036 21.3183393,24.7443964 21.8906607,24.5220036 C22.4823036,24.2920393 22.9840536,23.9844321 23.4842321,23.4842179 C23.9844464,22.9840393 24.2920536,22.4822893 24.5219821,21.8906464 C24.7444107,21.3183607 24.8965179,20.664325 24.9401964,19.7066821 C24.9839821,18.7470393 24.9943393,18.4406464 24.9943393,15.9971464 C24.9943393,13.5536821 24.9839821,13.2472893 24.9401964,12.2876464 C24.8965179,11.3299679 24.7444107,10.6759679 24.5219821,10.1036464 C24.2920536,9.51203929 23.9844464,9.01028929 23.4842321,8.510075 C22.9840536,8.00989643 22.4823036,7.70225357 21.8906607,7.47236071 C21.3183393,7.24993214 20.6643393,7.097825 19.7066607,7.05414643 C18.7470179,7.01036071 18.4406607,7.00000357 15.9971607,7.00000357 M15.9971607,8.62111071 C18.3995179,8.62111071 18.6840536,8.63025357 19.6327679,8.67353929 C20.5099821,8.713575 20.986375,8.86014643 21.3034107,8.98336071 C21.723375,9.146575 22.023125,9.34153929 22.3379464,9.65636071 C22.6527679,9.97121786 22.8477321,10.2709321 23.0109821,10.6908964 C23.1341607,11.0079321 23.2807321,11.484325 23.3207679,12.3615393 C23.3640179,13.3102536 23.3731964,13.594825 23.3731964,15.9971464 C23.3731964,18.3995036 23.3640179,18.684075 23.3207679,19.6327536 C23.2807321,20.5100036 23.1341607,20.9863964 23.0109821,21.3034321 C22.8477321,21.7233607 22.6527679,22.0231107 22.3379464,22.3379321 C22.023125,22.6527893 21.723375,22.8477536 21.3034107,23.0109679 C20.986375,23.1341464 20.5099821,23.2807536 19.6327679,23.3207536 C18.6841964,23.3640393 18.3996964,23.3732179 15.9971607,23.3732179 C13.594625,23.3732179 13.310125,23.3640393 12.3615536,23.3207536 C11.4843393,23.2807536 11.0079107,23.1341464 10.690875,23.0109679 C10.2709464,22.8477536 9.97119643,22.6527893 9.656375,22.3379321 C9.34155357,22.0231107 9.14655357,21.7233607 8.98333929,21.3034321 C8.86016071,20.9863964 8.71358929,20.5100036 8.67355357,19.6327893 C8.63026786,18.684075 8.621125,18.3995036 8.621125,15.9971464 C8.621125,13.594825 8.63026786,13.3102536 8.67355357,12.3615393 C8.71358929,11.484325 8.86016071,11.0079321 8.98333929,10.6908964 C9.14655357,10.2709321 9.34155357,9.97121786 9.656375,9.65639643 C9.97119643,9.34153929 10.2709464,9.146575 10.690875,8.98336071 C11.0079107,8.86014643 11.4843393,8.713575 12.3615179,8.67353929 C13.3102679,8.63025357 13.5948036,8.62111071 15.9971607,8.62111071" id="Fill-1" fill="#27387E"></path>
                    <path d="M15.9971607,18.9962179 C14.3408393,18.9962179 12.9980893,17.6534679 12.9980893,15.9971464 C12.9980893,14.340825 14.3408393,12.9981107 15.9971607,12.9981107 C17.6534821,12.9981107 18.9962321,14.340825 18.9962321,15.9971464 C18.9962321,17.6534679 17.6534821,18.9962179 15.9971607,18.9962179 M15.9971607,11.3770036 C13.4455179,11.3770036 11.3769821,13.4455036 11.3769821,15.9971464 C11.3769821,18.548825 13.4455179,20.617325 15.9971607,20.617325 C18.5488036,20.617325 20.6173036,18.548825 20.6173036,15.9971464 C20.6173036,13.4455036 18.5488036,11.3770036 15.9971607,11.3770036" id="Fill-4" fill="#27387E"></path>
                    <path d="M21.8795214,11.1944607 C21.8795214,11.7907464 21.3961643,12.2741036 20.7998786,12.2741036 C20.2035929,12.2741036 19.7202,11.7907464 19.7202,11.1944607 C19.7202,10.598175 20.2035929,10.1148179 20.7998786,10.1148179 C21.3961643,10.1148179 21.8795214,10.598175 21.8795214,11.1944607" id="Fill-6" fill="#27387E"></path>
                </g>
            </g>
        </g>
    </g>
</svg>