<?xml version="1.0" encoding="UTF-8"?>
<svg width="35px" height="35px" viewBox="0 0 35 35" version="1.1" xmlns="http://www.w3.org/2000/svg" xmlns:xlink="http://www.w3.org/1999/xlink">
    <!-- Generator: Sketch 50.2 (55047) - http://www.bohemiancoding.com/sketch -->
    <title>IG</title>
    <desc>Created with Sketch.</desc>
    <defs></defs>
    <g id="Symbols" stroke="none" stroke-width="1" fill="none" fill-rule="evenodd">
        <g id="footer" transform="translate(-757.000000, -163.000000)">
            <g id="redes-sociales" transform="translate(757.000000, 163.000000)">
                <g id="IG">
                    <rect id="Rectangle-7" stroke="#FFFFFF" x="0.5" y="0.5" width="34" height="34" rx="17"></rect>
                    <path d="M17.4968945,7.65625391 C14.8243555,7.65625391 14.4891992,7.66758203 13.4396289,7.71547266 C12.392168,7.76324609 11.6768555,7.92961328 11.0508789,8.17289453 C10.4038086,8.42433984 9.85498047,8.76082422 9.30791016,9.30789453 C8.76080078,9.85500391 8.42435547,10.403793 8.17287109,11.0508633 C7.92958984,11.6768398 7.76326172,12.3921523 7.71544922,13.4396133 C7.66755859,14.4892227 7.65626953,14.8243008 7.65626953,17.4968789 C7.65626953,20.169457 7.66755859,20.5045742 7.71544922,21.5541836 C7.76326172,22.6016055 7.92958984,23.316957 8.17287109,23.9428945 C8.42435547,24.5899648 8.76080078,25.138793 9.30791016,25.6858633 C9.85498047,26.2329727 10.4038086,26.569418 11.0508789,26.8209414 C11.6768555,27.0641836 12.392168,27.2305508 13.4396289,27.2783633 C14.4891992,27.3262148 14.8243555,27.337543 17.4968945,27.337543 C20.1694727,27.337543 20.5045508,27.3262148 21.5541602,27.2783633 C22.6016211,27.2305508 23.3169336,27.0641836 23.9429102,26.8209414 C24.5900195,26.569418 25.1388086,26.2329727 25.6858789,25.6858633 C26.2329883,25.138793 26.5694336,24.5900039 26.820918,23.9428945 C27.0641992,23.316957 27.2305664,22.6016055 27.2783398,21.5541836 C27.3262305,20.5045742 27.3375586,20.169457 27.3375586,17.4968789 C27.3375586,14.8243398 27.3262305,14.4892227 27.2783398,13.4396133 C27.2305664,12.3921523 27.0641992,11.6768398 26.820918,11.0508633 C26.5694336,10.403793 26.2329883,9.85500391 25.6858789,9.30789453 C25.1388086,8.76082422 24.5900195,8.42433984 23.9429102,8.17289453 C23.3169336,7.92961328 22.6016211,7.76324609 21.5541602,7.71547266 C20.5045508,7.66758203 20.1694727,7.65625391 17.4968945,7.65625391 M17.4968945,9.42933984 C20.1244727,9.42933984 20.4356836,9.43933984 21.4733398,9.48668359 C22.432793,9.53047266 22.9538477,9.69078516 23.3006055,9.82555078 C23.7599414,10.0040664 24.087793,10.2173086 24.4321289,10.5616445 C24.7764648,10.9060195 24.989707,11.233832 25.1682617,11.693168 C25.3029883,12.0399258 25.4633008,12.5609805 25.5070898,13.5204336 C25.5543945,14.5580898 25.5644336,14.8693398 25.5644336,17.4968789 C25.5644336,20.124457 25.5543945,20.435707 25.5070898,21.4733242 C25.4633008,22.4328164 25.3029883,22.9538711 25.1682617,23.3006289 C24.989707,23.7599258 24.7764648,24.0877773 24.4321289,24.4321133 C24.087793,24.7764883 23.7599414,24.9897305 23.3006055,25.1682461 C22.9538477,25.3029727 22.432793,25.4633242 21.4733398,25.5070742 C20.4358398,25.554418 20.124668,25.564457 17.4968945,25.564457 C14.8691211,25.564457 14.5579492,25.554418 13.5204492,25.5070742 C12.5609961,25.4633242 12.0399023,25.3029727 11.6931445,25.1682461 C11.2338477,24.9897305 10.9059961,24.7764883 10.5616602,24.4321133 C10.2173242,24.0877773 10.004043,23.7599258 9.82552734,23.3006289 C9.69080078,22.9538711 9.53048828,22.4328164 9.48669922,21.4733633 C9.43935547,20.435707 9.42935547,20.124457 9.42935547,17.4968789 C9.42935547,14.8693398 9.43935547,14.5580898 9.48669922,13.5204336 C9.53048828,12.5609805 9.69080078,12.0399258 9.82552734,11.693168 C10.004043,11.233832 10.2173242,10.9060195 10.5616602,10.5616836 C10.9059961,10.2173086 11.2338477,10.0040664 11.6931445,9.82555078 C12.0399023,9.69078516 12.5609961,9.53047266 13.5204102,9.48668359 C14.5581055,9.43933984 14.8693164,9.42933984 17.4968945,9.42933984" id="Fill-1" fill="#FFFFFF"></path>
                    <path d="M17.4968945,20.7771133 C15.685293,20.7771133 14.2166602,19.3084805 14.2166602,17.4968789 C14.2166602,15.6852773 15.685293,14.2166836 17.4968945,14.2166836 C19.3084961,14.2166836 20.7771289,15.6852773 20.7771289,17.4968789 C20.7771289,19.3084805 19.3084961,20.7771133 17.4968945,20.7771133 M17.4968945,12.4435977 C14.7060352,12.4435977 12.4435742,14.7060195 12.4435742,17.4968789 C12.4435742,20.2877773 14.7060352,22.5501992 17.4968945,22.5501992 C20.2877539,22.5501992 22.5501758,20.2877773 22.5501758,17.4968789 C22.5501758,14.7060195 20.2877539,12.4435977 17.4968945,12.4435977" id="Fill-4" fill="#FFFFFF"></path>
                    <path d="M23.9307266,12.2439414 C23.9307266,12.8961289 23.4020547,13.4248008 22.7498672,13.4248008 C22.0976797,13.4248008 21.5689687,12.8961289 21.5689687,12.2439414 C21.5689687,11.5917539 22.0976797,11.063082 22.7498672,11.063082 C23.4020547,11.063082 23.9307266,11.5917539 23.9307266,12.2439414" id="Fill-6" fill="#FFFFFF"></path>
                </g>
            </g>
        </g>
    </g>
</svg>