<?xml version="1.0" encoding="UTF-8"?>
<svg width="20px" height="20px" viewBox="0 0 20 20" version="1.1" xmlns="http://www.w3.org/2000/svg" xmlns:xlink="http://www.w3.org/1999/xlink">
    <!-- Generator: Sketch 50.2 (55047) - http://www.bohemiancoding.com/sketch -->
    <title>Fill 1</title>
    <desc>Created with Sketch.</desc>
    <defs></defs>
    <g id="Symbols" stroke="none" stroke-width="1" fill="none" fill-rule="evenodd">
        <g id="Menu-Top" transform="translate(-801.000000, -5.000000)" fill="#4A4A4A">
            <g id="login-menu">
                <g id="iniciar-sesion" transform="translate(801.000000, 2.000000)">
                    <path d="M15.4635881,18.3237525 C15.1214684,18.1999984 14.4915144,17.9768981 14.366495,17.9315108 C12.440878,17.2318022 12.2281859,16.7796834 12.2281859,15.9712819 C12.2281859,15.8624664 12.2281859,15.8624664 12.3507971,15.7248349 C12.5598975,15.4903062 12.8725888,15.1393703 13.0485874,14.2780712 C13.4506249,14.0697464 13.7301328,13.7256267 13.7994384,12.8146138 C13.8005404,12.7991445 13.8011935,12.7837161 13.8011935,12.7682468 C13.8011935,12.4049436 13.7009494,12.1220888 13.5622566,11.9172333 C13.6107869,11.6289092 13.6792761,11.1903005 13.7152758,10.8120179 C13.7680917,10.2557775 13.5934401,9.34651962 12.9273639,8.61444396 C12.4623881,8.10330528 11.5770075,7.49388168 9.99991837,7.49388168 C8.42278839,7.49388168 7.53740786,8.10330528 7.07239125,8.61444396 C6.40647831,9.34656044 6.23170423,10.2557775 6.28452013,10.8122219 C6.32056065,11.1903821 6.38896825,11.6288683 6.4375801,11.9172741 C6.29896899,12.1221296 6.19872491,12.404862 6.19872491,12.7682468 C6.19872491,12.7837161 6.19925552,12.7992261 6.20048,12.8146546 C6.26978555,13.7253818 6.54925266,14.0695423 6.95100448,14.2780304 C7.12704386,15.1394111 7.43981682,15.4902246 7.64883552,15.7247533 C7.77156921,15.8624664 7.77156921,15.8624664 7.77156921,15.9713635 C7.77156921,16.7799691 7.56063216,17.2368226 5.63338258,17.9315924 C5.60717872,17.9409393 4.96334724,18.1447743 4.50739178,18.2943241 C3.1831985,16.9207843 2.36740925,15.0539832 2.36740925,12.9999592 C2.36740925,8.79138129 5.79138129,5.36736843 10,5.36736843 C14.2086595,5.36736843 17.6325908,8.79138129 17.6325908,12.9999592 C17.6325908,15.0688403 16.8048424,16.9476412 15.4635881,18.3237525 M17.0710443,5.92891487 C15.182325,4.04015477 12.6711211,3 10,3 C7.32891976,3 4.81767496,4.04015477 2.92891487,5.92891487 C1.04019559,7.81767496 0,10.3289198 0,12.9999592 C0,15.6710394 1.04015477,18.1822842 2.92891487,20.0710443 C4.81767496,21.959682 7.32891976,22.9999184 10,22.9999184 C12.6711211,22.9999184 15.1822842,21.9597636 17.0710443,20.0710443 C18.9597636,18.1822842 20,15.6710394 20,12.9999592 C20,10.3289198 18.9598044,7.81767496 17.0710443,5.92891487" id="Fill-1"></path>
                </g>
            </g>
        </g>
    </g>
</svg>