<?xml version="1.0" encoding="UTF-8"?>
<svg width="64px" height="64px" viewBox="0 0 64 64" version="1.1" xmlns="http://www.w3.org/2000/svg" xmlns:xlink="http://www.w3.org/1999/xlink">
    <!-- Generator: Sketch 50.2 (55047) - http://www.bohemiancoding.com/sketch -->
    <title>Group 2</title>
    <desc>Created with Sketch.</desc>
    <defs></defs>
    <g id="Page-1" stroke="none" stroke-width="1" fill="none" fill-rule="evenodd">
        <g id="Restricciones-de-enviÌo" transform="translate(-89.000000, -736.000000)">
            <g id="Group-2" transform="translate(89.000000, 736.000000)">
                <circle id="Oval-2" fill="#27387E" cx="32" cy="32" r="32"></circle>
                <path d="M46.2255204,21.3333333 L17.7744796,21.3333333 L12.3508772,26.709404 L12.3508772,28.1885557 L32.0002024,48.2807018 L32.9838831,47.3059704 L33.0122196,47.3224233 L33.0725358,47.2172855 L51.3394456,28.5027651 L51.6491228,28.1933712 L51.6491228,26.709404 L46.2255204,21.3333333 Z M46.4091747,25.1829574 L47.7192982,26.4661654 L45.0994152,26.4661654 L46.4091747,25.1829574 Z M44.7562058,23.8997494 L45.0994152,24.2155512 L42.6515187,26.4661654 L39.8596491,23.9001003 L44.7562058,23.9001003 L44.7562058,23.8997494 Z M41.1695906,26.4661654 L34.619883,26.4661654 L37.8945124,23.8997494 L41.1695906,26.4661654 Z M34.619883,23.8997494 L32,26.4661654 L29.380117,23.8997494 L34.619883,23.8997494 Z M30.6900585,26.4661654 L24.1403509,26.4661654 L27.4154286,23.8997494 L30.6900585,26.4661654 Z M19.146315,23.8997494 L24.1403509,23.8997494 L21.3974071,26.4661654 L18.9005848,24.1296651 L19.146315,23.8997494 Z M16.2807018,25.1829574 L17.5906433,26.4661654 L14.9707602,26.4661654 L16.2807018,25.1829574 Z M14.9707602,29.0325815 L19.9882378,29.0325815 L26.7602339,40.5814536 L14.9707602,29.0325815 Z M30.6900585,43.1478697 L22.8304094,29.0325815 L30.6900585,29.0325815 L30.6900585,43.1478697 Z M33.3099415,43.1478697 L33.3099415,29.0325815 L41.1695906,29.0325815 L33.3099415,43.1478697 Z M37.2397661,40.5814536 L44.0089504,29.0325815 L49.0292398,29.0325815 L37.2397661,40.5814536 Z" id="joyas" fill="#FFFFFF" fill-rule="nonzero"></path>
            </g>
        </g>
    </g>
</svg>