<?xml version="1.0" encoding="UTF-8"?>
<svg width="32px" height="32px" viewBox="0 0 32 32" version="1.1" xmlns="http://www.w3.org/2000/svg" xmlns:xlink="http://www.w3.org/1999/xlink">
    <!-- Generator: Sketch 50.2 (55047) - http://www.bohemiancoding.com/sketch -->
    <title>facebook copy 2</title>
    <desc>Created with Sketch.</desc>
    <defs></defs>
    <g id="Page-1" stroke="none" stroke-width="1" fill="none" fill-rule="evenodd">
        <g id="Sobre-Nosotros" transform="translate(-127.000000, -2398.000000)">
            <g id="Group-2" transform="translate(127.000000, 2191.000000)">
                <g id="facebook-copy-2" transform="translate(0.000000, 207.000000)">
                    <rect id="Rectangle-7-Copy" stroke="#D01D56" x="0.5" y="0.5" width="31" height="31" rx="15.5"></rect>
                    <path d="M7.35047266,11.007018 C7.13183594,11.3384948 7,11.7276737 7,12.1483051 L7,20.7415254 C7,21.1181166 7.11042578,21.4674176 7.28894922,21.7747595 L12.9716406,15.7022395 L7.35047266,11.007018 Z M18.1807773,16.4103074 L16.3702305,17.9239897 C16.2641992,18.0121038 16.1323633,18.0561441 16,18.0561441 C15.8676016,18.0561441 15.7357656,18.0120702 15.6297695,17.9239562 L13.8186602,16.4102738 L8.06347656,22.5593943 C8.40846484,22.7660344 8.81276172,22.8898305 9.25,22.8898305 L22.75,22.8898305 C23.1872383,22.8898305 23.5915352,22.7660344 23.9365234,22.5593943 L18.1807773,16.4103074 Z M16,16.8057634 L23.8222656,10.2706529 C23.5014648,10.1028165 23.1400234,10 22.75,10 L9.25,10 C8.85944922,10 8.49797266,10.1028165 8.17829688,10.2706529 L16,16.8057634 Z M25,20.7415254 C25,21.1181166 24.8890469,21.4674176 24.7110508,21.7747595 L19.027832,15.7032801 L24.6495273,11.007018 C24.8681641,11.3384948 25,11.7276737 25,12.1483051 L25,20.7415254 Z" id="Fill-1" fill="#27387E"></path>
                </g>
            </g>
        </g>
    </g>
</svg>