<?xml version="1.0" encoding="UTF-8"?>
<svg width="147px" height="25px" viewBox="0 0 147 25" version="1.1" xmlns="http://www.w3.org/2000/svg" xmlns:xlink="http://www.w3.org/1999/xlink">
    <!-- Generator: Sketch 50.2 (55047) - http://www.bohemiancoding.com/sketch -->
    <title>MasterCard</title>
    <desc>Created with Sketch.</desc>
    <defs></defs>
    <g id="Page-1" stroke="none" stroke-width="1" fill="none" fill-rule="evenodd">
        <g id="Index-Transp-Copy-2" transform="translate(-662.000000, -960.000000)" fill="#D82332">
            <g id="compra-segura-copy-2" transform="translate(195.000000, 960.000000)">
                <g id="MasterCard" transform="translate(467.000000, 0.000000)">
                    <path d="M143.71095,22.9983596 C143.71095,22.1805774 144.377352,21.5223097 145.192569,21.5223097 C146.013593,21.5223097 146.675639,22.1805774 146.675639,22.9983596 C146.675639,23.8103675 146.013593,24.4729659 145.192569,24.4729659 C144.377352,24.4729659 143.71095,23.8103675 143.71095,22.9983596 L143.71095,22.9983596 Z M145.192569,24.1192913 C145.817593,24.1192913 146.322838,23.6162073 146.322838,22.9983596 C146.322838,22.37979 145.817593,21.876706 145.192569,21.876706 C144.570448,21.876706 144.066655,22.37979 144.066655,22.9983596 C144.066655,23.6162073 144.570448,24.1192913 145.192569,24.1192913 L145.192569,24.1192913 Z M144.992938,23.6429134 L144.689501,23.6429134 L144.689501,22.3487533 L145.24048,22.3487533 C145.355902,22.3487533 145.472051,22.353084 145.572955,22.4151575 C145.680392,22.4851706 145.738466,22.6093176 145.738466,22.7377953 C145.738466,22.8843176 145.653533,23.0214567 145.514881,23.0734252 L145.754437,23.6429134 L145.41688,23.6429134 L145.216524,23.131168 L144.992938,23.131168 L144.992938,23.6429134 L144.992938,23.6429134 Z M144.992938,22.9095801 L145.161354,22.9095801 C145.222332,22.9095801 145.293473,22.9153543 145.347191,22.8843176 C145.396554,22.8532808 145.421962,22.7912073 145.421962,22.7349081 C145.421962,22.6858268 145.392925,22.6309711 145.350095,22.6006562 C145.297828,22.5717848 145.212169,22.5797244 145.155546,22.5797244 L144.992938,22.5797244 L144.992938,22.9095801 L144.992938,22.9095801 Z" id="registered"></path>
                    <path d="M142.116812,24.4772966 L137.400459,24.4772966 L137.634207,22.7240814 C136.265833,24.1770341 134.863341,24.8042651 133.03618,24.8042651 C129.411622,24.8042651 127.014608,21.699147 127.014608,16.9858924 C127.014608,10.719357 130.732085,5.43733596 135.128304,5.43733596 C137.062902,5.43733596 138.527099,6.2226378 139.891117,8.00688976 L140.997431,1.31233596 L145.915593,1.31233596 L142.116812,24.4772966 L142.116812,24.4772966 Z M134.760259,20.1242126 C137.083954,20.1242126 138.714388,17.5077428 138.714388,13.7761155 C138.714388,11.3819554 137.785926,10.082021 136.071285,10.082021 C133.810019,10.082021 132.203541,12.7071522 132.203541,16.4120735 C132.203541,18.8784121 133.064491,20.1242126 134.760259,20.1242126 L134.760259,20.1242126 Z" id="d-2"></path>
                    <path d="M119.679107,5.12352326 C119.054809,10.9548225 117.946317,16.8611873 117.078833,22.6953736 L116.851618,23.9628277 L121.839468,23.9628277 C123.623073,12.4416991 124.052822,10.1933395 126.852,10.4741138 C127.296994,8.11604294 128.126004,6.05101669 128.744494,5.01020305 C126.656,4.57713218 125.489434,5.75075423 123.96063,7.98106919 C124.082585,7.01604294 124.302542,6.07988809 124.261164,5.12352326 L119.679107,5.12352326" id="r-2"></path>
                    <path d="M111.79553,15.7906168 C111.27504,15.7299869 111.044195,15.7133858 110.685586,15.7133858 C107.859549,15.7133858 106.428745,16.6762467 106.428745,18.5795932 C106.428745,19.7510499 107.127088,20.5009843 108.21598,20.5009843 C110.245674,20.5009843 111.712048,18.5781496 111.79553,15.7906168 L111.79553,15.7906168 Z M115.425169,24.1828084 L111.293914,24.1828084 L111.387558,22.2318241 C110.126622,23.7728346 108.445373,24.5097769 106.162329,24.5097769 C103.457522,24.5097769 101.607132,22.4093832 101.607132,19.3620079 C101.607132,14.7729003 104.827348,12.100853 110.361096,12.100853 C110.926594,12.100853 111.649618,12.1520997 112.390791,12.2473753 C112.545413,11.6237533 112.586791,11.3588583 112.586791,11.021063 C112.586791,9.77526247 111.720759,9.31115486 109.389805,9.31115486 C106.950687,9.28228346 104.940593,9.88641732 104.110857,10.155643 C104.16385,9.84383202 104.802667,5.91948819 104.802667,5.91948819 C107.288244,5.19481627 108.925937,4.92125984 110.77052,4.92125984 C115.052768,4.92125984 117.322019,6.83471129 117.316938,10.4465223 C117.326375,11.4144357 117.165219,12.6118766 116.914048,14.1795932 C116.481395,16.9057743 115.552933,22.7608924 115.425169,24.1828084 L115.425169,24.1828084 Z" id="a-2"></path>
                    <path d="M103.801612,1.7937664 L102.984943,6.82099738 C101.204242,5.93103675 99.9142681,5.57086614 98.5299236,5.57086614 C94.8066394,5.57086614 92.1954768,9.14875328 92.1954768,14.2517717 C92.1954768,17.7675853 93.9507705,19.8917979 96.8501265,19.8917979 C98.0776705,19.8917979 99.4344298,19.5143045 101.08519,18.7037402 L100.208995,23.982874 C98.3731232,24.4809055 97.1847792,24.6620735 95.8026125,24.6620735 C90.4329239,24.6620735 87.0885741,20.823622 87.0885741,14.6603018 C87.0885741,6.37854331 91.7120088,0.590551181 98.3201305,0.590551181 C100.497914,0.590551181 103.069877,1.50793963 103.801612,1.7937664" id="c-2"></path>
                    <path d="M79.0300485,5.12352326 C78.4028468,10.9548225 77.2929031,16.8611873 76.4268711,22.6953736 L76.1996557,23.9628277 L81.1889581,23.9628277 C82.9740148,12.4416991 83.4023122,10.1933395 86.1971346,10.4741138 C86.6450321,8.11604294 87.4762196,6.05101669 88.0925324,5.01020305 C86.0054897,4.57713218 84.8374717,5.75075423 83.3115712,7.98106919 C83.4320753,7.01604294 83.6534833,6.07988809 83.6092017,5.12352326 L79.0300485,5.12352326" id="r-3"></path>
                    <path d="M74.484288,23.7475722 C72.7812612,24.2658136 71.1355827,24.5112205 69.3969854,24.5097769 C63.8465407,24.506168 60.9551699,21.6226378 60.9551699,16.105315 C60.9551699,9.66338583 64.6341724,4.92125984 69.6278304,4.92125984 C73.7184341,4.92125984 76.327419,7.57598425 76.327419,11.7428478 C76.327419,13.123622 76.145937,14.4711942 75.7176395,16.3745407 L65.8457461,16.3745407 C65.5103674,19.1079396 67.2707426,20.2483596 70.1534022,20.2483596 C71.9268441,20.2483596 73.528241,19.8831365 75.3096681,19.0603018 L74.484288,23.7475722 L74.484288,23.7475722 Z M71.6981768,12.5750656 C71.7250361,12.1809711 72.2230227,9.21227034 69.390452,9.21227034 C67.8122848,9.21227034 66.6834669,10.4111549 66.2232286,12.5750656 L71.6981768,12.5750656 L71.6981768,12.5750656 Z" id="e-2"></path>
                    <path d="M59.0437385,24.1604331 C57.67972,24.5877297 56.6155097,24.7732283 55.4620103,24.7732283 C52.9125515,24.7732283 51.5202218,23.3159449 51.5202218,20.635958 C51.4853773,19.8001312 51.8882672,17.6138451 52.2047718,15.6130577 C52.4922393,13.8511811 54.367311,2.75590551 54.367311,2.75590551 L59.3239467,2.75590551 L58.7446562,5.60695538 L61.2890335,5.60695538 L60.6117428,10.1339895 L58.0586543,10.1339895 C57.4829935,13.7198163 56.6612432,18.1804462 56.6518061,18.7723097 C56.6518061,19.7467192 57.1744742,20.1682415 58.3606404,20.1682415 C58.928316,20.1682415 59.3682283,20.112664 59.7050588,19.9906824 L59.0437385,24.1604331" id="t-2"></path>
                    <path d="M39.6128898,11.2989501 C39.6128898,13.6844488 40.7758263,15.3243438 43.4116704,16.5607612 C45.4304759,17.5048556 45.7426249,17.7841864 45.7426249,18.6402231 C45.7426249,19.8145669 44.8526373,20.344357 42.8788394,20.344357 C41.3906872,20.344357 40.0070686,20.1148294 38.4100273,19.603084 C38.4100273,19.603084 37.7566922,23.7540682 37.7254773,23.9503937 C38.8586507,24.1972441 39.8698683,24.4224409 42.9144098,24.5097769 C48.1773871,24.5097769 50.6077937,22.5183727 50.6077937,18.2129265 C50.6077937,15.6231627 49.5900428,14.1045276 47.0921249,12.9641076 C45.0014525,12.0077428 44.7611704,11.7962598 44.7611704,10.9156824 C44.7611704,9.89724409 45.5894541,9.37322835 47.20174,9.37322835 C48.1795649,9.37322835 49.51745,9.48149606 50.7849201,9.65905512 L51.4948776,5.29009186 C50.2034518,5.08727034 48.2463502,4.92125984 47.1051916,4.92125984 C41.5264357,4.92125984 39.5961934,7.81850394 39.6128898,11.2989501" id="s-2"></path>
                    <path d="M33.398947,15.7906168 C32.8762789,15.7299869 32.6454338,15.7133858 32.2860995,15.7133858 C29.4593363,15.7133858 28.0285324,16.6762467 28.0285324,18.5795932 C28.0285324,19.7510499 28.7268751,20.5009843 29.8164928,20.5009843 C31.848365,20.5009843 33.3125616,18.5781496 33.398947,15.7906168 L33.398947,15.7906168 Z M37.0256828,24.1828084 L32.8944271,24.1828084 L32.9887977,22.2318241 C31.7285869,23.7728346 30.046612,24.5097769 27.7621169,24.5097769 C25.0594874,24.5097769 23.2069194,22.4093832 23.2069194,19.3620079 C23.2069194,14.7729003 26.4293133,12.100853 31.9616098,12.100853 C32.5278335,12.100853 33.2523096,12.1520997 33.9942079,12.2473753 C34.1488305,11.6237533 34.1894825,11.3588583 34.1894825,11.021063 C34.1894825,9.77526247 33.3205468,9.31115486 30.9917701,9.31115486 C28.5504746,9.28228346 26.5396543,9.88641732 25.7120965,10.155643 C25.7643633,9.84383202 26.4039058,5.91948819 26.4039058,5.91948819 C28.888757,5.19481627 30.5279022,4.92125984 32.372485,4.92125984 C36.6547336,4.92125984 38.9225324,6.83471129 38.9181768,10.4465223 C38.9268879,11.4144357 38.7657319,12.6118766 38.5152868,14.1795932 C38.0819078,16.9057743 37.1527201,22.7608924 37.0256828,24.1828084 L37.0256828,24.1828084 Z" id="a-3"></path>
                    <polyline id="m-2" points="20.7002903 24.4772966 15.7138916 24.4772966 18.5711438 6.66942257 12.1924154 24.4772966 8.79362102 24.4772966 8.37330877 6.7726378 5.370871 24.4772966 0.703154638 24.4772966 4.60211336 1.31233596 11.773555 1.31233596 11.9731852 15.6527559 16.8122205 1.31233596 24.5571452 1.31233596 20.7002903 24.4772966"></polyline>
                </g>
            </g>
        </g>
    </g>
</svg>