<?xml version="1.0" encoding="UTF-8"?>
<svg width="166px" height="166px" viewBox="0 0 166 166" version="1.1" xmlns="http://www.w3.org/2000/svg" xmlns:xlink="http://www.w3.org/1999/xlink">
    <!-- Generator: Sketch 50.2 (55047) - http://www.bohemiancoding.com/sketch -->
    <title>ninos copy</title>
    <desc>Created with Sketch.</desc>
    <defs></defs>
    <g id="Page-1" stroke="none" stroke-width="1" fill="none" fill-rule="evenodd">
        <g id="ninos-copy">
            <circle id="Oval-Copy" fill="#D01D56" cx="83" cy="83" r="83"></circle>
            <g id="kids" transform="translate(37.041322, 32.925620)" fill="#FFFFFF" fill-rule="nonzero">
                <path d="M0,27.4951791 L0,30.4561983 C0,31.0974705 0.361337572,31.6829063 0.933736809,31.9705482 C1.17181437,32.088989 1.43184234,32.1482094 1.68849332,32.1482094 C2.04645391,32.1482094 2.40441449,32.0348446 2.70158932,31.8098072 L9.45556262,26.7337741 L7.42937063,24.0265565 L3.38542912,27.0637163 C3.52895105,24.1534573 5.10431532,21.5156121 7.52392626,19.9860342 C7.55263064,20.0757107 7.59990846,20.1569273 7.63030134,20.2449118 C7.82447807,20.8015835 8.04060521,21.346411 8.29556771,21.8743185 C8.35466497,21.9961433 8.4238932,22.112892 8.48636745,22.2347168 C8.74977241,22.7423201 9.03175079,23.2363873 9.34918754,23.7101504 C9.44036618,23.8472033 9.54167578,23.9774882 9.6379199,24.111157 C9.95029116,24.5443118 10.2778589,24.9656226 10.634131,25.3632452 C10.7742759,25.5206022 10.9228633,25.6678072 11.0697622,25.8183961 C11.4091494,26.1669504 11.7586675,26.5019686 12.1318245,26.8183747 C12.2145607,26.8877471 12.2821004,26.9706556 12.3665251,27.0383361 L12.38341,27.0163399 C13.1972638,27.6762242 14.0685264,28.2718121 15.0225251,28.7608033 L11.8194533,28.7608033 L9.30190973,28.7608033 C7.05283662,28.7608033 5.04859504,30.2751532 4.43060648,32.4426193 L1.75265607,41.8332804 C1.60744565,42.3442678 1.71044374,42.8924793 2.02788048,43.3171741 C2.34869421,43.7435609 2.84848824,43.9922865 3.37698665,43.9922865 L3.37698665,50.5674413 L1.58887222,58.2982397 C1.08063573,59.6789207 1.17012587,61.2118826 1.84045772,62.5265752 C2.41792244,63.6585306 3.39218309,64.5113041 4.54880102,64.9833752 L1.79824539,72.1490419 C1.59900318,72.6701813 1.6682314,73.2556171 1.98229116,73.7158441 C2.29635092,74.1760711 2.82147235,74.4484848 3.37698665,74.4484848 L10.1309599,74.4484848 L10.1309599,93.0606061 C10.1309599,93.2450353 10.1816147,93.4142364 10.2356465,93.5800534 C9.13306039,94.7847653 8.44246662,96.3752556 8.44246662,98.1366391 L8.44246662,99.8286501 C8.44246662,100.764332 9.19722314,101.520661 10.1309599,101.520661 L20.2619199,101.520661 C21.1956567,101.520661 21.9504132,100.764332 21.9504132,99.8286501 C21.9504132,100.764332 22.7051697,101.520661 23.6389065,101.520661 L33.7698665,101.520661 C34.7036033,101.520661 35.4583598,100.764332 35.4583598,99.8286501 L35.4583598,98.1366391 C35.4583598,96.3769477 34.7677661,94.7847653 33.6651799,93.5800534 C33.7192117,93.4142364 33.7698665,93.2450353 33.7698665,93.0606061 L33.7698665,74.4484848 L40.5238398,74.4484848 C41.0793541,74.4484848 41.6010985,74.1743791 41.9151583,73.7141521 C42.2292181,73.2539251 42.3001348,72.6684893 42.0992041,72.1473499 L39.3486484,64.9816832 C40.5069549,64.5079201 41.479527,63.6568386 42.0569917,62.5248832 C42.7273236,61.2101906 42.8168137,59.6772287 42.3085772,58.2965477 L40.5238398,50.5674413 L40.5238398,43.9922865 C41.0523382,43.9922865 41.5521322,43.7435609 41.872946,43.3205581 C42.1903827,42.8958634 42.2933808,42.3476518 42.1481704,41.8366645 L39.47022,32.4460033 C38.8522314,30.2785372 36.8479898,28.7641873 34.5989167,28.7641873 L32.0813732,28.7641873 L28.8766128,28.7641873 C29.8306116,28.2751961 30.7018741,27.6796083 31.5157279,27.019724 L31.5326128,27.0417201 C31.6170375,26.9740397 31.6845772,26.8911311 31.7673134,26.8217587 C32.1404704,26.5053526 32.4899886,26.1703344 32.8293757,25.8217802 C32.9762746,25.6711912 33.124862,25.5239862 33.265007,25.3666292 C33.6229676,24.9673146 33.9488468,24.5476959 34.2612181,24.114541 C34.3574622,23.9808722 34.4587718,23.8505873 34.5499504,23.7135344 C34.8673872,23.2397713 35.151054,22.7457041 35.4127705,22.2381008 C35.4752448,22.117968 35.544473,22.0012193 35.6035702,21.8777025 C35.8585327,21.349795 36.0746599,20.8049675 36.2688366,20.2482959 C36.2992295,20.1603113 36.3448188,20.0774028 36.3752117,19.9894182 C38.7965111,21.5173041 40.3701869,24.1568413 40.5137088,27.0671003 L36.4714558,24.0265565 L34.4452638,26.7337741 L41.1992371,31.8098072 C41.496412,32.0348446 41.852684,32.1482094 42.2123331,32.1482094 C42.4689841,32.1482094 42.7290121,32.088989 42.9670896,31.9705482 C43.5394889,31.6829063 43.9008264,31.0974705 43.9008264,30.4561983 L43.9008264,27.4951791 C43.9008264,22.8116926 41.1891062,18.576589 37.0556745,16.5309477 C37.0928214,16.0977928 37.1468531,15.668022 37.1468531,15.2280992 C37.1468531,6.83064848 30.3304056,0 21.9504132,0 C13.5704209,0 6.7539733,6.83064848 6.7539733,15.2280992 C6.7539733,15.668022 6.80800509,16.0977928 6.84515194,16.5309477 C2.71172028,18.576589 0,22.8116926 0,27.4951791 Z M18.5734266,33.5745747 C19.6523738,34.0195736 20.8005493,34.246303 21.9504132,34.246303 C23.1002772,34.246303 24.2484526,34.0195736 25.3273999,33.5745747 L25.3273999,38.9162534 L18.5734266,38.9162534 L18.5734266,33.5745747 Z M7.67926764,33.3749174 C7.88357533,32.6524287 8.5505302,32.1482094 9.30190973,32.1482094 L10.1309599,32.1482094 L10.1309599,40.6082645 L5.6159288,40.6082645 L7.67926764,33.3749174 Z M7.32468404,57.7551041 L5.75269676,61.8497708 C5.36434329,61.6754937 5.04859504,61.3776997 4.84766434,60.9851532 C4.59776732,60.492778 4.57075143,59.9377983 4.77674762,59.421735 C4.80882899,59.3422105 4.83415639,59.2593019 4.85441831,59.1747014 L6.71176097,51.1410331 C6.73877686,51.0158242 6.7539733,50.8889234 6.7539733,50.7603306 L6.7539733,43.9922865 L10.1309599,43.9922865 L10.1309599,50.4439245 L7.32468404,57.7551041 Z M16.8849332,91.368595 L13.5079466,91.368595 L13.5079466,74.4484848 L16.8849332,74.4484848 L16.8849332,91.368595 Z M11.8194533,98.1366391 C11.8194533,96.270351 13.3340318,94.7526171 15.1964399,94.7526171 C17.0588481,94.7526171 18.5734266,96.270351 18.5734266,98.1366391 L11.8194533,98.1366391 Z M21.9504132,98.1366391 C21.9504132,96.3769477 21.2598195,94.7847653 20.1572333,93.5800534 C20.2112651,93.4142364 20.2619199,93.2450353 20.2619199,93.0606061 L20.2619199,74.4484848 L23.6389065,74.4484848 L23.6389065,93.0606061 C23.6389065,93.2450353 23.6895613,93.4142364 23.7435931,93.5800534 C22.641007,94.7847653 21.9504132,96.3752556 21.9504132,98.1366391 Z M25.3273999,98.1366391 C25.3273999,96.270351 26.8419784,94.7526171 28.7043865,94.7526171 C30.5667947,94.7526171 32.0813732,96.270351 32.0813732,98.1366391 L25.3273999,98.1366391 Z M30.3928798,91.368595 L27.0158932,91.368595 L27.0158932,74.4484848 L30.3928798,74.4484848 L30.3928798,91.368595 Z M32.0813732,71.0644628 L25.3273999,71.0644628 L18.5734266,71.0644628 L11.8194533,71.0644628 L5.83543293,71.0644628 L8.44077813,64.2778066 C8.44077813,64.2778066 8.44077813,64.2778066 8.44077813,64.2761146 L10.4771011,58.969968 L12.9794482,52.4523416 L30.9230668,52.4523416 L33.4254139,58.969968 L35.4617368,64.2761146 C35.4617368,64.2761146 35.4617368,64.2761146 35.4617368,64.2778066 L38.0653935,71.0644628 L32.0813732,71.0644628 Z M37.1890655,51.1427251 L39.0464081,59.1763934 C39.0666701,59.2609939 39.0919975,59.3439025 39.1240788,59.423427 C39.330075,59.9394904 39.3030591,60.49447 39.0531621,60.9868452 C38.8522314,61.3776997 38.5398601,61.6754937 38.1464412,61.8497708 L37.1367222,59.2186937 L36.5761424,57.7567961 L33.7698665,50.4439245 L33.7698665,43.9922865 L37.1468531,43.9922865 L37.1468531,50.7603306 C37.1468531,50.8889234 37.1620496,51.0158242 37.1890655,51.1427251 Z M36.2215588,33.3749174 L38.2848976,40.6082645 L33.7698665,40.6082645 L33.7698665,32.1482094 L34.5989167,32.1482094 C35.3502962,32.1482094 36.0172511,32.6524287 36.2215588,33.3749174 Z M30.3928798,49.0683196 L13.5079466,49.0683196 L13.5079466,32.1482094 L15.1964399,32.1482094 L15.1964399,40.6082645 C15.1964399,41.5439466 15.9511964,42.3002755 16.8849332,42.3002755 L27.0158932,42.3002755 C27.94963,42.3002755 28.7043865,41.5439466 28.7043865,40.6082645 L28.7043865,32.1482094 L30.3928798,32.1482094 L30.3928798,49.0683196 Z M26.3810197,26.2024826 C25.7444577,26.4630523 25.3273999,27.0823284 25.3273999,27.7709769 L25.3273999,29.6643372 C23.3484857,31.2311394 20.5523408,31.2311394 18.5734266,29.6643372 L18.5734266,27.7709769 C18.5734266,27.0823284 18.1563687,26.4630523 17.5198067,26.2024826 C16.4070896,25.7507157 15.3939936,25.1449758 14.4974037,24.417411 L14.4990922,24.415719 C13.9672168,23.9825642 13.4826192,23.500341 13.0385455,22.9876617 C12.9760712,22.9165972 12.9237279,22.8387647 12.8646306,22.7660083 C12.4965391,22.3193174 12.1605289,21.8489383 11.8616656,21.3548711 C11.7975029,21.2499664 11.7384056,21.1416777 11.6776198,21.033389 C11.4007069,20.5393218 11.1592524,20.0266424 10.9549447,19.497043 C10.9161093,19.3972143 10.873897,19.2990777 10.8384387,19.197557 C10.620623,18.585049 10.4467082,17.9556209 10.3335791,17.3092727 C10.3099402,17.1789879 10.2778589,17.050395 10.2592854,16.9184182 L16.6806256,16.9184182 C19.4430006,16.9184182 22.0399034,15.8406072 23.9918017,13.8829504 L26.3708887,11.5005989 C27.8601399,14.2619609 30.5448442,16.1925455 33.6584259,16.742449 C33.634787,16.9336463 33.6043942,17.1214595 33.5706243,17.3092727 C33.4558067,17.9556209 33.2818919,18.585049 33.0657648,19.197557 C33.0303064,19.2990777 32.9864056,19.3989063 32.9475702,19.498735 C32.7432626,20.0283344 32.501808,20.5410138 32.2248951,21.033389 C32.1641093,21.1416777 32.1050121,21.2499664 32.0408493,21.3548711 C31.7436745,21.8489383 31.4059758,22.3176253 31.0395728,22.7643163 C30.978787,22.8370727 30.9264437,22.9165972 30.8639695,22.9876617 C30.4198957,23.500341 29.9352982,23.9808722 29.4034228,24.414027 L29.4051113,24.415719 C28.5068328,25.1449758 27.4937368,25.7507157 26.3810197,26.2024826 Z M21.9504132,3.38402204 C27.7959771,3.38402204 32.6520839,7.66480992 33.5925747,13.2585983 C31.2253071,12.598714 29.3223751,10.7341179 28.702698,8.2451697 L28.6520432,8.04382039 C28.5034558,7.45330854 28.0492511,6.98969752 27.4633439,6.82895647 C26.8825022,6.66313939 26.2526942,6.83064848 25.8221284,7.26380331 L21.6025836,11.4921388 C20.3058207,12.7916033 18.5109523,13.5360882 16.6789371,13.5360882 L10.2660394,13.5360882 C11.0900242,7.80693884 16.0086052,3.38402204 21.9504132,3.38402204 Z" id="Shape"></path>
                <path d="M59.864876,28.7641873 C57.5807088,28.7641873 55.5451935,30.2785372 54.917562,32.4460033 L52.1978255,41.8366645 C52.0503492,42.3476518 52.1549545,42.8958634 52.4773445,43.3205581 C52.8031641,43.7435609 53.3107568,43.9922865 53.8475018,43.9922865 L53.8475018,50.6401978 L53.1186947,55.6671625 C52.8048789,57.8380127 53.4599479,60.034243 54.917562,61.6924138 C55.90531,62.8159091 57.2051588,63.5806981 58.6267614,63.9783207 L57.2977602,72.5009802 C57.2205924,72.9899713 57.364639,73.4857306 57.6904586,73.861357 C58.0162783,74.2335994 58.491289,74.4484848 58.9920223,74.4484848 L60.7068625,74.4484848 L60.7068625,93.0606061 C60.7068625,93.2450353 60.7583077,93.4142364 60.8131826,93.5800534 C59.693392,94.7847653 58.9920223,96.3752556 58.9920223,98.1366391 L58.9920223,99.8286501 C58.9920223,100.764332 59.7585559,101.520661 60.7068625,101.520661 L70.9959036,101.520661 C71.9442102,101.520661 72.7107438,100.764332 72.7107438,99.8286501 C72.7107438,100.764332 73.4772774,101.520661 74.425584,101.520661 L84.7146251,101.520661 C85.6629317,101.520661 86.4294653,100.764332 86.4294653,99.8286501 L86.4294653,98.1366391 C86.4294653,96.3769477 85.7280957,94.7847653 84.608305,93.5800534 C84.6631799,93.4142364 84.7146251,93.2450353 84.7146251,93.0606061 L84.7146251,74.4484848 L86.4294653,74.4484848 C86.9301986,74.4484848 87.4052094,74.2335994 87.731029,73.857973 C88.0568486,73.4823466 88.2008952,72.9865873 88.1237274,72.4975961 L86.7947262,63.9749366 C88.2146139,63.577314 89.5144628,62.8125251 90.5039256,61.6890298 C91.9615397,60.032551 92.6148938,57.8363207 92.3027929,55.6620865 L91.5739858,50.6401978 L91.5739858,43.9922865 C92.1107308,43.9922865 92.6183235,43.7435609 92.9441432,43.3205581 C93.2665331,42.8958634 93.3711384,42.3476518 93.2236621,41.8366645 L90.5039256,32.4460033 C89.8762941,30.2785372 87.8407788,28.7641873 85.5566116,28.7641873 L82.9997849,28.7641873 L79.7724557,28.7641873 C84.8998278,26.1686424 88.1443055,20.9944727 88.1443055,15.2280992 C88.1443055,6.83064848 81.2214956,0 72.7107438,0 C64.199992,0 57.2771821,6.83064848 57.2771821,15.2280992 C57.2771821,20.9944727 60.5216598,26.1686424 65.6490319,28.7641873 L62.4217027,28.7641873 L59.864876,28.7641873 Z M72.7107438,34.5407129 L76.6428723,38.4204942 C76.9738365,38.7470523 77.4128356,38.9162534 77.8552644,38.9162534 C78.1845137,38.9162534 78.5171927,38.8231928 78.8070007,38.6319956 L81.2849447,37.000897 L81.2849447,49.0683196 L74.425584,49.0683196 L74.425584,37.2242424 L70.9959036,37.2242424 L70.9959036,49.0683196 L64.1365429,49.0683196 L64.1365429,37.000897 L66.6144869,38.6319956 C67.2935637,39.0820705 68.1989993,38.9923939 68.7786153,38.4204942 L72.7107438,34.5407129 Z M82.9997849,71.0644628 L76.1404242,71.0644628 L74.425584,71.0644628 L74.425584,60.9123967 L70.9959036,60.9123967 L70.9959036,71.0644628 L69.2810634,71.0644628 L62.4217027,71.0644628 L60.991526,71.0644628 L63.8930356,52.4523416 L81.528452,52.4523416 L84.4299616,71.0644628 L82.9997849,71.0644628 Z M58.2169146,33.3749174 C58.4244102,32.6524287 59.1017721,32.1482094 59.864876,32.1482094 L60.7068625,32.1482094 L60.7068625,40.6082645 L56.1213798,40.6082645 L58.2169146,33.3749174 Z M57.5086856,59.4724953 C56.7044255,58.5554253 56.3408794,57.3422534 56.5157931,56.1426176 L57.2617486,50.9989041 C57.2720376,50.9210716 57.2771821,50.8398551 57.2771821,50.7603306 L57.2771821,43.9922865 L60.7068625,43.9922865 L60.7068625,50.6317377 L59.1515025,60.6027587 C58.5290155,60.3574171 57.9596885,59.9851747 57.5086856,59.4724953 Z M67.5662232,74.4484848 L67.5662232,91.368595 L64.1365429,91.368595 L64.1365429,74.4484848 L67.5662232,74.4484848 Z M62.4217027,98.1366391 C62.4217027,96.270351 63.9599143,94.7526171 65.8513831,94.7526171 C67.7428518,94.7526171 69.2810634,96.270351 69.2810634,98.1366391 L62.4217027,98.1366391 Z M72.7107438,98.1366391 C72.7107438,96.3769477 72.0093742,94.7847653 70.8895835,93.5800534 C70.9444584,93.4142364 70.9959036,93.2450353 70.9959036,93.0606061 L70.9959036,74.4484848 L74.425584,74.4484848 L74.425584,93.0606061 C74.425584,93.2450353 74.4770292,93.4142364 74.5319041,93.5800534 C73.4121134,94.7847653 72.7107438,96.3752556 72.7107438,98.1366391 Z M76.1404242,98.1366391 C76.1404242,96.270351 77.6786358,94.7526171 79.5701045,94.7526171 C81.4615733,94.7526171 82.9997849,96.270351 82.9997849,98.1366391 L76.1404242,98.1366391 Z M81.2849447,91.368595 L77.8552644,91.368595 L77.8552644,74.4484848 L81.2849447,74.4484848 L81.2849447,91.368595 Z M88.1614539,51.0005961 L88.9074094,56.1426176 C89.0823231,57.3439455 88.7187769,58.5571174 87.9145169,59.4741873 C87.4635139,59.9851747 86.894187,60.3591091 86.2699851,60.6027587 L84.7146251,50.6317377 L84.7146251,43.9922865 L88.1443055,43.9922865 L88.1443055,50.7603306 C88.1443055,50.8398551 88.14945,50.9210716 88.1614539,51.0005961 Z M87.2045731,33.3749174 L89.3001078,40.6082645 L84.7146251,40.6082645 L84.7146251,32.1482094 L85.5566116,32.1482094 C86.3197155,32.1482094 86.9970774,32.6524287 87.2045731,33.3749174 Z M81.2849447,32.1482094 L81.2849447,32.9349945 L78.0730491,35.0466242 L75.884913,32.8876182 L78.1313536,32.1482094 L81.2849447,32.1482094 Z M72.7107438,3.38402204 C78.6475205,3.38402204 83.5794009,7.66480992 84.5345669,13.2585983 C82.1303609,12.598714 80.1977361,10.7341179 79.5683897,8.2451697 L79.5169445,8.04382039 C79.3660386,7.45330854 78.9047466,6.98969752 78.309697,6.82895647 C77.719792,6.66313939 77.0801566,6.83064848 76.6428723,7.26380331 L72.3574867,11.4921388 C71.0404895,12.7916033 69.2176143,13.5360882 67.3570127,13.5360882 L60.8440497,13.5360882 C61.6808917,7.80693884 66.6762212,3.38402204 72.7107438,3.38402204 Z M60.8354755,16.9201102 L67.3570127,16.9201102 C70.1624913,16.9201102 72.7999155,15.8422992 74.7822707,13.8846424 L77.1984806,11.5022909 C78.7109696,14.2636529 81.4375655,16.1942375 84.5997308,16.744141 C84.0544116,20.9538645 81.2849447,24.573076 77.2104844,26.2024826 C76.5639897,26.4630523 76.1404242,27.0823284 76.1404242,27.7709769 L76.1404242,29.2379504 L72.7107438,30.3665218 L69.2810634,29.2379504 L69.2810634,27.7709769 C69.2810634,27.0823284 68.8574979,26.4630523 68.2110032,26.2024826 C64.1914178,24.5967642 61.4339547,21.0553851 60.8354755,16.9201102 Z M67.290134,32.1482094 L69.5365746,32.8876182 L67.3484385,35.0466242 L64.1365429,32.9349945 L64.1365429,32.1482094 L67.290134,32.1482094 Z" id="Shape"></path>
            </g>
        </g>
    </g>
</svg>