<?xml version="1.0" encoding="UTF-8"?>
<svg width="22px" height="20px" viewBox="0 0 22 20" version="1.1" xmlns="http://www.w3.org/2000/svg" xmlns:xlink="http://www.w3.org/1999/xlink">
    <!-- Generator: Sketch 50.2 (55047) - http://www.bohemiancoding.com/sketch -->
    <title>Fill 1</title>
    <desc>Created with Sketch.</desc>
    <defs></defs>
    <g id="Page-1" stroke="none" stroke-width="1" fill="none" fill-rule="evenodd">
        <g id="Transporte" transform="translate(-700.000000, -1330.000000)" fill="#FFFFFF">
            <g id="rastrear-paquete-copy" transform="translate(687.000000, 1158.000000)">
                <path d="M32.0690185,187.073476 C31.1691209,188.118613 29.9092642,188.710857 29.2793359,188.397316 C28.6494075,188.083775 28.874382,186.968962 29.7742796,185.888987 C30.6741772,184.84385 31.9340339,184.251605 32.5639622,184.565147 C33.1938905,184.878688 32.9689161,185.993501 32.0690185,187.073476 Z M16.0376002,183.186671 L16.0376002,177.311119 C16.0376002,176.522271 16.6885145,175.896634 17.4479145,175.896634 L29.8424081,175.896634 C30.6289295,175.896634 31.2527224,176.522271 31.2527224,177.311119 L31.2527224,183.186671 L16.0376002,183.186671 Z M21.3534005,191.620537 L25.9369221,191.620537 L25.9369221,187.620537 L21.3534005,187.620537 L21.3534005,191.620537 Z M19.5999187,188.397316 C18.9699903,188.710857 17.7101336,188.118613 16.810236,187.073476 C15.9103384,185.993501 15.685364,184.878688 16.3152923,184.565147 C16.9452207,184.251605 18.2050773,184.84385 19.104975,185.888987 C20.0048726,186.968962 20.229847,188.083775 19.5999187,188.397316 Z M19.7261146,173.50289 L27.5913294,173.50289 C28.0523937,173.50289 28.4320937,174.406116 28.4320937,175.50289 C28.4320937,176.599664 28.0523937,177.50289 27.5913294,177.50289 L19.7261146,177.50289 C19.2379289,177.50289 18.8582289,176.599664 18.8582289,175.50289 C18.8582289,174.406116 19.2379289,173.50289 19.7261146,173.50289 Z M32.0392439,174.182931 C31.9307582,171.272356 15.3595644,171.272356 15.2510787,174.182931 C14.8985001,174.237334 13,174.699762 13,175.3254 L13,178.535192 C13,178.752805 13.18985,178.943217 13.4068215,178.943217 L14.0848572,178.943217 C14.3289501,178.943217 14.4916787,178.752805 14.4916787,178.535192 L14.4916787,175.597416 L15.2510787,175.597416 L15.2510787,187.919755 C15.2510787,188.654199 15.6579001,189.279837 16.2274502,189.633458 L16.2274502,191.67358 C16.2274502,191.83679 16.3630573,192 16.5529073,192 L18.2886789,192 C18.4514074,192 18.5870146,191.83679 18.5870146,191.67358 L18.5870146,189.959878 L28.703308,189.959878 L28.703308,191.67358 C28.703308,191.83679 28.8389151,192 29.0287652,192 L30.7645367,192 C30.9272653,192 31.0899938,191.83679 31.0899938,191.67358 L31.0899938,189.633458 C31.6595439,189.279837 32.0392439,188.654199 32.0392439,187.919755 L32.0392439,175.597416 L32.7986439,175.597416 L32.7986439,178.535192 C32.7986439,178.752805 32.9884939,178.943217 33.2054654,178.943217 L33.8835011,178.943217 C34.1004726,178.943217 34.2903226,178.752805 34.2903226,178.535192 L34.2903226,175.3254 C34.2903226,174.699762 32.4189439,174.237334 32.0392439,174.182931 Z" id="Fill-1"></path>
            </g>
        </g>
    </g>
</svg>