<?xml version="1.0" encoding="UTF-8"?>
<svg width="97px" height="24px" viewBox="0 0 97 24" version="1.1" xmlns="http://www.w3.org/2000/svg" xmlns:xlink="http://www.w3.org/1999/xlink">
    <!-- Generator: Sketch 50.2 (55047) - http://www.bohemiancoding.com/sketch -->
    <title>paypal</title>
    <desc>Created with Sketch.</desc>
    <defs></defs>
    <g id="Page-1" stroke="none" stroke-width="1" fill="none" fill-rule="evenodd">
        <g id="Index-Transp-Copy-2" transform="translate(-414.000000, -960.000000)">
            <g id="compra-segura-copy-2" transform="translate(195.000000, 960.000000)">
                <g id="paypal" transform="translate(219.000000, 0.000000)">
                    <path d="M93.2830179,6.68879516 L91.1277077,20.137359 C91.0857255,20.3976709 91.2908964,20.6334126 91.5597177,20.6334126 L93.7278934,20.6334126 C94.0867732,20.6334126 94.3928368,20.3770851 94.4483616,20.0291171 L96.573878,6.82227142 C96.6158602,6.5619595 96.4106893,6.32621784 96.1411908,6.32621784 L93.7157051,6.32621784 C93.4997001,6.32621784 93.3161974,6.47961594 93.2830179,6.68879516" id="l" fill="#2890C3"></path>
                    <path d="M86.8143787,15.8906888 C86.5712885,17.2998263 85.4309987,18.2461132 83.9758426,18.2461132 C83.2465718,18.2461132 82.6622071,18.015684 82.2870762,17.58006 C81.9146537,17.1484204 81.7751646,16.5328358 81.8929855,15.8481889 C82.1191475,14.4510045 83.278397,13.4748348 84.7112077,13.4748348 C85.4255816,13.4748348 86.0052063,13.7072561 86.3877858,14.1468645 C86.7730737,14.5897932 86.9247512,15.2086981 86.8143787,15.8906888 M90.3192124,11.0901916 L87.8043453,11.0901916 C87.5890174,11.0901916 87.4055147,11.2435897 87.3716581,11.4527689 L87.2612857,12.1420643 L87.0852314,11.8923773 C86.5408175,11.1174181 85.3267204,10.8577703 84.1146546,10.8577703 C81.3363832,10.8577703 78.9630366,12.9230001 78.5012328,15.8189702 C78.260851,17.263967 78.6021254,18.6445498 79.4377059,19.6081024 C80.2048962,20.4932957 81.2998181,20.8618496 82.6046509,20.8618496 C84.8446026,20.8618496 86.0864622,19.451384 86.0864622,19.451384 L85.9740583,20.136695 C85.9320761,20.3970069 86.137247,20.6327485 86.4067454,20.6327485 L88.6710739,20.6327485 C89.0306308,20.6327485 89.3360172,20.3770851 89.3922191,20.0291171 L90.7518996,11.5862452 C90.7938818,11.3259333 90.5880337,11.0901916 90.3192124,11.0901916" id="a" fill="#2890C3"></path>
                    <path d="M75.2279781,11.1492931 C74.9408743,12.9980389 73.5012923,12.9980389 72.1084324,12.9980389 L71.3161883,12.9980389 L71.8721134,9.54624975 C71.9052929,9.33773458 72.0887956,9.18433649 72.3041234,9.18433649 L72.6677432,9.18433649 C73.6157275,9.18433649 74.5108957,9.18433649 74.9726995,9.71359312 C75.2489692,10.0303502 75.3322564,10.5005054 75.2279781,11.1492931 M74.6219453,6.32555378 L69.3701118,6.32555378 C69.0105548,6.32555378 68.7051684,6.58188133 68.6489665,6.92984931 L66.5254815,20.136695 C66.4834993,20.3970069 66.6893473,20.6327485 66.9574915,20.6327485 L69.6524757,20.6327485 C69.9036915,20.6327485 70.1176652,20.4534521 70.1569388,20.2104057 L70.759586,16.4657656 C70.8151108,16.1177976 71.1211743,15.8614701 71.4800541,15.8614701 L73.1417354,15.8614701 C76.6012012,15.8614701 78.5980626,14.2199112 79.119454,10.9653482 C79.3544187,9.54292944 79.1289339,8.42465068 78.4497708,7.64172273 C77.7028945,6.78109964 76.379102,6.32555378 74.6219453,6.32555378" id="P" fill="#2890C3"></path>
                    <path d="M66.2546288,11.0901916 L63.7268961,11.0901916 C63.4851601,11.0901916 63.2589981,11.2077304 63.1235718,11.4042925 L59.6363435,16.4405313 L58.1588421,11.6008546 C58.0660751,11.2980427 57.7816798,11.0901916 57.4593651,11.0901916 L54.9749688,11.0901916 C54.6749995,11.0901916 54.4637344,11.3797222 54.5605642,11.6579638 L57.3435755,19.6705241 L54.7257844,23.292977 C54.5206135,23.5771951 54.7278158,23.9703193 55.0833099,23.9703193 L57.608334,23.9703193 C57.8473615,23.9703193 58.0714921,23.8554367 58.2082727,23.662859 L66.6141857,11.7642136 C66.8152938,11.4793314 66.6080915,11.0901916 66.2546288,11.0901916" id="y" fill="#28346A"></path>
                    <path d="M49.3554528,15.8906888 C49.1123625,17.2998263 47.9720728,18.2461132 46.5169167,18.2461132 C45.7876459,18.2461132 45.2032812,18.015684 44.8281502,17.58006 C44.4564049,17.1484204 44.3162387,16.5328358 44.4340596,15.8481889 C44.6602216,14.4510045 45.8194711,13.4748348 47.2522818,13.4748348 C47.9666557,13.4748348 48.5462804,13.7072561 48.9288599,14.1468645 C49.3141478,14.5897932 49.4658253,15.2086981 49.3554528,15.8906888 M52.8602865,11.0901916 L50.3454194,11.0901916 C50.1300915,11.0901916 49.9465888,11.2435897 49.9127322,11.4527689 L49.8023598,12.1420643 L49.6269826,11.8923773 C49.0818916,11.1174181 47.8677945,10.8577703 46.6557287,10.8577703 C43.8774573,10.8577703 41.5041107,12.9230001 41.0423069,15.8189702 C40.8019251,17.263967 41.1431995,18.6445498 41.97878,19.6081024 C42.7459703,20.4932957 43.8408922,20.8618496 45.145725,20.8618496 C47.3856767,20.8618496 48.6275362,19.451384 48.6275362,19.451384 L48.5151324,20.136695 C48.4731502,20.3970069 48.6783211,20.6327485 48.9478195,20.6327485 L51.212148,20.6327485 C51.5717049,20.6327485 51.8770913,20.3770851 51.9332932,20.0291171 L53.2929737,11.5862452 C53.3349559,11.3259333 53.1291078,11.0901916 52.8602865,11.0901916" id="a" fill="#28346A"></path>
                    <path d="M37.7690522,11.1492931 C37.4819484,12.9980389 36.0423664,12.9980389 34.6495065,12.9980389 L33.8572624,12.9980389 L34.4131875,9.54624975 C34.446367,9.33773458 34.6298696,9.18433649 34.8451975,9.18433649 L35.2088173,9.18433649 C36.1568016,9.18433649 37.0519698,9.18433649 37.5137736,9.71359312 C37.7900433,10.0303502 37.8733305,10.5005054 37.7690522,11.1492931 M37.1630194,6.32555378 L31.9111858,6.32555378 C31.5516289,6.32555378 31.2462425,6.58188133 31.1900406,6.92984931 L29.0665556,20.136695 C29.0245734,20.3970069 29.2297443,20.6327485 29.4985656,20.6327485 L32.0066614,20.6327485 C32.3655412,20.6327485 32.6709276,20.376421 32.7271296,20.0291171 L33.3006601,16.4657656 C33.3561849,16.1177976 33.6622484,15.8614701 34.0211282,15.8614701 L35.6828094,15.8614701 C39.1422753,15.8614701 41.1391367,14.2199112 41.6605281,10.9653482 C41.8954928,9.54292944 41.670008,8.42465068 40.9908449,7.64172273 C40.2439686,6.78109964 38.9201761,6.32555378 37.1630194,6.32555378" id="P" fill="#28346A"></path>
                    <g id="icon">
                        <path d="M17.7487583,1.81767845 C16.6136522,0.545436894 14.5617818,0 11.9369337,0 L4.3187036,0 C3.78166415,0 3.32531624,0.384072923 3.2412343,0.904838466 L0.0691755345,20.687928 C0.00611408406,21.078002 0.313284375,21.4314025 0.715385882,21.4314025 L5.41854954,21.4314025 L6.5997651,14.0640036 L6.56314877,14.2947141 C6.64723071,13.7739486 7.10018822,13.3898756 7.63654959,13.3898756 L9.87150164,13.3898756 C14.2620704,13.3898756 17.6999365,11.6362093 18.7041732,6.56324615 C18.7340087,6.41321766 18.7597758,6.26718994 18.7821524,6.12449618 C18.6553514,6.05848364 18.6553514,6.05848364 18.7821524,6.12449618 C19.0811857,4.2494735 18.7801182,2.97323119 17.7487583,1.81767845" id="P" fill="#28346A"></path>
                        <path d="M18.7626424,6.06324967 L18.7626424,6.06324967 C18.7396199,6.20602279 18.7145661,6.3507881 18.6847723,6.50020183 C17.6819402,11.551714 14.2488825,13.2988586 9.86445467,13.2988586 L7.63195144,13.2988586 C7.09634027,13.2988586 6.64401629,13.6813577 6.56072909,14.1999894 L5.09338468,23.3228598 C5.03853702,23.662859 5.30668117,23.9709833 5.65743539,23.9709833 L9.61662447,23.9709833 C10.0851996,23.9709833 10.4840302,23.6362966 10.5571604,23.1827429 L10.5957569,22.9848527 L11.3419561,18.3470505 L11.3900324,18.0907229 C11.4631626,17.6371693 11.8619932,17.3024825 12.3305683,17.3024825 L12.9230586,17.3024825 C16.7583326,17.3024825 19.7614117,15.7744781 20.6389744,11.355152 C21.0053026,9.50839827 20.8157057,7.96644857 19.8467303,6.88336504 C19.5528551,6.55531889 19.1878811,6.28438199 18.7626424,6.06324967" id="shadow" fill="#2890C3"></path>
                        <path d="M17.2397732,5.53399304 C17.0772616,5.4987978 16.9093329,5.46758693 16.7373415,5.44036043 C16.1346943,5.34473565 15.4765222,5.2995795 14.7695967,5.2995795 L8.80609782,5.2995795 C8.65916024,5.2995795 8.51967111,5.33211849 8.39507888,5.39121992 C8.11948627,5.52071182 7.91566963,5.77571125 7.86556188,6.08848399 L6.59797133,13.9702243 L6.56140622,14.1999894 C6.64469342,13.6813577 7.0970174,13.2988586 7.63262858,13.2988586 L9.86513181,13.2988586 C14.2495596,13.2988586 17.6826173,11.5523781 18.6854494,6.50020183 C18.7152432,6.3507881 18.7402971,6.20602279 18.7633195,6.06324967 C18.5093951,5.93176559 18.2344797,5.81821116 17.9385731,5.72192231 C17.8647658,5.69801611 17.7896041,5.67477397 17.7130883,5.65285996 C17.5600565,5.60903193 17.4022848,5.56918827 17.2397732,5.53399304 Z" id="fill" fill="#1F274F"></path>
                    </g>
                </g>
            </g>
        </g>
    </g>
</svg>