<?xml version="1.0" encoding="UTF-8"?>
<svg width="23px" height="18px" viewBox="0 0 23 18" version="1.1" xmlns="http://www.w3.org/2000/svg" xmlns:xlink="http://www.w3.org/1999/xlink">
    <!-- Generator: Sketch 50.2 (55047) - http://www.bohemiancoding.com/sketch -->
    <title>Fill 1</title>
    <desc>Created with Sketch.</desc>
    <defs></defs>
    <g id="Symbols" stroke="none" stroke-width="1" fill="none" fill-rule="evenodd">
        <g id="footer" transform="translate(-57.000000, -276.000000)" fill="#FFFFFF">
            <g id="dudas" transform="translate(57.000000, 241.000000)">
                <g id="politiccas-viaje" transform="translate(0.000000, 35.000000)">
                    <path d="M19.9524545,8.41363636 L18,7.89054545 L18,5.63181818 L20.5172727,6.30627273 L19.9524545,8.41363636 Z M20.5909091,2.45454545 L17.4545455,2.45454545 L17.4545455,18 L20.5909091,18 C21.4178182,18 22.0909091,17.3269091 22.0909091,16.5 L22.0909091,3.95454545 C22.0909091,3.12763636 21.4178182,2.45454545 20.5909091,2.45454545 Z M3.40909091,8.727 C3.65236364,8.727 3.88336364,8.78018182 4.09090909,8.87563636 L4.09090909,11.8510909 C3.88336364,11.9465455 3.65236364,11.9997273 3.40909091,11.9997273 C2.50527273,11.9997273 1.77272727,11.2669091 1.77272727,10.3633636 C1.77272727,9.45981818 2.50527273,8.727 3.40909091,8.727 Z M0,3.95454545 L0,16.5 C0,17.3269091 0.672818182,18 1.5,18 L4.63636364,18 L4.63636364,2.45454545 L1.5,2.45454545 C0.672818182,2.45454545 0,3.12763636 0,3.95454545 Z M14.2955455,8.71036364 C14.5854545,8.78781818 14.7589091,9.08836364 14.6814545,9.37827273 L13.8340909,12.5394545 C13.7569091,12.8293636 13.4560909,13.0028182 13.1664545,12.9250909 L10.7956364,12.2899091 C10.5057273,12.2121818 10.3322727,11.9116364 10.41,11.622 L11.2568182,8.46054545 C11.3342727,8.17063636 11.6350909,7.99718182 11.9244545,8.07490909 L14.2955455,8.71036364 Z M9.34254545,16.0270909 C8.37,16.2880909 7.48881818,16.155 7.37454545,15.7292727 C7.26027273,15.3035455 7.956,14.7469091 8.92881818,14.4859091 C9.90163636,14.2246364 10.7825455,14.3574545 10.8968182,14.7834545 C11.0110909,15.2091818 10.3150909,15.7658182 9.34254545,16.0270909 Z M9.26890909,4.79972727 L10.0120909,7.42363636 L7.91290909,8.01818182 L7.16945455,5.39427273 L9.26890909,4.79972727 Z M9,0.955090909 C9,0.880909091 9.06272727,0.818181818 9.13690909,0.818181818 L12.9537273,0.818181818 C13.0276364,0.818181818 13.0909091,0.880636364 13.0909091,0.955090909 L13.0909091,2.45454545 L9,2.45454545 L9,0.955090909 Z M13.9090909,0.955090909 C13.9090909,0.428454545 13.4806364,0 12.9537273,0 L9.13690909,0 C8.61027273,0 8.18181818,0.428454545 8.18181818,0.955090909 L8.18181818,2.45454545 L5.72727273,2.45454545 L5.72727273,18 L16.3636364,18 L16.3636364,2.45454545 L13.9090909,2.45454545 L13.9090909,0.955090909 Z" id="Fill-1"></path>
                </g>
            </g>
        </g>
    </g>
</svg>