<?xml version="1.0" encoding="UTF-8"?>
<svg width="48px" height="48px" viewBox="0 0 48 48" version="1.1" xmlns="http://www.w3.org/2000/svg" xmlns:xlink="http://www.w3.org/1999/xlink">
    <!-- Generator: Sketch 50.2 (55047) - http://www.bohemiancoding.com/sketch -->
    <title>noun_not allowed_621455 copy 2</title>
    <desc>Created with Sketch.</desc>
    <defs></defs>
    <g id="Page-1" stroke="none" stroke-width="1" fill="none" fill-rule="evenodd">
        <g id="Restricciones-de-enviÌo" transform="translate(-132.000000, -616.000000)" fill="#D01D56" fill-rule="nonzero">
            <g id="noun_not-allowed_621455-copy-2" transform="translate(132.000000, 616.000000)">
                <path d="M24,0 C10.745166,4.70973974e-15 1.8838959e-15,10.745166 0,24 C-1.41292192e-15,37.254834 10.745166,48 24,48 C37.254834,48 48,37.254834 48,24 C47.9853879,10.7512233 37.2487767,0.0146120975 24,0 Z M5.30269554,24 C5.29666257,16.9172238 9.29549085,10.4397902 15.6300714,7.27137677 C21.964652,4.10296332 29.5460906,4.78821027 35.2098984,9.04109589 L9.04109589,35.2045957 C6.61078352,31.9750553 5.29846507,28.0418228 5.30269554,24 Z M24,42.6973045 C19.9563633,42.7026877 16.0210911,41.3903098 12.7901016,38.9589041 L38.9589041,12.7954043 C43.208631,18.459192 43.8920549,26.0384658 40.7240476,32.3711113 C37.5560404,38.7037568 31.080865,42.7018267 24,42.6973045 Z" id="Shape"></path>
            </g>
        </g>
    </g>
</svg>