<?xml version="1.0" encoding="UTF-8"?>
<svg width="71px" height="88px" viewBox="0 0 71 88" version="1.1" xmlns="http://www.w3.org/2000/svg" xmlns:xlink="http://www.w3.org/1999/xlink">
    <!-- Generator: Sketch 50.2 (55047) - http://www.bohemiancoding.com/sketch -->
    <title>Fill 1</title>
    <desc>Created with Sketch.</desc>
    <defs></defs>
    <g id="Page-1" stroke="none" stroke-width="1" fill="none" fill-rule="evenodd">
        <g id="Transporte" transform="translate(-665.000000, -1824.000000)" fill="#D01D56">
            <path d="M680,1843.44118 L677.297297,1840 L670,1845.55882 L672.77027,1849 C674.864865,1846.88235 677.297297,1845.02941 680,1843.44118 Z M698,1877.08368 C698,1878.71967 699.317073,1880 701,1880 C702.682927,1880 704,1878.71967 704,1877.08368 C704,1875.4477 701,1863 701,1863 C701,1863 698,1875.51883 698,1877.08368 Z M714.795775,1865 C715.288732,1865 715.711268,1864.79021 716.06338,1864.44056 L717.471831,1863.04196 C718.176056,1862.34266 718.176056,1861.22378 717.471831,1860.52448 C716.767606,1859.82517 715.640845,1859.82517 714.93662,1860.52448 L713.528169,1861.92308 C712.823944,1862.62238 712.823944,1863.74126 713.528169,1864.44056 C713.880282,1864.86014 714.373239,1865 714.795775,1865 Z M684.93662,1889.52448 L683.528169,1890.92308 C682.823944,1891.62238 682.823944,1892.74126 683.528169,1893.44056 C683.880282,1893.79021 684.373239,1894 684.795775,1894 C685.21831,1894 685.711268,1893.79021 686.06338,1893.44056 L687.471831,1892.04196 C688.176056,1891.34266 688.176056,1890.22378 687.471831,1889.52448 C686.838028,1888.82517 685.640845,1888.82517 684.93662,1889.52448 Z M716.06338,1889.52448 C715.359155,1888.82517 714.232394,1888.82517 713.528169,1889.52448 C712.823944,1890.22378 712.823944,1891.34266 713.528169,1892.04196 L714.93662,1893.44056 C715.288732,1893.79021 715.78169,1894 716.204225,1894 C716.626761,1894 717.119718,1893.79021 717.471831,1893.44056 C718.176056,1892.74126 718.176056,1891.62238 717.471831,1890.92308 L716.06338,1889.52448 Z M686.06338,1860.52448 C685.359155,1859.82517 684.232394,1859.82517 683.528169,1860.52448 C682.823944,1861.22378 682.823944,1862.34266 683.528169,1863.04196 L684.93662,1864.44056 C685.288732,1864.79021 685.78169,1865 686.204225,1865 C686.697183,1865 687.119718,1864.79021 687.471831,1864.44056 C688.176056,1863.74126 688.176056,1862.62238 687.471831,1861.92308 L686.06338,1860.52448 Z M722.05,1875 L719.95,1875 C718.9,1875 718,1875.84615 718,1877 C718,1878.07692 718.825,1879 719.95,1879 L722.05,1879 C723.1,1879 724,1878.15385 724,1877 C724,1875.84615 723.1,1875 722.05,1875 Z M681.05,1875 L678.95,1875 C677.9,1875 677,1875.84615 677,1877 C677,1878.15385 677.825,1879 678.95,1879 L681.05,1879 C682.1,1879 683,1878.15385 683,1877 C683,1875.84615 682.175,1875 681.05,1875 Z M701,1895 C699.923077,1895 699,1895.825 699,1896.95 L699,1899.05 C699,1900.1 699.846154,1901 701,1901 C702.076923,1901 703,1900.175 703,1899.05 L703,1896.95 C703,1895.9 702.076923,1895 701,1895 Z M701,1859 C702.076923,1859 703,1858.175 703,1857.05 L703,1854.95 C703,1853.9 702.153846,1853 701,1853 C699.923077,1853 699,1853.825 699,1854.95 L699,1857.05 C699,1858.175 699.923077,1859 701,1859 Z M701,1903 C686.626016,1903 675,1891.37398 675,1877 C675,1862.62602 686.626016,1851 701,1851 C715.373984,1851 727,1862.62602 727,1877 C727,1891.37398 715.373984,1903 701,1903 Z M705.712302,1842.3977 L705.712302,1835 C704.162698,1835.27798 702.472222,1835.41697 700.5,1835.41697 C698.527778,1835.41697 696.837302,1835.27798 695.287698,1835 L695.287698,1842.3977 C678.170923,1844.88144 665,1859.40858 665,1877.04422 C665,1896.43321 680.918651,1912 700.5,1912 C720.081349,1912 736,1896.29422 736,1876.97473 C736,1859.40233 722.829077,1844.88144 705.712302,1842.3977 Z M700.5,1831 C704.642857,1831 708,1830.20755 708,1829.28302 L708,1825.71698 C708,1824.79245 704.642857,1824 700.5,1824 C696.357143,1824 693,1824.79245 693,1825.71698 L693,1829.28302 C693,1830.27358 696.357143,1831 700.5,1831 Z" id="Fill-1"></path>
        </g>
    </g>
</svg>