<?xml version="1.0" encoding="UTF-8"?>
<svg width="24px" height="24px" viewBox="0 0 24 24" version="1.1" xmlns="http://www.w3.org/2000/svg" xmlns:xlink="http://www.w3.org/1999/xlink">
    <!-- Generator: Sketch 50.2 (55047) - http://www.bohemiancoding.com/sketch -->
    <title>Fill 1</title>
    <desc>Created with Sketch.</desc>
    <defs></defs>
    <g id="Page-1" stroke="none" stroke-width="1" fill="none" fill-rule="evenodd">
        <g id="Paqueteria" transform="translate(-432.000000, -552.000000)" fill="#27387E">
            <path d="M445.771214,563.855423 C445.06647,564.502029 444.882946,565.245155 444.873068,566.210227 L442.682556,566.210227 C442.682556,564.385956 443.097621,563.623599 444.25553,562.494477 C445.124042,561.654751 445.83814,561.027658 445.83814,559.917726 C445.83814,558.711517 445.23052,558.055033 444.072006,558.055033 C443.155194,558.055033 442.228827,558.55678 442.228827,559.792098 L439.883577,559.792098 C439.912686,557.369762 441.717202,556.09578 444.072006,556.09578 C446.667948,556.09578 448.183631,557.475958 448.183631,559.830762 C448.183913,561.539282 447.006491,562.697191 445.771214,563.855423 M443.841029,570.456552 C442.991748,570.456552 442.518788,569.91614 442.518788,569.211356 C442.518788,568.487703 442.991748,567.937414 443.841029,567.937414 C444.680473,567.937414 445.172907,568.487703 445.172907,569.211356 C445.172907,569.91614 444.690351,570.456552 443.841029,570.456552 M443.999153,552 C437.372625,552 432,557.372584 432,564 C432,570.628222 437.372625,576 443.999153,576 C450.627133,576 456,570.628222 456,564 C456,557.372584 450.627133,552 443.999153,552" id="Fill-1"></path>
        </g>
    </g>
</svg>