<?xml version="1.0" encoding="UTF-8"?>
<svg width="60px" height="59px" viewBox="0 0 60 59" version="1.1" xmlns="http://www.w3.org/2000/svg" xmlns:xlink="http://www.w3.org/1999/xlink">
    <!-- Generator: Sketch 50.2 (55047) - http://www.bohemiancoding.com/sketch -->
    <title>rastrear</title>
    <desc>Created with Sketch.</desc>
    <defs></defs>
    <g id="Page-1" stroke="none" stroke-width="1" fill="none" fill-rule="evenodd">
        <g id="Index-Transp-Copy-2" transform="translate(-907.000000, -1029.000000)" fill="#FFFFFF">
            <g id="rastrear-paquete" transform="translate(367.000000, 1015.000000)">
                <path d="M566.811598,22.9279918 C566.811598,21.1678618 568.239906,19.7395545 570.000036,19.7395545 C571.760166,19.7395545 573.188473,21.1678618 573.188473,22.9279918 C573.188473,24.6881219 571.760166,26.1164292 570.000036,26.1164292 C568.239906,26.1164292 566.811598,24.6881219 566.811598,22.9279918 Z M578.928027,22.9279918 C578.928027,17.9916688 574.936359,14 570.000036,14 C565.064325,14 561.072044,17.9916688 561.072044,22.9279918 C561.072044,29.6244449 570.000036,39.508723 570.000036,39.508723 C570.000036,39.508723 578.928027,29.6244449 578.928027,22.9279918 Z M586.937078,19.8705694 L586.961567,19.8338363 L589.410444,17.3849597 C590.031846,16.8119225 590.070416,15.8433919 589.497379,15.2226016 C588.92373,14.6011992 587.955199,14.5626294 587.333796,15.1356665 C587.29339,15.1730119 587.255432,15.2128061 587.218699,15.254437 L584.769823,17.7033136 C584.171072,18.302064 584.171072,19.2724313 584.769823,19.8705694 C585.368573,20.4693197 586.33894,20.4693197 586.937078,19.8705694 Z M584.794311,31.8700647 C584.196173,32.468815 584.196173,33.4391824 584.794311,34.0373205 L587.243188,36.4861971 C587.841938,37.0849474 588.812306,37.0849474 589.410444,36.4861971 C590.009194,35.888059 590.009194,34.9176916 589.410444,34.3189413 L586.961567,31.8700647 C586.363429,31.2719266 585.393062,31.2719266 584.794311,31.8700647 Z M587.292166,25.8519505 C587.292166,26.6974251 587.977239,27.3824984 588.822713,27.3824984 L592.251141,27.3824984 C593.096615,27.3824984 593.781688,26.6974251 593.781688,25.8519505 C593.781688,25.0070881 593.096615,24.3214026 592.251141,24.3214026 L588.822713,24.3214026 C587.977239,24.3214026 587.292166,25.0070881 587.292166,25.8519505 Z M553.056871,31.8455759 L550.607994,34.2944525 C550.009856,34.8932029 550.009856,35.8635702 550.607994,36.4617083 C551.206744,37.0604587 552.177112,37.0604587 552.77525,36.4617083 L555.224127,34.0128317 C555.822877,33.4146936 555.822877,32.4443263 555.224127,31.8455759 C554.625988,31.2474378 553.655621,31.2474378 553.056871,31.8455759 Z M553.032382,19.8338363 C553.631132,20.4325866 554.6015,20.4325866 555.199638,19.8338363 C555.798388,19.2356982 555.798388,18.2653308 555.199638,17.6665805 L552.750761,15.2177039 C552.152623,14.6195658 551.182256,14.6195658 550.583505,15.2177039 C549.985367,15.8164542 549.985367,16.7868216 550.583505,17.3849597 L553.032382,19.8338363 Z M547.742809,27.3824984 L551.171236,27.3824984 C552.01671,27.3824984 552.701784,26.6974251 552.701784,25.8519505 C552.701784,25.0070881 552.01671,24.3214026 551.171236,24.3214026 L547.742809,24.3214026 C546.897946,24.3214026 546.212261,25.0070881 546.212261,25.8519505 C546.212261,26.6974251 546.897946,27.3824984 547.742809,27.3824984 Z M578.660488,55.3854022 L572.751961,45.9021276 L589.802264,45.9021276 L595.710179,55.3854022 L578.660488,55.3854022 Z M588.669659,68.0644608 C588.669659,68.9889117 587.922139,69.7382679 586.9983,69.7419412 L571.527522,69.7419412 L571.527522,49.7284973 L576.504864,57.7302015 C576.784036,58.1795704 577.274424,58.4520079 577.802769,58.4526201 L588.669659,58.4526201 L588.669659,68.0644608 Z M568.466427,69.7419412 L552.995649,69.7419412 C552.069361,69.7419412 551.318168,68.9913605 551.318168,68.0644608 L551.318168,58.4464979 L562.185058,58.4464979 C562.713403,58.4458857 563.203791,58.172836 563.482963,57.7240793 L568.466427,49.7284973 L568.466427,69.7419412 Z M544.28377,55.3854022 L550.185563,45.9021276 L567.241988,45.9021276 L561.334074,55.3854022 L544.28377,55.3854022 Z M599.769192,56.108433 L591.957275,43.5640627 C591.678103,43.115306 591.187716,42.8416441 590.659371,42.8410319 L549.340701,42.8410319 C548.812355,42.8416441 548.321968,43.115306 548.042796,43.5640627 L540.23088,56.108433 C539.784572,56.8259539 540.004971,57.7699958 540.722492,58.2156913 C540.96493,58.3662972 541.244102,58.4464979 541.528784,58.4464979 L548.263195,58.4464979 L548.263195,68.0773174 C548.273603,70.6853709 550.386983,72.7969148 552.995649,72.803037 L586.9983,72.803037 C589.613701,72.7993636 591.733815,70.6804732 591.736877,68.0644608 L591.736877,58.4464979 L598.471287,58.4464979 C599.316762,58.4452735 600.001223,57.7595881 599.999998,56.9141134 C599.999386,56.6288193 599.919798,56.3496474 599.769192,56.108433 Z" id="rastrear"></path>
            </g>
        </g>
    </g>
</svg>