<?xml version="1.0" encoding="UTF-8"?>
<svg width="63px" height="84px" viewBox="0 0 63 84" version="1.1" xmlns="http://www.w3.org/2000/svg" xmlns:xlink="http://www.w3.org/1999/xlink">
    <!-- Generator: Sketch 50.2 (55047) - http://www.bohemiancoding.com/sketch -->
    <title>Fill 1</title>
    <desc>Created with Sketch.</desc>
    <defs></defs>
    <g id="Page-1" stroke="none" stroke-width="1" fill="none" fill-rule="evenodd">
        <g id="Transporte" transform="translate(-353.000000, -1820.000000)" fill="#D01D56">
            <path d="M398.836692,1844.38089 L389.621891,1868.88969 C389.130043,1870.18805 387.805836,1871.03537 386.467335,1870.99887 C384.933777,1870.95976 383.519608,1869.73614 383.265697,1868.15274 L381.764928,1858.70536 C381.727094,1858.48462 381.640495,1858.28213 381.489998,1858.12136 L381.479909,1858.11354 L381.474864,1858.10746 L381.472342,1858.10572 L381.461412,1858.1005 L381.461412,1858.0979 C381.305029,1857.94147 381.116698,1857.84587 380.898939,1857.80937 L371.753081,1856.25726 C370.22709,1855.99655 369.039087,1854.53481 369.001253,1852.95141 C368.963418,1851.57398 369.785688,1850.19567 371.045156,1849.69163 L394.761497,1840.1669 C395.904098,1839.77409 397.208127,1840.08695 398.053938,1840.97598 C398.918246,1841.85024 399.21924,1843.20334 398.836692,1844.38089 M384.498298,1820 C368.748724,1820 353,1822.79531 353,1822.79531 L353,1864.42982 C353,1864.42982 354.968059,1892.98877 384.498298,1904 C414.03109,1892.98877 416,1864.42982 416,1864.42982 L416,1822.79531 C416,1822.79531 400.247873,1820 384.498298,1820" id="Fill-1"></path>
        </g>
    </g>
</svg>