<?xml version="1.0" encoding="UTF-8"?>
<svg width="19px" height="19px" viewBox="0 0 19 19" version="1.1" xmlns="http://www.w3.org/2000/svg" xmlns:xlink="http://www.w3.org/1999/xlink">
    <!-- Generator: Sketch 50.2 (55047) - http://www.bohemiancoding.com/sketch -->
    <title>Group</title>
    <desc>Created with Sketch.</desc>
    <defs></defs>
    <g id="Symbols" stroke="none" stroke-width="1" fill="none" fill-rule="evenodd">
        <g id="noun_Seat_1058955" fill="#27387E" fill-rule="nonzero">
            <g id="Group">
                <path d="M18.280303,8.12777778 L17.1287879,8.12777778 C16.8121212,8.12777778 16.5530303,8.36527778 16.5530303,8.65555556 L16.5530303,12.6402778 L16.5530303,14.4347222 C16.5530303,14.725 16.8121212,14.9625 17.1287879,14.9625 L18.280303,14.9625 C18.5969697,14.9625 18.8560606,14.725 18.8560606,14.4347222 L18.8560606,8.65555556 C18.8560606,8.36527778 18.5969697,8.12777778 18.280303,8.12777778 Z" id="Shape"></path>
                <path d="M0.71969697,8.12777778 C0.403030303,8.12777778 0.143939394,8.36527778 0.143939394,8.65555556 L0.143939394,14.4347222 C0.143939394,14.725 0.403030303,14.9625 0.71969697,14.9625 L1.87121212,14.9625 C2.18787879,14.9625 2.4469697,14.725 2.4469697,14.4347222 L2.4469697,12.6402778 L2.4469697,8.65555556 C2.4469697,8.36527778 2.18787879,8.12777778 1.87121212,8.12777778 L0.71969697,8.12777778 Z" id="Shape"></path>
                <path d="M15.430303,2.29583333 C15.430303,1.13472222 14.3939394,0.184722222 13.1272727,0.184722222 L5.87272727,0.184722222 C4.60606061,0.184722222 3.56969697,1.13472222 3.56969697,2.29583333 L3.56969697,11.5847222 C3.56969697,11.875 3.82878788,12.1125 4.14545455,12.1125 L14.8257576,12.1125 C15.1424242,12.1125 15.4015152,11.875 15.4015152,11.5847222 L15.4015152,2.29583333 L15.430303,2.29583333 Z" id="Shape"></path>
                <path d="M18.280303,16.0444444 L15.9772727,16.0444444 L2.99393939,16.0444444 L0.690909091,16.0444444 C0.374242424,16.0444444 0.115151515,16.2819444 0.115151515,16.5722222 L0.115151515,18.2875 C0.115151515,18.5777778 0.374242424,18.8152778 0.690909091,18.8152778 L18.280303,18.8152778 C18.5969697,18.8152778 18.8560606,18.5777778 18.8560606,18.2875 L18.8560606,16.5722222 C18.8560606,16.2819444 18.5969697,16.0444444 18.280303,16.0444444 Z" id="Shape"></path>
                <path d="M14.8545455,13.1680556 L4.14545455,13.1680556 C3.82878788,13.1680556 3.56969697,13.4055556 3.56969697,13.6958333 L3.56969697,14.4347222 C3.56969697,14.725 3.82878788,14.9625 4.14545455,14.9625 L14.8257576,14.9625 C15.1424242,14.9625 15.4015152,14.725 15.4015152,14.4347222 L15.4015152,13.6958333 C15.430303,13.4055556 15.1712121,13.1680556 14.8545455,13.1680556 Z" id="Shape"></path>
            </g>
        </g>
    </g>
</svg>