<?xml version="1.0" encoding="UTF-8"?>
<svg width="52px" height="80px" viewBox="0 0 52 80" version="1.1" xmlns="http://www.w3.org/2000/svg" xmlns:xlink="http://www.w3.org/1999/xlink">
    <!-- Generator: Sketch 50.2 (55047) - http://www.bohemiancoding.com/sketch -->
    <title>Group</title>
    <desc>Created with Sketch.</desc>
    <defs>
        <polygon id="path-1" points="0 0.690769231 51.7653846 0.690769231 51.7653846 79.2307692 0 79.2307692"></polygon>
    </defs>
    <g id="Page-1" stroke="none" stroke-width="1" fill="none" fill-rule="evenodd">
        <g id="Van" transform="translate(-606.000000, -1779.000000)">
            <g id="servicios-abordo" transform="translate(47.000000, 1507.000000)">
                <g id="Group" transform="translate(559.000000, 272.000000)">
                    <g id="Group-3" transform="translate(0.000000, 0.078462)">
                        <mask id="mask-2" fill="white">
                            <use xlink:href="#path-1"></use>
                        </mask>
                        <g id="Clip-2"></g>
                        <path d="M43.7138462,11.7002308 C42.5561538,11.6725385 41.64,10.7117692 41.6669231,9.55330769 C41.6946154,8.39638462 42.6561538,7.47946154 43.8138462,7.50715385 C44.9515385,7.53407692 45.8607692,8.46484615 45.8607692,9.60330769 C45.8615385,10.761 44.9223077,11.7002308 43.7646154,11.7002308 C43.7476923,11.701 43.7307692,11.7002308 43.7138462,11.7002308 Z M43.7138462,70.0686923 C42.5561538,70.041 41.64,69.0802308 41.6669231,67.9217692 C41.6946154,66.7648462 42.6561538,65.8479231 43.8138462,65.8756154 C44.9515385,65.9025385 45.8607692,66.8333077 45.8607692,67.9717692 C45.8615385,69.1294615 44.9223077,70.0686923 43.7646154,70.0686923 C43.7476923,70.0686923 43.7307692,70.0686923 43.7138462,70.0686923 Z M25.8892308,65.9494615 C17.5469231,65.9494615 10.7846154,59.1871538 10.7846154,50.8456154 C10.7846154,42.5033077 17.5469231,35.7417692 25.8892308,35.7417692 C34.23,35.7417692 40.9923077,42.5033077 40.9923077,50.8456154 C40.9992308,59.1871538 34.2430769,65.9548462 25.9015385,65.9617692 L25.8892308,65.9617692 L25.8892308,65.9494615 Z M25.8892308,9.441 C31.7623077,9.441 36.5238462,14.2025385 36.5238462,20.0763846 C36.5238462,25.9494615 31.7623077,30.711 25.8892308,30.711 C20.0153846,30.711 15.2538462,25.9494615 15.2538462,20.0763846 C15.2538462,14.2025385 20.0153846,9.441 25.8892308,9.441 Z M8.06384615,11.7002308 C6.90538462,11.7002308 5.96692308,10.761 5.96692308,9.60330769 C5.96692308,8.44484615 6.90538462,7.50561538 8.06384615,7.50561538 C9.22230769,7.50561538 10.1607692,8.44484615 10.1607692,9.60330769 C10.1607692,10.761 9.22230769,11.7002308 8.06384615,11.7002308 Z M8.06384615,70.0686923 C6.90538462,70.0686923 5.96692308,69.1294615 5.96692308,67.9717692 C5.96692308,66.8133077 6.90538462,65.8740769 8.06384615,65.8740769 C9.22230769,65.8740769 10.1607692,66.8133077 10.1607692,67.9717692 C10.1607692,69.1294615 9.22230769,70.0686923 8.06384615,70.0686923 Z M42.2784615,0.690230769 L9.49923077,0.690230769 C4.25307692,0.690230769 -4.23516474e-22,4.94330769 -4.23516474e-22,10.1902308 L-4.23516474e-22,67.3848462 C-0.00230769231,72.3356154 3.80230769,76.4556154 8.73769231,76.8463846 L8.73769231,77.4333077 C8.73769231,78.4263846 9.54230769,79.231 10.5353846,79.231 L11.7838462,79.231 C12.7615385,79.2102308 13.5438462,78.4117692 13.5438462,77.4333077 L13.5438462,76.8340769 L38.2338462,76.8340769 L38.2338462,77.4333077 C38.2338462,78.4263846 39.0384615,79.231 40.0315385,79.231 L41.28,79.231 C42.2530769,79.2033077 43.0276923,78.4071538 43.0269231,77.4333077 L43.0269231,76.7971538 C47.9623077,76.4056154 51.7676923,72.2856154 51.7653846,67.3348462 L51.7653846,10.1902308 C51.7653846,4.94869231 47.52,0.697153846 42.2784615,0.690230769 Z" id="Fill-1" fill="#27377D" mask="url(#mask-2)"></path>
                    </g>
                    <path d="M25.8889231,15.9853846 C28.1773846,15.9853846 30.0327692,17.8407692 30.0327692,20.1292308 C30.0327692,22.4184615 28.1773846,24.2738462 25.8889231,24.2738462 C23.5996923,24.2738462 21.7443077,22.4184615 21.7443077,20.1292308 C21.7581538,17.85 23.6096923,16.01 25.8889231,16.01 L25.8889231,15.9853846 Z M25.8889231,28.83 C30.7143077,28.83 34.6266154,24.9176923 34.6266154,20.0915385 C34.6266154,15.2661538 30.7143077,11.3538462 25.8889231,11.3538462 C21.0635385,11.3538462 17.1512308,15.2661538 17.1512308,20.0915385 C17.1512308,24.9176923 21.0635385,28.83 25.8889231,28.83 Z" id="Fill-4" fill="#CF1D56"></path>
                    <path d="M25.8889231,56.7407692 C22.6835385,56.7407692 20.0843077,54.1423077 20.0843077,50.9361538 C20.0843077,47.7307692 22.6835385,45.1323077 25.8889231,45.1323077 C29.0943077,45.1323077 31.6927692,47.7307692 31.6927692,50.9361538 C31.6927692,54.1423077 29.0943077,56.7407692 25.8889231,56.7407692 M25.8889231,38.5915385 C19.0704615,38.5915385 13.5435385,44.1184615 13.5435385,50.9361538 C13.5435385,57.7546154 19.0704615,63.2815385 25.8889231,63.2815385 C32.7066154,63.2815385 38.2343077,57.7546154 38.2343077,50.9361538 C38.2343077,44.1184615 32.7066154,38.5915385 25.8889231,38.5915385" id="Fill-6" fill="#CF1D56"></path>
                </g>
            </g>
        </g>
    </g>
</svg>