<?xml version="1.0" encoding="UTF-8"?>
<svg width="163px" height="48px" viewBox="0 0 163 48" version="1.1" xmlns="http://www.w3.org/2000/svg" xmlns:xlink="http://www.w3.org/1999/xlink">
    <!-- Generator: Sketch 50.2 (55047) - http://www.bohemiancoding.com/sketch -->
    <title>Group</title>
    <desc>Created with Sketch.</desc>
    <defs>
        <polygon id="path-1" points="0.265 0.122 113.65775 0.122 113.65775 46.5607 0.265 46.5607"></polygon>
        <polygon id="path-3" points="0.264467794 0.285941619 23.922 0.285941619 23.922 33 0.264467794 33"></polygon>
    </defs>
    <g id="Page-1" stroke="none" stroke-width="1" fill="none" fill-rule="evenodd">
        <g id="Van" transform="translate(-71.000000, -1606.000000)">
            <g id="servicios-abordo" transform="translate(47.000000, 1507.000000)">
                <g id="Group" transform="translate(24.000000, 98.000000)">
                    <g id="Group-3" transform="translate(25.000000, 0.878400)">
                        <mask id="mask-2" fill="white">
                            <use xlink:href="#path-1"></use>
                        </mask>
                        <g id="Clip-2"></g>
                        <path d="M95.781,21.7217 C95.951,21.2867 96.052,20.1127 96.152,19.0107 L96.032,19.0107 L96.032,18.8897 L96.152,19.0107 C96.152,19.0107 96.634,20.6947 96.634,21.0557 C96.564,21.3347 96.17,21.5707 95.781,21.7217 M93.626,18.5287 C93.626,18.9387 93.454,20.9087 93.551,21.9337 C92.212,21.9697 90.443,22.0177 90.136,22.0177 C89.776,22.0177 86.768,21.8977 86.287,21.5367 C86.046,19.9727 83.64,9.8667 83.158,8.1817 L85.926,8.1817 C86.046,8.1817 86.166,8.1817 86.407,8.0617 L93.987,16.6037 C93.746,16.7237 93.626,18.5287 93.626,18.5287 M75.459,20.5747 C75.218,20.5747 74.376,13.1157 73.895,10.5887 C73.413,8.0617 75.94,7.9417 75.94,7.9417 C75.94,7.9417 79.309,7.9417 82.196,8.0617 L84.963,21.0557 C82.918,21.0557 75.699,20.5747 75.459,20.5747 M113.477,31.2817 C113.236,30.1997 112.875,28.9957 112.394,27.4317 C111.792,25.7477 110.71,24.4247 109.867,23.7017 C109.146,23.1007 106.138,21.7777 104.814,21.1757 C103.371,20.5747 99.401,19.4917 99.401,19.4917 L97.114,19.2507 L96.032,18.0477 L96.032,17.2057 C96.032,16.4837 95.31,16.3637 94.588,16.4837 L87.009,7.7007 L81.234,3.0097 C77.143,0.1217 71.729,0.3627 71.729,0.3627 L9.649,0.3627 C9.649,0.3627 8.206,0.1217 6.16,0.1217 C3.995,0.1217 3.995,1.3247 3.995,1.3247 C3.995,1.3247 3.634,0.6027 3.032,3.3697 C2.31,6.2577 0.265,23.5817 0.265,23.5817 L0.265,31.7637 L0.265,32.8457 L0.265,33.6877 L0.265,36.8157 C0.265,38.9817 1.468,39.1017 1.468,39.1017 L11.454,39.7037 L11.454,37.8987 C11.454,37.8987 11.574,30.1997 20.357,30.1997 C29.019,30.1997 29.26,37.7787 29.26,37.7787 L29.38,39.3427 L88.573,39.3427 C88.573,37.2977 89.174,29.9587 97.596,29.9587 C106.017,29.9587 106.258,37.6587 106.258,37.6587 L106.379,39.7037 C106.379,39.7037 109.627,39.3427 110.95,39.2217 C112.274,39.1017 112.394,38.7417 112.514,38.3807 C112.635,37.8987 113.236,35.7337 113.477,35.2517 C113.718,34.6507 113.718,32.3647 113.477,31.2817 M20.597,41.0267 C19.515,41.0267 18.673,40.1847 18.673,39.1017 C18.673,38.0187 19.515,37.1777 20.597,37.1777 C21.68,37.1777 22.522,38.0187 22.522,39.1017 C22.522,40.1847 21.68,41.0267 20.597,41.0267 M20.597,31.8837 C16.507,31.8837 13.259,35.1317 13.259,39.2217 C13.259,43.3127 16.507,46.5607 20.597,46.5607 C24.688,46.5607 27.936,43.3127 27.936,39.2217 C27.936,35.1317 24.688,31.8837 20.597,31.8837 M97.596,41.0267 C96.513,41.0267 95.671,40.1847 95.671,39.1017 C95.671,38.0187 96.513,37.1777 97.596,37.1777 C98.678,37.1777 99.521,38.0187 99.521,39.1017 C99.521,40.1847 98.678,41.0267 97.596,41.0267 M97.596,31.6427 C93.505,31.6427 90.257,34.8907 90.257,38.9817 C90.257,43.0727 93.505,46.3207 97.596,46.3207 C101.686,46.3207 104.935,43.0727 104.935,38.9817 C104.935,34.8907 101.686,31.6427 97.596,31.6427" id="Fill-1" fill="#27377D" mask="url(#mask-2)"></path>
                    </g>
                    <g id="Group-6" transform="translate(139.000000, 15.878400)">
                        <mask id="mask-4" fill="white">
                            <use xlink:href="#path-3"></use>
                        </mask>
                        <g id="Clip-5"></g>
                        <path d="M18.6369,0.79 C18.2199,0.234 17.4319,0.121 16.8749,0.536 C16.3169,0.954 16.2029,1.741 16.6209,2.297 C22.9959,10.799 22.9959,22.487 16.6209,30.988 C16.2029,31.544 16.3169,32.332 16.8749,32.75 C17.4319,33.165 18.2199,33.052 18.6369,32.496 C25.6839,23.103 25.6839,10.187 18.6369,0.79 M14.6109,3.81 C14.1949,3.251 13.4049,3.141 12.8489,3.556 C12.2929,3.974 12.1789,4.761 12.5969,5.317 C17.6309,12.03 17.6309,21.256 12.5969,27.968 C12.1789,28.524 12.2929,29.312 12.8489,29.73 C13.4049,30.145 14.1949,30.034 14.6109,29.476 C20.3129,21.875 20.3129,11.415 14.6109,3.81 M10.5839,6.83 C10.1659,6.274 9.3779,6.161 8.8219,6.578 C8.2659,6.996 8.1529,7.784 8.5699,8.34 C12.2619,13.26 12.2619,20.03 8.5699,24.951 C8.1529,25.507 8.2659,26.294 8.8219,26.712 C9.3779,27.13 10.1659,27.017 10.5839,26.46 C14.9479,20.644 14.9479,12.646 10.5839,6.83 M6.5569,9.85 C6.1389,9.294 5.3509,9.181 4.7979,9.599 C4.2409,10.014 4.1279,10.804 4.5439,11.36 C6.8939,14.491 6.8939,18.797 4.5439,21.928 C4.1279,22.487 4.2409,23.274 4.7979,23.689 C5.3539,24.107 6.1389,23.994 6.5569,23.438 C9.5769,19.414 9.5769,13.877 6.5569,9.85 M0.7679,12.619 C0.2119,13.034 0.0989,13.824 0.5169,14.378 C1.5209,15.722 1.5209,17.566 0.5169,18.91 C0.0989,19.466 0.2119,20.254 0.7679,20.669 C1.3269,21.087 2.1119,20.974 2.5299,20.418 C4.2059,18.183 4.2059,15.107 2.5299,12.87 C2.1119,12.314 1.3249,12.201 0.7679,12.619" id="Fill-4" fill="#CF1D56" mask="url(#mask-4)"></path>
                    </g>
                    <path d="M5.2854,48.374 C5.7024,48.93 6.4904,49.043 7.0464,48.628 C7.6054,48.21 7.7194,47.423 7.3014,46.867 C0.9264,38.365 0.9264,26.677 7.3014,18.176 C7.7194,17.62 7.6054,16.832 7.0464,16.414 C6.4904,15.999 5.7024,16.112 5.2854,16.668 C-1.7616,26.061 -1.7616,38.977 5.2854,48.374 M9.3114,45.354 C9.7274,45.913 10.5174,46.023 11.0734,45.608 C11.6294,45.19 11.7434,44.403 11.3254,43.847 C6.2914,37.134 6.2914,27.908 11.3254,21.196 C11.7434,20.64 11.6294,19.852 11.0734,19.434 C10.5174,19.019 9.7274,19.13 9.3114,19.688 C3.6094,27.289 3.6094,37.749 9.3114,45.354 M13.3384,42.334 C13.7564,42.89 14.5444,43.003 15.1004,42.585 C15.6564,42.168 15.7694,41.38 15.3524,40.824 C11.6604,35.904 11.6604,29.134 15.3524,24.213 C15.7694,23.657 15.6564,22.87 15.1004,22.452 C14.5444,22.034 13.7564,22.147 13.3384,22.704 C8.9744,28.52 8.9744,36.518 13.3384,42.334 M17.3654,39.314 C17.7834,39.87 18.5714,39.983 19.1244,39.565 C19.6814,39.15 19.7944,38.36 19.3784,37.804 C17.0284,34.673 17.0284,30.367 19.3784,27.236 C19.7944,26.677 19.6814,25.89 19.1244,25.474 C18.5684,25.057 17.7834,25.17 17.3654,25.726 C14.3454,29.75 14.3454,35.287 17.3654,39.314 M23.1544,36.545 C23.7104,36.13 23.8234,35.34 23.4054,34.786 C22.4014,33.442 22.4014,31.598 23.4054,30.253 C23.8234,29.697 23.7104,28.91 23.1544,28.495 C22.5954,28.077 21.8094,28.19 21.3924,28.746 C19.7164,30.981 19.7164,34.057 21.3924,36.294 C21.8094,36.85 22.5974,36.963 23.1544,36.545" id="Fill-7" fill="#CF1D56"></path>
                </g>
            </g>
        </g>
    </g>
</svg>