<?xml version="1.0" encoding="UTF-8"?>
<svg width="91px" height="69px" viewBox="0 0 91 69" version="1.1" xmlns="http://www.w3.org/2000/svg" xmlns:xlink="http://www.w3.org/1999/xlink">
    <!-- Generator: Sketch 50.2 (55047) - http://www.bohemiancoding.com/sketch -->
    <title>Fill 1</title>
    <desc>Created with Sketch.</desc>
    <defs></defs>
    <g id="Page-1" stroke="none" stroke-width="1" fill="none" fill-rule="evenodd">
        <g id="Van" transform="translate(-347.000000, -1785.000000)" fill="#27377D">
            <g id="servicios-abordo" transform="translate(47.000000, 1507.000000)">
                <path d="M306.952,329.041 L383.088,329.041 L383.088,284.952 L306.952,284.952 L306.952,329.041 Z M390.041,278.66 C390.041,278.296 389.744,278 389.381,278 L300.66,278 C300.485,278 300.317,278.069 300.193,278.193 C300.069,278.317 300,278.485 300,278.659 L300,283.411 L300,330.579 L300,335.331 C300,335.696 300.296,335.991 300.66,335.991 L334.164,335.991 L334.164,340.61 L327.106,340.61 C326.742,340.61 326.446,340.907 326.446,341.27 L326.446,346.022 C326.446,346.387 326.742,346.682 327.106,346.682 L362.936,346.682 C363.299,346.682 363.594,346.387 363.594,346.022 L363.594,341.272 C363.594,340.909 363.299,340.612 362.936,340.612 L355.877,340.612 L355.877,335.992 L389.381,335.992 C389.555,335.992 389.723,335.922 389.848,335.799 C389.971,335.676 390.041,335.508 390.041,335.332 L390.041,278.66 Z" id="Fill-1"></path>
            </g>
        </g>
    </g>
</svg>