<?xml version="1.0" encoding="UTF-8"?>
<svg width="47px" height="87px" viewBox="0 0 47 87" version="1.1" xmlns="http://www.w3.org/2000/svg" xmlns:xlink="http://www.w3.org/1999/xlink">
    <!-- Generator: Sketch 50.2 (55047) - http://www.bohemiancoding.com/sketch -->
    <title>Group</title>
    <desc>Created with Sketch.</desc>
    <defs>
        <polygon id="path-1" points="0 0.0002 46.9999 0.0002 46.9999 86.9 0 86.9"></polygon>
    </defs>
    <g id="Page-1" stroke="none" stroke-width="1" fill="none" fill-rule="evenodd">
        <g id="Van" transform="translate(-129.000000, -1767.000000)">
            <g id="servicios-abordo" transform="translate(47.000000, 1507.000000)">
                <g id="Group" transform="translate(82.000000, 260.000000)">
                    <mask id="mask-2" fill="white">
                        <use xlink:href="#path-1"></use>
                    </mask>
                    <g id="Clip-2"></g>
                    <path d="M10.4,39.1 L33,39.1 L33,29.3 L10.4,29.3 L10.4,39.1 Z M37.7,29.9 L36,29.9 L36,28.2 C36,27.2 35.2,26.4 34.2,26.4 L9.2,26.4 C8.2,26.4 7.4,27.2 7.4,28.2 L7.4,40.4 C7.4,41.4 8.2,42.2 9.2,42.2 L34.2,42.2 C35.2,42.2 36,41.4 36,40.4 L36,38.6 L37.7,38.6 C38.7,38.6 39.5,37.8 39.5,36.8 L39.5,31.8 C39.6,30.7 38.7,29.9 37.7,29.9 Z" id="Fill-1" fill="#020303" mask="url(#mask-2)"></path>
                    <path d="M21,50.8 L22.5,50.8 L22.5,49.3 L21,49.3 L21,50.8 Z M24.5,50.8 L26,50.8 L26,49.3 L24.5,49.3 L24.5,50.8 Z M19.5,53 L27.4,53 L27.4,46.9 L19.5,46.9 L19.5,53 Z" id="Fill-3" fill="#CF1D56" mask="url(#mask-2)"></path>
                    <path d="M22.1999,72.6002 L3.1999,72.6002 L3.1999,12.8002 L43.4999,12.8002 L43.4999,72.6002 L43.5999,72.6002 L24.5999,72.6002 M23.4999,83.9002 C21.1999,83.9002 19.2999,82.0002 19.2999,79.7002 C19.2999,77.4002 21.1999,75.5002 23.4999,75.5002 C25.7999,75.5002 27.6999,77.4002 27.6999,79.7002 C27.6999,82.1002 25.7999,83.9002 23.4999,83.9002 M15.6999,5.5002 L31.1999,5.5002 C31.8999,5.5002 32.3999,6.0002 32.3999,6.7002 C32.3999,7.4002 31.8999,7.9002 31.1999,7.9002 L15.6999,7.9002 C14.9999,7.9002 14.4999,7.4002 14.4999,6.7002 C14.5999,6.1002 15.0999,5.5002 15.6999,5.5002 M39.9999,0.0002 L6.9999,0.0002 C3.0999,0.0002 -0.0001,3.2002 -0.0001,7.0002 L-0.0001,79.9002 C-0.0001,83.8002 3.1999,86.9002 6.9999,86.9002 L39.9999,86.9002 C43.8999,86.9002 46.9999,83.7002 46.9999,79.9002 L46.9999,7.0002 C46.9999,3.2002 43.7999,0.0002 39.9999,0.0002" id="Fill-4" fill="#27377D" mask="url(#mask-2)"></path>
                    <path d="M17.4001,35.5001 C17.4001,35.5001 17.5001,35.5001 17.4001,35.5001 C22.1001,36.2001 26.7001,36.8001 31.3001,37.3001 C28.1001,36.3001 24.9001,35.3001 21.6001,34.3001 C22.1001,33.8001 22.7001,33.5001 23.2001,33.1001 C19.4001,32.4001 15.7001,31.7001 12.0001,31.1001 C14.4001,32.0001 16.8001,32.9001 19.2001,33.7001 C18.7001,34.4001 18.1001,34.9001 17.4001,35.5001" id="Fill-5" fill="#CF1D56" mask="url(#mask-2)"></path>
                    <path d="M24.5998,71.1519 L24.5998,67.4999 L25.2998,67.4999 L25.2998,66.2999 L26.1998,66.2999 L26.1998,64.6999 L27.4998,64.6999 C28.0998,64.6999 28.4998,64.1999 28.4998,63.6999 L28.4998,54.6999 C28.4998,54.0999 27.9998,53.6999 27.4998,53.6999 L19.2998,53.6999 C18.6998,53.6999 18.2998,54.1999 18.2998,54.6999 L18.2998,63.6999 C18.2998,64.2999 18.7998,64.6999 19.2998,64.6999 L20.5998,64.6999 L20.5998,66.2999 L21.4998,66.2999 L21.4998,67.4999 L22.1998,67.4999 L22.1998,71.1519 L24.5998,71.1519 Z" id="Fill-6" fill="#CF1D56" mask="url(#mask-2)"></path>
                </g>
            </g>
        </g>
    </g>
</svg>