<?xml version="1.0" encoding="UTF-8"?>
<svg width="85px" height="57px" viewBox="0 0 85 57" version="1.1" xmlns="http://www.w3.org/2000/svg" xmlns:xlink="http://www.w3.org/1999/xlink">
    <!-- Generator: Sketch 50.2 (55047) - http://www.bohemiancoding.com/sketch -->
    <title>Group</title>
    <desc>Created with Sketch.</desc>
    <defs>
        <polygon id="path-1" points="0 0.2805 84.6589 0.2805 84.6589 46.9995 0 46.9995"></polygon>
        <polygon id="path-3" points="0.1118 0.992 26.5468 0.992 26.5468 21.5879 0.1118 21.5879"></polygon>
    </defs>
    <g id="Page-1" stroke="none" stroke-width="1" fill="none" fill-rule="evenodd">
        <g id="Van" transform="translate(-350.000000, -1596.000000)">
            <g id="servicios-abordo" transform="translate(47.000000, 1507.000000)">
                <g id="Group" transform="translate(303.000000, 88.000000)">
                    <g id="Group-3" transform="translate(0.000000, 11.008300)">
                        <mask id="mask-2" fill="white">
                            <use xlink:href="#path-1"></use>
                        </mask>
                        <g id="Clip-2"></g>
                        <path d="M13.1369,0.2915 C5.8819,0.2915 -0.0001,6.1725 -0.0001,13.4285 L-0.0001,33.8635 C-0.0001,41.1185 5.8819,46.9995 13.1369,46.9995 L71.5219,46.9995 C78.7769,46.9995 84.6589,41.1185 84.6589,33.8635 L84.6589,13.4285 C84.6589,6.1725 78.7769,0.2915 71.5219,0.2915 L55.1009,0.2915 C55.0979,1.6995 53.9549,2.8405 52.5469,2.8405 L52.1819,2.8405 L52.1819,4.6655 C52.1819,5.1745 52.0889,5.6605 51.9539,6.1305 L71.5219,6.1305 C75.5659,6.1305 78.8209,9.3855 78.8209,13.4285 L78.8209,33.8635 C78.8209,37.9065 75.5659,41.1615 71.5219,41.1615 L13.1369,41.1615 C9.0939,41.1615 5.8389,37.9065 5.8389,33.8635 L5.8389,13.4285 C5.8389,9.3855 9.0939,6.1305 13.1369,6.1305 L32.7049,6.1305 C32.5709,5.6605 32.4769,5.1745 32.4769,4.6655 L32.4769,3.2055 C32.4769,2.9745 32.3429,2.8395 32.1129,2.8395 C30.7129,2.8395 29.5739,1.7135 29.5579,0.3135 L29.5579,0.2805 L13.1369,0.2915 Z" id="Fill-1" fill="#27377D" mask="url(#mask-2)"></path>
                    </g>
                    <path d="M42.3292,28.815 C46.3602,28.815 49.6272,32.083 49.6272,36.113 C49.6272,40.144 46.3602,43.412 42.3292,43.412 C38.2982,43.412 35.0312,40.144 35.0312,36.114 L35.0312,36.113 C35.0312,32.083 38.2982,28.815 42.3292,28.815 M42.3292,24.436 C35.8802,24.436 30.6522,29.664 30.6522,36.113 C30.6522,42.562 35.8802,47.79 42.3292,47.79 C48.7782,47.79 54.0062,42.562 54.0062,36.113 C54.0062,29.664 48.7782,24.436 42.3292,24.436" id="Fill-4" fill="#CF1D56"></path>
                    <path d="M42.3278,31.7305 C41.5218,31.7205 40.8598,32.3645 40.8488,33.1715 C40.8388,33.9775 41.4838,34.6395 42.2898,34.6495 L42.3278,34.6495 C43.1518,34.6495 43.7868,35.2855 43.7868,36.1095 C43.7758,36.9155 44.4208,37.5785 45.2268,37.5895 C46.0328,37.6015 46.6958,36.9565 46.7068,36.1505 C46.7068,36.1365 46.7068,36.1235 46.7068,36.1095 C46.7068,33.7085 44.7288,31.7305 42.3278,31.7305" id="Fill-6" fill="#CF1D56"></path>
                    <path d="M13.1354,39.0284 C12.3294,39.0184 11.6674,39.6624 11.6564,40.4694 C11.6464,41.2754 12.2914,41.9374 13.0974,41.9474 L13.1354,41.9474 L17.4744,41.9474 C18.2804,41.9584 18.9424,41.3134 18.9524,40.5074 C18.9634,39.7004 18.3184,39.0384 17.5114,39.0284 L17.4744,39.0284 L13.1354,39.0284 Z" id="Fill-8" fill="#27377D"></path>
                    <path d="M13.1354,43.4073 C12.3294,43.3973 11.6674,44.0413 11.6564,44.8483 C11.6464,45.6543 12.2914,46.3163 13.0974,46.3263 L13.1354,46.3263 L17.4744,46.3263 C18.2804,46.3373 18.9424,45.6923 18.9524,44.8863 C18.9634,44.0793 18.3184,43.4183 17.5114,43.4073 L17.4744,43.4073 L13.1354,43.4073 Z" id="Fill-10" fill="#27377D"></path>
                    <g id="Group-14" transform="translate(29.000000, 0.008300)">
                        <mask id="mask-4" fill="white">
                            <use xlink:href="#path-3"></use>
                        </mask>
                        <g id="Clip-13"></g>
                        <path d="M8.9498,21.5879 C5.6858,21.5879 3.0308,18.9329 3.0308,15.6689 L3.0308,14.2899 L0.1118,14.2899 L0.1118,9.8299 C0.1118,4.9569 4.0768,0.9919 8.9498,0.9919 L17.7078,0.9919 C22.5818,0.9919 26.5468,4.9569 26.5468,9.8299 L26.5468,14.2899 L23.6278,14.2899 L23.6278,15.6689 C23.6278,18.9329 20.9718,21.5879 17.7078,21.5879 L8.9498,21.5879 Z" id="Fill-12" fill="#CF1D56" mask="url(#mask-4)"></path>
                    </g>
                    <path d="M32.112,9.8384 L32.112,11.2974 C33.724,11.2974 35.031,12.6054 35.031,14.2174 L35.031,15.6764 C35.031,17.2894 36.338,18.5964 37.95,18.5964 L46.708,18.5964 C48.32,18.5964 49.628,17.2894 49.628,15.6764 L49.628,12.7574 C49.628,11.9514 50.281,11.2974 51.087,11.2974 L52.547,11.2974 L52.547,9.8384 C52.547,6.6134 49.933,3.9994 46.708,3.9994 L37.95,3.9994 C34.726,3.9994 32.112,6.6134 32.112,9.8384" id="Fill-15" fill="#27377D"></path>
                </g>
            </g>
        </g>
    </g>
</svg>