<?xml version="1.0" encoding="UTF-8"?>
<svg width="54px" height="65px" viewBox="0 0 54 65" version="1.1" xmlns="http://www.w3.org/2000/svg" xmlns:xlink="http://www.w3.org/1999/xlink">
    <!-- Generator: Sketch 50.2 (55047) - http://www.bohemiancoding.com/sketch -->
    <title>Group 2</title>
    <desc>Created with Sketch.</desc>
    <defs></defs>
    <g id="Page-1" stroke="none" stroke-width="1" fill="none" fill-rule="evenodd">
        <g id="Van" transform="translate(-844.000000, -1789.000000)">
            <g id="servicios-abordo" transform="translate(47.000000, 1507.000000)">
                <g id="Group-2" transform="translate(797.000000, 282.000000)">
                    <path d="M26.9985414,0 C13.498906,0 0,2.16303823 0,2.16303823 L0,34.3802205 C0,34.3802205 1.68690743,56.4794058 26.9985414,65 C52.3123633,56.4794058 54,34.3802205 54,34.3802205 L54,2.16303823 C54,2.16303823 40.4981767,0 26.9985414,0" id="Fill-1" fill="#27387E"></path>
                    <path d="M42.2493269,21.4794161 L32.5982464,46.5393892 C32.0831111,47.8669405 30.6962086,48.7333143 29.2943363,48.6959935 C27.6881711,48.6560071 26.2070473,47.4048744 25.9411142,45.7858662 L24.3692913,36.1260205 C24.3296656,35.900319 24.2389665,35.6932779 24.081344,35.528889 L24.0707771,35.5208917 L24.0654936,35.5146716 L24.0628519,35.5128944 L24.0514045,35.5075629 L24.0514045,35.5048971 C23.8876179,35.3449512 23.6903695,35.2472065 23.4623011,35.2098858 L13.8834276,33.6228667 C12.2851875,33.3562901 11.0409378,31.8616843 11.0013121,30.242676 C10.9616863,28.8342632 11.8228867,27.4249618 13.1419851,26.9095805 L37.9811894,17.1706505 C39.1778881,16.7690085 40.5436569,17.0889003 41.4295134,17.9979264 C42.3347425,18.8918464 42.6499876,20.2753787 42.2493269,21.4794161" id="Path" fill="#D01D56"></path>
                </g>
            </g>
        </g>
    </g>
</svg>