<?xml version="1.0" encoding="UTF-8"?>
<svg width="53px" height="80px" viewBox="0 0 53 80" version="1.1" xmlns="http://www.w3.org/2000/svg" xmlns:xlink="http://www.w3.org/1999/xlink">
    <!-- Generator: Sketch 50.2 (55047) - http://www.bohemiancoding.com/sketch -->
    <title>Group</title>
    <desc>Created with Sketch.</desc>
    <defs></defs>
    <g id="Page-1" stroke="none" stroke-width="1" fill="none" fill-rule="evenodd">
        <g id="Van" transform="translate(-615.000000, -1585.000000)">
            <g id="servicios-abordo" transform="translate(47.000000, 1507.000000)">
                <g id="Group" transform="translate(568.000000, 78.000000)">
                    <path d="M16.0251429,76.6136264 L16.0251429,65.0654945 C16.0251429,63.3169231 17.4431648,61.8989011 19.1917363,61.8989011 C20.9403077,61.8989011 22.3583297,63.3169231 22.3583297,65.0654945 L22.3583297,76.6145055 C22.3583297,78.3630769 20.9403077,79.7810989 19.1917363,79.7810989 C17.4422857,79.7802198 16.0251429,78.3630769 16.0251429,76.6136264" id="Fill-1" fill="#27377D"></path>
                    <path d="M30.8019341,76.6136264 L30.8019341,65.0654945 C30.8019341,63.3169231 32.219956,61.8989011 33.9685275,61.8989011 C35.7170989,61.8989011 37.1351209,63.3169231 37.1351209,65.0654945 L37.1351209,76.6145055 C37.1351209,78.3630769 35.7170989,79.7810989 33.9685275,79.7810989 C32.2190769,79.7802198 30.8019341,78.3630769 30.8019341,76.6136264" id="Fill-3" fill="#27377D"></path>
                    <path d="M31.8862418,41.0336703 C30.3820659,41.0336703 29.1627253,39.8521319 29.1627253,38.3945495 C29.1627253,36.9747692 27.9715165,35.8204835 26.506022,35.8204835 C25.0018462,35.8204835 23.7825055,34.6389451 23.7825055,33.1813626 C23.7825055,31.7237802 25.0018462,30.5422418 26.506022,30.5422418 C30.9745934,30.5422418 34.6097582,34.064 34.6097582,38.3936703 C34.6097582,39.8521319 33.3904176,41.0336703 31.8862418,41.0336703" id="Fill-5" fill="#27377D"></path>
                    <path d="M36.9236044,59.2308571 L15.8247033,59.2308571 L15.8247033,53.3222857 L15.8247033,53.2097582 L15.8247033,38.6269011 C15.8247033,33.1200879 20.6906374,28.6400879 26.375033,28.6400879 C32.0585495,28.6400879 36.9236044,33.1200879 36.9236044,38.6269011 L36.9236044,54.378989 L36.9236044,54.4923956 L36.9236044,59.2308571 Z M43.0774505,38.6269011 C43.0774505,29.6282198 35.6629451,22.3069011 26.375033,22.3069011 C17.0871209,22.3069011 9.67085714,29.6282198 9.67085714,38.6269011 L9.67085714,54.6673407 L9.67085714,61.6818462 C9.67085714,63.4304176 11.0044835,65.3847033 12.8101978,65.3847033 L39.938989,65.3847033 C41.7429451,65.3847033 43.0774505,63.4304176 43.0774505,61.6818462 L43.0774505,54.6673407 L43.0774505,38.6269011 Z" id="Fill-7" fill="#27377D"></path>
                    <path d="M26.3741538,20.4545934 C24.6255824,20.4545934 23.2075604,19.0365714 23.2075604,17.288 L23.2075604,3.16668132 C23.2075604,1.41810989 24.6255824,8.79120879e-05 26.3741538,8.79120879e-05 C28.1227253,8.79120879e-05 29.5407473,1.41810989 29.5407473,3.16668132 L29.5407473,17.288 C29.5407473,19.0365714 28.1227253,20.4545934 26.3741538,20.4545934" id="Fill-9" fill="#CF1D56"></path>
                    <path d="M13.1512088,21.5101538 C12.3406593,21.5101538 11.5301099,21.2007033 10.9120879,20.5826813 L0.927912088,10.5985055 C-0.309010989,9.36158242 -0.309010989,7.35718681 0.927032967,6.12026374 C2.16395604,4.88334066 4.16923077,4.88421978 5.40527473,6.11938462 L15.3894505,16.1026813 C16.6263736,17.3396044 16.6263736,19.3448791 15.3903297,20.5809231 C14.7723077,21.2007033 13.9617582,21.5101538 13.1512088,21.5101538" id="Fill-11" fill="#CF1D56"></path>
                    <path d="M39.5978901,21.5101538 C38.7873407,21.5101538 37.9767912,21.2007033 37.3587692,20.5826813 C36.1218462,19.3466374 36.1218462,17.3413626 37.3587692,16.1053187 L47.3420659,6.12202198 C48.5781099,4.8850989 50.5842637,4.8850989 51.8194286,6.12202198 C53.0563516,7.35806593 53.0563516,9.36334066 51.8194286,10.5993846 L41.8361319,20.5818022 C41.2181099,21.2007033 40.4075604,21.5101538 39.5978901,21.5101538" id="Fill-13" fill="#CF1D56"></path>
                </g>
            </g>
        </g>
    </g>
</svg>