<?xml version="1.0" encoding="UTF-8"?>
<svg width="79px" height="80px" viewBox="0 0 79 80" version="1.1" xmlns="http://www.w3.org/2000/svg" xmlns:xlink="http://www.w3.org/1999/xlink">
    <!-- Generator: Sketch 50.2 (55047) - http://www.bohemiancoding.com/sketch -->
    <title>Group</title>
    <desc>Created with Sketch.</desc>
    <defs>
        <polygon id="path-1" points="0 0.596589147 29.5428837 0.596589147 29.5428837 30.1391008 0 30.1391008"></polygon>
        <polygon id="path-3" points="0.430821705 0.407348837 26.6908527 0.407348837 26.6908527 26.6664186 0.430821705 26.6664186"></polygon>
    </defs>
    <g id="Page-1" stroke="none" stroke-width="1" fill="none" fill-rule="evenodd">
        <g id="Van" transform="translate(-832.000000, -1595.000000)">
            <g id="servicios-abordo" transform="translate(47.000000, 1507.000000)">
                <g id="Group" transform="translate(785.000000, 88.000000)">
                    <g id="Group-3" transform="translate(0.000000, 0.023566)">
                        <mask id="mask-2" fill="white">
                            <use xlink:href="#path-1"></use>
                        </mask>
                        <g id="Clip-2"></g>
                        <path d="M14.7732713,30.1391008 C14.3528062,30.1391008 13.9329612,29.9778605 13.6111008,29.6597209 L0.479937984,16.5285581 C-0.160062016,15.8885581 -0.160062016,14.847938 0.479937984,14.207938 C1.11993798,13.5673178 2.16117829,13.5673178 2.80117829,14.207938 L14.7732713,26.1763101 L25.5831938,15.3663876 L13.6111008,3.3980155 C12.9711008,2.7580155 12.9711008,1.71677519 13.6111008,1.07677519 C14.2511008,0.436155039 15.2917209,0.436155039 15.9317209,1.07677519 L29.0628837,14.207938 C29.7028837,14.847938 29.7028837,15.8885581 29.0628837,16.5285581 L15.9317209,29.6597209 C15.6135814,29.9778605 15.1931163,30.1391008 14.7732713,30.1391008" id="Fill-1" fill="#27377D" mask="url(#mask-2)"></path>
                    </g>
                    <path d="M47.1212403,35.5659535 L37.2731783,25.7172713 C36.6325581,25.0772713 35.5925581,25.0772713 34.951938,25.7172713 C34.311938,26.3572713 34.311938,27.3985116 34.951938,28.0378915 L27.4244961,35.5659535 C26.7851163,34.9259535 25.743876,34.9259535 25.103876,35.5659535 C24.463876,36.2059535 24.463876,37.2465736 25.103876,37.8865736 L34.951938,47.7346357 C35.2706977,48.0564961 35.6905426,48.2171163 36.1110078,48.2171163 C36.5308527,48.2171163 36.9513178,48.0564961 37.2731783,47.7383566 L47.1212403,37.8896744 C47.7612403,37.2465736 47.7612403,36.2090543 47.1212403,35.5659535" id="Fill-4" fill="#27377D"></path>
                    <path d="M39.8728682,18.4723721 L34.6666667,13.2655504 C32.8086822,11.4075659 29.5621705,11.4075659 27.7035659,13.2655504 L12.7410853,28.2317519 C11.8089922,29.1644651 11.2936434,30.4016744 11.2967442,31.7182636 C11.2967442,33.0286512 11.8089922,34.2627597 12.7379845,35.1917519 C14.2939535,36.7446202 16.3094574,38.815938 17.8493023,40.4010543 C18.7844961,41.3666357 20.0353488,41.8981085 21.3779845,41.8981085 C22.6908527,41.8981085 23.9317829,41.3858605 24.8644961,40.4537674 L39.875969,25.4416744 C40.8049612,24.5058605 41.3172093,23.2686512 41.3172093,21.9551628 C41.3172093,20.6422946 40.8049612,19.4050853 39.8728682,18.4723721" id="Fill-6" fill="#27377D"></path>
                    <g id="Group-10" transform="translate(52.093023, 52.736744)">
                        <mask id="mask-4" fill="white">
                            <use xlink:href="#path-3"></use>
                        </mask>
                        <g id="Clip-9"></g>
                        <path d="M11.9210543,26.6664186 C11.5012093,26.6664186 11.0807442,26.5057984 10.7588837,26.1876589 L0.910821705,16.3395969 C0.270821705,15.6989767 0.270821705,14.6583566 0.910821705,14.0177364 L14.0413643,0.887813953 C14.6819845,0.247193798 15.7226047,0.247193798 16.3626047,0.887813953 L26.2106667,10.735876 C26.8512868,11.375876 26.8512868,12.415876 26.2106667,13.0564961 C25.5706667,13.6964961 24.5300465,13.6964961 23.8900465,13.0564961 L15.2035349,4.36688372 L4.3936124,15.1774264 L13.080124,23.8626977 C13.720124,24.5033178 13.720124,25.543938 13.080124,26.1845581 C12.7613643,26.5057984 12.3415194,26.6664186 11.9210543,26.6664186" id="Fill-8" fill="#27377D" mask="url(#mask-4)"></path>
                    </g>
                    <path d="M68.8233178,54.1755039 C68.7284341,53.9324031 68.5771163,53.7227907 68.3935504,53.5584496 C67.8316899,52.8328682 65.1991318,48.772093 59.3690543,39.3637209 C57.7740155,36.7900775 53.863938,36.3472868 51.7138605,38.4973643 L37.844093,52.3665116 C36.7836279,53.4269767 36.2682791,54.8911628 36.4326202,56.3851163 C36.5969612,57.8784496 37.4174264,59.1950388 38.6844031,60.0055814 L53.2859535,69.2992248 C53.5551008,69.4728682 53.8608372,69.5553488 54.1659535,69.5553488 C54.5895194,69.5553488 55.0099845,69.3910078 55.328124,69.075969 L68.4592868,55.9454264 C68.9219225,55.4790698 69.0664186,54.7857364 68.8233178,54.1755039" id="Fill-11" fill="#27377D"></path>
                    <path d="M47.6006202,23.5970853 C46.6945736,23.5970853 45.9590698,22.8609612 45.9590698,21.9555349 L45.9590698,18.6730543 C45.9590698,17.7670078 46.6945736,17.0315039 47.6006202,17.0315039 C48.5066667,17.0315039 49.2415504,17.7670078 49.2415504,18.6730543 L49.2415504,21.9555349 C49.2415504,22.8609612 48.5066667,23.5970853 47.6006202,23.5970853" id="Fill-13" fill="#CF1D56"></path>
                    <path d="M60.7313488,33.4450853 L57.4488682,33.4450853 C56.5428217,33.4450853 55.8073178,32.7095814 55.8073178,31.804155 C55.8073178,30.8981085 56.5428217,30.1626047 57.4488682,30.1626047 L60.7313488,30.1626047 C61.6373953,30.1626047 62.3728992,30.8981085 62.3728992,31.804155 C62.3728992,32.7095814 61.6373953,33.4450853 60.7313488,33.4450853" id="Fill-15" fill="#CF1D56"></path>
                    <path d="M54.1661395,26.8795659 C53.7456744,26.8795659 53.3258295,26.7183256 53.003969,26.4008062 C52.363969,25.760186 52.363969,24.7195659 53.003969,24.0789457 L56.2864496,20.7964651 C56.9270698,20.1564651 57.9670698,20.1564651 58.6076899,20.7964651 C59.2476899,21.4370853 59.2476899,22.4770853 58.6076899,23.1177054 L55.3245891,26.4008062 C55.0064496,26.7183256 54.5859845,26.8795659 54.1661395,26.8795659" id="Fill-17" fill="#CF1D56"></path>
                    <path d="M31.1867907,62.9897054 C30.2807442,62.9897054 29.5458605,62.2542016 29.5458605,61.3487752 L29.5458605,58.0656744 C29.5458605,57.1596279 30.2807442,56.424124 31.1867907,56.424124 C32.0928372,56.424124 32.8283411,57.1596279 32.8283411,58.0656744 L32.8283411,61.3487752 C32.8283411,62.2542016 32.0928372,62.9897054 31.1867907,62.9897054" id="Fill-19" fill="#CF1D56"></path>
                    <path d="M21.3384806,49.8586047 L18.056,49.8586047 C17.1499535,49.8586047 16.4144496,49.1231008 16.4144496,48.2176744 C16.4144496,47.3116279 17.1499535,46.576124 18.056,46.576124 L21.3384806,46.576124 C22.2445271,46.576124 22.980031,47.3116279 22.980031,48.2176744 C22.980031,49.1231008 22.2445271,49.8586047 21.3384806,49.8586047" id="Fill-21" fill="#CF1D56"></path>
                    <path d="M21.3384806,59.7072248 C20.9186357,59.7072248 20.4981705,59.5459845 20.1763101,59.227845 C19.5363101,58.5872248 19.5363101,57.5472248 20.1763101,56.9066047 L23.4594109,53.624124 C24.0994109,52.984124 25.140031,52.984124 25.780031,53.624124 C26.420031,54.2647442 26.420031,55.3047442 25.780031,55.9453643 L22.4975504,59.227845 C22.1787907,59.5459845 21.7589457,59.7072248 21.3384806,59.7072248" id="Fill-23" fill="#CF1D56"></path>
                    <path d="M32.3489612,23.1174574 L22.5008992,32.9661395 C22.1790388,33.2842791 21.7585736,33.4448992 21.3387287,33.4448992 C20.9182636,33.4448992 20.4984186,33.2842791 20.1765581,32.9661395 C19.5365581,32.3261395 19.5365581,31.2848992 20.1765581,30.6448992 L30.0246202,20.7968372 C30.6646202,20.1568372 31.7052403,20.1568372 32.3458605,20.7968372 C32.9858605,21.4368372 32.9889612,22.4743566 32.3489612,23.1174574" id="Fill-25" fill="#CF1D56"></path>
                    <path d="M58.6107907,49.3795969 L48.7627287,59.2276589 C48.4408682,59.5464186 48.0204031,59.7070388 47.6005581,59.7070388 C47.180093,59.7070388 46.7602481,59.5464186 46.4383876,59.2276589 C45.7983876,58.5876589 45.7983876,57.5470388 46.4383876,56.9070388 L56.2864496,47.0589767 C56.9270698,46.4189767 57.9670698,46.4189767 58.6076899,47.0589767 C59.2476899,47.6989767 59.2507907,48.735876 58.6107907,49.3795969" id="Fill-27" fill="#CF1D56"></path>
                </g>
            </g>
        </g>
    </g>
</svg>