<?xml version="1.0" encoding="UTF-8"?>
<svg width="32px" height="32px" viewBox="0 0 32 32" version="1.1" xmlns="http://www.w3.org/2000/svg" xmlns:xlink="http://www.w3.org/1999/xlink">
    <!-- Generator: Sketch 50.2 (55047) - http://www.bohemiancoding.com/sketch -->
    <title>facebook copy</title>
    <desc>Created with Sketch.</desc>
    <defs></defs>
    <g id="Page-1" stroke="none" stroke-width="1" fill="none" fill-rule="evenodd">
        <g id="Sobre-Nosotros" transform="translate(-127.000000, -2354.000000)">
            <g id="Group-2" transform="translate(127.000000, 2191.000000)">
                <g id="facebook-copy" transform="translate(0.000000, 163.000000)">
                    <rect id="Rectangle-7-Copy" stroke="#D01D56" x="0.5" y="0.5" width="31" height="31" rx="15.5"></rect>
                    <path d="M13.2891793,7.83695833 C13.8093486,8.50574741 14.0322783,8.8772969 14.4781377,9.54608598 C14.998307,10.289185 14.8496872,11.3295235 14.1065882,11.8496928 L12.84332,12.7414116 C11.2828121,13.85606 16.7074346,21.5842894 18.3422524,20.4696409 L19.6055206,19.5779222 C20.3486196,19.0577529 21.3889582,19.2063727 21.9091275,19.9494716 C22.3549868,20.6182607 22.6522264,20.9898102 23.0980858,21.6585993 C23.6182551,22.4016983 23.6182551,23.7392764 22.8751561,24.2594457 C16.5588148,28.7180396 4.37199162,11.7753829 10.8369527,7.24247915 C11.5800517,6.72230987 12.7690101,7.09385935 13.2891793,7.83695833" id="Fill-1" fill="#27387E"></path>
                </g>
            </g>
        </g>
    </g>
</svg>