<?xml version="1.0" encoding="UTF-8"?>
<svg width="157px" height="157px" viewBox="0 0 157 157" version="1.1" xmlns="http://www.w3.org/2000/svg" xmlns:xlink="http://www.w3.org/1999/xlink">
    <!-- Generator: Sketch 50.2 (55047) - http://www.bohemiancoding.com/sketch -->
    <title>trofeo copy 2</title>
    <desc>Created with Sketch.</desc>
    <defs></defs>
    <g id="Page-1" stroke="none" stroke-width="1" fill="none" fill-rule="evenodd">
        <g id="Sobre-Nosotros" transform="translate(-761.000000, -1334.000000)">
            <g id="Reconocimientos" transform="translate(45.000000, 1252.000000)">
                <g id="trofeo-copy-2" transform="translate(716.000000, 82.000000)">
                    <path d="M157,78.5 C157,101.942359 146.724289,122.984935 130.431252,137.368151 C127.334245,140.102649 124.02005,142.596137 120.518049,144.81963 C116.9553,147.081636 113.197995,149.064118 109.276707,150.736501 C99.826468,154.768567 89.4237002,157 78.5,157 C35.1458699,157 0,121.85413 0,78.5 C0,35.1458699 35.1458699,0 78.5,0 C121.85413,0 157,35.1458699 157,78.5" id="Fill-1" fill="#D01D56"></path>
                    <g id="Group-44" transform="translate(35.262032, 8.395722)">
                        <path d="M88.1328107,20.4135525 C88.1328107,20.4135525 87.802985,49.5998765 61.5320948,59.2761737 C59.318909,60.0917296 56.9222524,60.7682023 54.3260137,61.2778704 L55.1836163,54.5284074 C55.1836163,54.5284074 60.3594652,54.4838391 66.2546373,51.2125202 C72.7636726,47.6086991 80.1497635,40.0829099 82.4450974,24.3717052 C82.4450974,24.3717052 83.014008,21.0441916 78.8271589,20.7525403 L69.430607,20.7233554 L69.2607414,15.5450129 L84.4265579,15.5921121 C84.4265579,15.5921121 88.1450235,16.5292717 88.1328107,20.4135525" id="Fill-4" fill="#FFC428"></path>
                        <path d="M55.1836242,54.5283995 C55.1836242,54.5283995 60.3594731,54.4838312 66.2546452,51.2125519 C64.9093653,54.0996029 63.3451298,56.8264138 61.532063,59.2761658 C59.3188772,60.0917217 56.9222206,60.7681944 54.3259819,61.2778624 L55.1836242,54.5283995 Z" id="Fill-6" fill="#1F191A"></path>
                        <path d="M74.3512159,15.5608313 C74.2426929,17.1257035 74.0935931,18.868216 73.8944883,20.737236 L69.430603,20.7233554 L69.2607374,15.5450129 L74.3512159,15.5608313 Z" id="Fill-8" fill="#1F191A"></path>
                        <path d="M33.5770289,61.2134579 C30.251283,60.5402279 27.2541694,59.5914418 24.5545394,58.4305709 C0.166651292,47.9524403 0.0278149964,20.1400608 0.0278149964,20.1400608 C0.0399880355,16.2557799 3.7640628,15.3417151 3.7640628,15.3417151 L18.9298793,15.3887748 L18.7273931,20.5659705 L9.33096064,20.5367856 C5.1419633,20.8024552 5.690307,24.1334489 5.690307,24.1334489 C7.68405984,38.4193785 13.9268796,45.9779909 19.9147418,49.9724467 C26.4906096,54.3647347 32.7617137,54.4588144 32.7617137,54.4588144 L33.5770289,61.2134579 Z" id="Fill-10" fill="#FFC428"></path>
                        <path d="M18.9298992,15.3887946 L18.727413,20.5659903 L12.9556024,20.548076 C12.768233,18.6778696 12.6298741,16.9344475 12.531177,15.3689425 L18.9298992,15.3887946 Z" id="Fill-12" fill="#1F191A"></path>
                        <path d="M33.5770289,61.2134579 C30.251283,60.5402279 27.2541694,59.5914418 24.5545394,58.4305709 C22.7575045,55.8479445 21.222707,52.9847001 19.9147418,49.9724467 C26.4906096,54.3647347 32.7617137,54.4588144 32.7617137,54.4588144 L33.5770289,61.2134579 Z" id="Fill-14" fill="#1F191A"></path>
                        <path d="M48.9530849,68.151816 L48.0138116,68.9434861 C46.8362093,69.93601 45.3280255,70.4552481 43.7851922,70.3993302 L42.835735,70.3649252 C41.4988886,70.316521 40.2137976,69.8388456 39.1729232,69.0035564 L38.069473,68.1180438 C14.2423005,56.1141124 15.0952885,7.14485511 15.0952885,7.14485511 C15.1052735,3.95456586 18.873943,3.13335496 18.873943,3.13335496 L68.5547012,3.28758411 C68.5547012,3.28758411 72.3199097,4.13216666 72.3098848,7.3224559 C72.3098848,7.3224559 72.8552051,56.2960632 48.9530849,68.151816" id="Fill-16" fill="#FFD546"></path>
                        <path d="M55.5472321,48.8656548 C55.6942633,45.8711575 55.0505244,45.2089213 52.0352706,45.2556646 C55.0505244,45.2089213 55.7606581,44.5257652 55.9084849,41.5315052 C55.7606581,44.5257652 56.4048346,45.1880806 59.4203271,45.1417327 C56.4048346,45.1880806 55.6942633,45.8711575 55.5472321,48.8656548" id="Fill-18" fill="#FFEBA7"></path>
                        <path d="M51.8909564,49.6569413 C51.9515829,48.4222777 51.6861629,48.149213 50.4429217,48.1684719 C51.6861629,48.149213 51.9789523,47.8675273 52.0398971,46.6329427 C51.9789523,47.8675273 52.2445315,48.140592 53.487892,48.1214913 C52.2445315,48.140592 51.9515829,48.4222777 51.8909564,49.6569413" id="Fill-20" fill="#FFEBA7"></path>
                        <path d="M71.6746909,11.5630338 L15.7038131,11.3893085 C13.8101099,11.3834161 12.2655263,9.83835645 12.2714537,7.95585129 L12.2856954,3.42610166 C12.291583,1.5435965 13.8458334,0.0081464627 15.7395366,0.0140388071 L71.7104143,0.187764101 C73.6041573,0.193656446 75.1487012,1.73871614 75.1427738,3.62122131 L75.1285719,8.15097093 C75.1226445,10.0334761 73.568394,11.5689261 71.6746909,11.5630338" id="Fill-22" fill="#FFBE1D"></path>
                        <polygon id="Fill-24" fill="#FFD546" points="47.0811142 124.482917 39.5874948 124.459664 39.7751823 64.7168679 47.268762 64.7401605"></polygon>
                        <polygon id="Fill-26" fill="#8F4E2B" points="67.2737991 138.491804 19.3072117 138.342913 19.3868934 112.972535 67.3534808 113.121425"></polygon>
                        <polygon id="Fill-28" fill="#7F4326" points="70.5036723 138.501832 16.0773384 138.332892 16.090148 134.256339 70.5164819 134.425279"></polygon>
                        <polygon id="Fill-30" fill="#FFEBA7" points="58.3019033 130.763365 28.3275052 130.670314 28.3657349 118.48973 58.3401728 118.582782"></polygon>
                        <polygon id="Fill-32" fill="#FFBE1D" points="55.3559006 113.084177 31.3561176 113.009672 31.365307 110.091617 55.3650502 110.166122"></polygon>
                        <path d="M39.672897,95.0187314 C39.672897,95.0187314 40.5297437,110.120059 32.646229,110.095619 L43.3651866,110.128877 L43.4126058,95.0289738 L39.672897,95.0187314 Z" id="Fill-34" fill="#FFD546"></path>
                        <path d="M47.1598928,95.0419686 C47.1598928,95.0419686 46.2157265,110.13772 54.0992412,110.162199 L43.3651667,110.128862 L43.4126256,95.0289579 L47.1598928,95.0419686 Z" id="Fill-36" fill="#FFD546"></path>
                        <path d="M69.2982909,3.5893631 C66.2687158,5.4409038 66.0046484,6.53403254 67.8584113,9.55051741 C66.0046484,6.53403254 64.9078814,6.27279209 61.8780677,8.12342323 C64.9078814,6.27279209 65.1719091,5.17926789 63.3183451,2.16238757 C65.1719091,5.17926789 66.2687158,5.4409038 69.2982909,3.5893631" id="Fill-38" fill="#FFEBA7"></path>
                        <path d="M59.9842491,2.27886221 C60.0670735,3.74463231 60.4167103,4.05629382 61.8910801,3.9781906 C60.4167103,4.05629382 60.1042292,4.40315122 60.1866558,5.86872359 C60.1042292,4.40315122 59.7543935,4.09141061 58.279785,4.16931611 C59.7543935,4.09141061 60.0670735,3.74463231 59.9842491,2.27886221" id="Fill-40" fill="#FFEBA7"></path>
                        <path d="M33.2447845,11.4437395 C33.2447845,11.4437395 23.4139416,51.4738358 46.3276985,69.6699094 C46.3276985,69.6699094 25.1601362,59.4902319 22.9618285,28.9782491 C22.9618285,28.9782491 22.3862347,18.3906158 24.2976008,11.4159783 L33.2447845,11.4437395 Z" id="Fill-42" fill="#FFEBA7"></path>
                    </g>
                </g>
            </g>
        </g>
    </g>
</svg>