<?xml version="1.0" encoding="UTF-8"?>
<svg width="77px" height="101px" viewBox="0 0 77 101" version="1.1" xmlns="http://www.w3.org/2000/svg" xmlns:xlink="http://www.w3.org/1999/xlink">
    <!-- Generator: Sketch 50.2 (55047) - http://www.bohemiancoding.com/sketch -->
    <title>Shape</title>
    <desc>Created with Sketch.</desc>
    <defs></defs>
    <g id="Page-1" stroke="none" stroke-width="1" fill="none" fill-rule="evenodd">
        <path d="M58,81 L59.5,81 C60.3265,81 61,81.6735 61,82.5 C61,83.3265 60.3265,84 59.5,84 L58,84 L58,81 Z M61,1 L61,16 L76,16 L61,1 Z M77,19.1551724 L77,99.2586207 C77,100.219862 76.216,101 75.25,101 L1.75,101 C0.784,101 0,100.219862 0,99.2586207 L0,1.74137931 C0,0.780137931 0.784,0 1.75,0 L57.75,0 L57.75,17.4137931 C57.75,18.3750345 58.534,19.1551724 59.5,19.1551724 L77,19.1551724 Z M45,78.5 C45,77.672 44.2094118,77 43.2352941,77 L16.7647059,77 C15.7905882,77 15,77.672 15,78.5 C15,79.328 15.7905882,80 16.7647059,80 L43.2352941,80 C44.2094118,80 45,79.328 45,78.5 Z M57.8,76.2857143 L57.8,72.8571429 L63.2,72.8571429 C64.1936,72.8571429 65,72.0891429 65,71.1428571 C65,70.1965714 64.1936,69.4285714 63.2,69.4285714 L57.8,69.4285714 L57.8,67.7142857 C57.8,66.768 56.9936,66 56,66 C55.0064,66 54.2,66.768 54.2,67.7142857 L54.2,69.4285714 L52.4,69.4285714 C49.4228,69.4285714 47,71.736 47,74.5714286 C47,77.4068571 49.4228,79.7142857 52.4,79.7142857 L54.2,79.7142857 L54.2,83.1428571 L48.8,83.1428571 C47.8064,83.1428571 47,83.9108571 47,84.8571429 C47,85.8034286 47.8064,86.5714286 48.8,86.5714286 L54.2,86.5714286 L54.2,88.2857143 C54.2,89.232 55.0064,90 56,90 C56.9936,90 57.8,89.232 57.8,88.2857143 L57.8,86.5714286 L59.6,86.5714286 C62.5772,86.5714286 65,84.264 65,81.4285714 C65,78.5931429 62.5772,76.2857143 59.6,76.2857143 L57.8,76.2857143 Z M66,60.5 C66,59.672 65.2121379,59 64.2413793,59 L16.7586207,59 C15.7878621,59 15,59.672 15,60.5 C15,61.328 15.7878621,62 16.7586207,62 L64.2413793,62 C65.2121379,62 66,61.328 66,60.5 Z M66,43.5 C66,42.672 65.2121379,42 64.2413793,42 L16.7586207,42 C15.7878621,42 15,42.672 15,43.5 C15,44.328 15.7878621,45 16.7586207,45 L64.2413793,45 C65.2121379,45 66,44.328 66,43.5 Z M66,25.5 C66,24.672 65.2121379,24 64.2413793,24 L16.7586207,24 C15.7878621,24 15,24.672 15,25.5 C15,26.328 15.7878621,27 16.7586207,27 L64.2413793,27 C65.2121379,27 66,26.328 66,25.5 Z M51,75.5 C51,76.3265 51.6735,77 52.5,77 L54,77 L54,74 L52.5,74 C51.6735,74 51,74.6735 51,75.5 Z" id="Shape" fill="#FFFFFF" fill-rule="nonzero"></path>
    </g>
</svg>