<?xml version="1.0" encoding="UTF-8"?>
<svg width="32px" height="32px" viewBox="0 0 32 32" version="1.1" xmlns="http://www.w3.org/2000/svg" xmlns:xlink="http://www.w3.org/1999/xlink">
    <!-- Generator: Sketch 50.2 (55047) - http://www.bohemiancoding.com/sketch -->
    <title>twitter</title>
    <desc>Created with Sketch.</desc>
    <defs></defs>
    <g id="Page-1" stroke="none" stroke-width="1" fill="none" fill-rule="evenodd">
        <g id="Sobre-Nosotros" transform="translate(-687.000000, -2277.000000)">
            <g id="info-redes-tel" transform="translate(687.000000, 2234.000000)">
                <g id="twitter" transform="translate(0.000000, 43.000000)">
                    <rect id="Rectangle-7-Copy-2" stroke="#D01D56" x="0.5" y="0.5" width="31" height="31" rx="15.5"></rect>
                    <path d="M25,10.7316129 C24.3376442,11.0253752 23.6258557,11.2237356 22.879013,11.3131552 C23.6413886,10.8560867 24.2270241,10.1324385 24.5027346,9.27004303 C23.7890569,9.6932119 22.9988688,10.0005131 22.1575688,10.1661283 C21.4839831,9.44835749 20.5241916,9 19.4620713,9 C17.4227374,9 15.7691043,10.6534232 15.7691043,12.6927571 C15.7691043,12.9822164 15.8017445,13.264119 15.8647161,13.534372 C12.7955873,13.3804065 10.0745863,11.9101256 8.253134,9.67589472 C7.93523259,10.2213334 7.75313983,10.8556669 7.75313983,11.5324012 C7.75313983,12.8136625 8.40510536,13.943897 9.39596282,14.6061479 C8.79059625,14.5869416 8.22122841,14.4208016 7.72333329,14.1443565 C7.72291348,14.1596795 7.72291348,14.1752125 7.72291348,14.1907455 C7.72291348,15.9799774 8.99588353,17.4724033 10.6852005,17.8119249 C10.3753805,17.8963068 10.0490828,17.9413315 9.71228995,17.9413315 C9.47436241,17.9413315 9.24304689,17.9182419 9.01750376,17.8751064 C9.48748149,19.3422388 10.8512355,20.4099215 12.4672956,20.4396231 C11.2034564,21.4301657 9.6112206,22.020629 7.88097209,22.020629 C7.58280177,22.020629 7.2889345,22.002997 7,21.9688874 C8.63432183,23.0167341 10.5754201,23.628083 12.6609331,23.628083 C19.4534652,23.628083 23.1680524,18.0010495 23.1680524,13.1209637 C23.1680524,12.960806 23.164484,12.8015929 23.1572423,12.6431145 C23.8786865,12.1225496 24.5047287,11.4721584 24.999895,10.7316129 L25,10.7316129 Z" id="Fill-1" fill="#27387E"></path>
                </g>
            </g>
        </g>
    </g>
</svg>