<?xml version="1.0" encoding="UTF-8"?>
<svg width="35px" height="35px" viewBox="0 0 35 35" version="1.1" xmlns="http://www.w3.org/2000/svg" xmlns:xlink="http://www.w3.org/1999/xlink">
    <!-- Generator: Sketch 50.2 (55047) - http://www.bohemiancoding.com/sketch -->
    <title>twitter</title>
    <desc>Created with Sketch.</desc>
    <defs></defs>
    <g id="Symbols" stroke="none" stroke-width="1" fill="none" fill-rule="evenodd">
        <g id="footer" transform="translate(-933.000000, -163.000000)">
            <g id="redes-sociales" transform="translate(757.000000, 163.000000)">
                <g id="twitter" transform="translate(176.000000, 0.000000)">
                    <rect id="Rectangle-7-Copy-2" stroke="#FFFFFF" x="0.5" y="0.5" width="34" height="34" rx="17"></rect>
                    <path d="M27.34375,11.7377016 C26.6192983,12.0590041 25.8407796,12.2759608 25.0239204,12.3737635 C25.8577688,11.8738448 26.4983076,11.0823546 26.799866,10.1391096 C26.019281,10.6019505 25.1550128,10.9380612 24.2348409,11.1192028 C23.4981065,10.334141 22.4483345,9.84375 21.2866405,9.84375 C19.056119,9.84375 17.2474578,11.6521816 17.2474578,13.8827031 C17.2474578,14.1992991 17.2831581,14.5076302 17.3520332,14.8032193 C13.9951736,14.6348196 11.0190788,13.0266999 9.02686531,10.5830099 C8.67916064,11.1795834 8.47999669,11.8733856 8.47999669,12.6135638 C8.47999669,14.0149434 9.19308399,15.2511374 10.2768343,15.9754743 C9.61471465,15.9544673 8.99196858,15.7727518 8.44739579,15.4703899 C8.44693662,15.4871495 8.44693662,15.5041387 8.44693662,15.5211279 C8.44693662,17.4781003 9.83924761,19.1104411 11.6869381,19.4817929 C11.3480724,19.5740856 10.9911843,19.6233313 10.6228171,19.6233313 C10.3625839,19.6233313 10.1095825,19.5980771 9.86289474,19.5508976 C10.3769329,21.1555736 11.8685389,22.3233517 13.6361046,22.3558378 C12.2537805,23.4392437 10.5122725,24.085063 8.61981323,24.085063 C8.29368943,24.085063 7.97227211,24.0657779 7.65625,24.0284706 C9.4437895,25.1745529 11.5668657,25.8432158 13.8478956,25.8432158 C21.2772275,25.8432158 25.3400573,19.6886479 25.3400573,14.351054 C25.3400573,14.1758816 25.3361544,14.0017423 25.3282338,13.8284065 C26.1173133,13.2590387 26.802047,12.5476733 27.3436352,11.7377016 L27.34375,11.7377016 Z" id="Fill-1" fill="#FFFFFF"></path>
                </g>
            </g>
        </g>
    </g>
</svg>