<?xml version="1.0" encoding="UTF-8"?>
<svg width="64px" height="64px" viewBox="0 0 64 64" version="1.1" xmlns="http://www.w3.org/2000/svg" xmlns:xlink="http://www.w3.org/1999/xlink">
    <!-- Generator: Sketch 50.2 (55047) - http://www.bohemiancoding.com/sketch -->
    <title>Group 7</title>
    <desc>Created with Sketch.</desc>
    <defs></defs>
    <g id="Page-1" stroke="none" stroke-width="1" fill="none" fill-rule="evenodd">
        <g id="Restricciones-de-enviÌo" transform="translate(-501.000000, -938.000000)">
            <g id="Group-7" transform="translate(501.000000, 938.000000)">
                <circle id="Oval-2-Copy-5" fill="#27387E" cx="32" cy="32" r="32"></circle>
                <g id="licores" transform="translate(16.842105, 10.105263)" fill="#FFFFFF" fill-rule="nonzero">
                    <path d="M9.45342687,12.7016296 C8.45878059,11.8431813 7.86479904,10.4913216 7.86479904,9.08488109 L7.86479904,1.36015595 C7.86479904,0.610432749 7.32031595,0 6.65072258,0 L4.83175151,0 C4.16254788,0 3.6180648,0.610432749 3.6180648,1.36015595 L3.6180648,9.08531774 C3.6180648,10.4917583 3.02447299,11.8436179 2.02982672,12.7020663 C0.75884651,13.7980507 0,15.5254269 0,17.3226667 L0,37.0595556 C1.38467611e-15,38.2939571 0.896818603,39.2982456 1.99903634,39.2982456 L9.48421725,39.2982456 C10.586435,39.2982456 11.4832536,38.2939571 11.4832536,37.0591189 L11.4832536,17.32223 C11.4828638,15.5249903 10.7240173,13.797614 9.45342687,12.7016296 Z M4.83175151,1.26758674 L6.65072258,1.26758674 C6.69632352,1.26758674 6.73334993,1.30906823 6.73334993,1.36015595 L6.73334993,6.8662768 L4.74951391,6.8662768 L4.74951391,1.36015595 C4.74951391,1.30906823 4.78654032,1.26758674 4.83175151,1.26758674 Z M10.3514147,29.0959844 L1.13144911,29.0959844 L1.13144911,19.8408109 L10.3514147,19.8408109 L10.3514147,29.0959844 Z M9.4838275,38.0306589 L1.99903634,38.0306589 C1.52081103,38.0306589 1.13144911,37.594885 1.13144911,37.0591189 L1.13144911,30.3635712 L10.3514147,30.3635712 L10.3514147,37.0591189 C10.3514147,37.594885 9.9620528,38.0306589 9.4838275,38.0306589 Z M10.3514147,18.5727875 L1.13144911,18.5727875 L1.13144911,17.32223 C1.13144911,15.9157895 1.72504091,14.5639298 2.72007694,13.7059181 C3.9906674,12.6094971 4.74951391,10.8816842 4.74951391,9.08488109 L4.74951391,8.13386355 L6.73334993,8.13386355 L6.73334993,9.08488109 C6.73334993,10.8816842 7.49180669,12.6094971 8.7627869,13.7059181 C9.75743317,14.5639298 10.3514147,15.9157895 10.3514147,17.32223 L10.3514147,18.5727875 Z" id="Shape"></path>
                    <path d="M26.5994186,26.3158327 C27.2234608,25.617844 27.6570182,24.7456896 27.8852883,23.8072286 C27.9102188,23.7435741 27.9261899,23.6785936 27.932033,23.6118448 C28.0742149,22.9333061 28.1112212,22.2242663 28.0216271,21.5192049 L27.1868441,14.9592604 C27.1517855,14.6825404 26.9655857,14.4743373 26.7365365,14.4235022 L26.731083,14.422176 L26.6344772,14.4111249 L26.6208433,14.4093567 L19.3150313,14.4093567 L19.3060719,14.4106829 L19.2273849,14.4195238 L19.1919368,14.4257124 L19.1303896,14.4473726 L19.0836449,14.4668225 L19.04547,14.4902509 L18.9850914,14.5322452 L18.9695098,14.5463906 C18.8468049,14.6551336 18.7657807,14.8182481 18.7540945,15.0052331 L17.914637,21.599657 C17.6949368,23.3253998 18.1803029,25.035229 19.2530945,26.2999191 L22.4025208,29.8769454 L22.4025208,38.0145476 L19.490324,38.0145476 C19.1779134,38.0145476 18.9247128,38.3018767 18.9247128,38.6563966 C18.9247128,39.0104745 19.1779134,39.2982456 19.490324,39.2982456 L26.4455506,39.2982456 C26.7579612,39.2982456 27.0111618,39.0109165 27.0111618,38.6563966 C27.0111618,38.3023187 26.7579612,38.0145476 26.4455506,38.0145476 L23.5337433,38.0145476 L23.5337433,29.8725249 L26.5994186,26.3158327 Z M19.0337838,21.7831056 L19.8085777,15.6930547 L26.1378144,15.6930547 L26.9024803,21.7026534 C26.9702602,22.2366435 26.9445506,22.7737279 26.8393749,23.2891521 C26.0984709,24.5114059 24.5613483,24.8690201 23.4293467,24.0596362 L23.1434248,23.8549694 C21.965068,23.011548 20.4209337,23.0526582 19.2285535,23.8850285 C19.0150859,23.2232875 18.941463,22.5062908 19.0337838,21.7831056 Z M19.7684552,25.0144529 C20.6075231,24.393822 21.7087511,24.3451971 22.5400282,24.9401893 L22.8259502,25.1448561 C23.4359689,25.5815963 24.1157152,25.7897994 24.7861126,25.7897994 C25.0459354,25.7897994 25.3030314,25.7522256 25.555453,25.6912234 L22.9634576,28.698454 L20.0598307,25.4016841 C19.9558237,25.2779116 19.8584388,25.1483924 19.7684552,25.0144529 Z" id="Shape"></path>
                </g>
            </g>
        </g>
    </g>
</svg>