<?xml version="1.0" encoding="UTF-8"?>
<svg width="81px" height="25px" viewBox="0 0 81 25" version="1.1" xmlns="http://www.w3.org/2000/svg" xmlns:xlink="http://www.w3.org/1999/xlink">
    <!-- Generator: Sketch 50.2 (55047) - http://www.bohemiancoding.com/sketch -->
    <title>Visa</title>
    <desc>Created with Sketch.</desc>
    <defs></defs>
    <g id="Page-1" stroke="none" stroke-width="1" fill="none" fill-rule="evenodd">
        <g id="Index-Transp-Copy-2" transform="translate(-545.000000, -960.000000)">
            <g id="compra-segura-copy-2" transform="translate(195.000000, 960.000000)">
                <g id="Visa" transform="translate(350.000000, 0.000000)">
                    <g id="registered" transform="translate(77.823529, 21.354167)" fill="#0161AB">
                        <path d="M0.204564706,1.42 C0.204564706,0.714375 0.785858824,0.1425 1.50247059,0.1425 C2.22035294,0.1425 2.80037647,0.714375 2.80037647,1.42 C2.80037647,2.125 2.22035294,2.6975 1.50247059,2.6975 C0.785858824,2.6975 0.204564706,2.125 0.204564706,1.42 L0.204564706,1.42 Z M1.50247059,2.39 C2.04882353,2.39 2.48971765,1.955625 2.48971765,1.42 C2.48971765,0.8825 2.04882353,0.449375 1.50247059,0.449375 C0.958658824,0.449375 0.517129412,0.8825 0.517129412,1.42 C0.517129412,1.955625 0.958658824,2.39 1.50247059,2.39 L1.50247059,2.39 Z M1.32776471,1.98 L1.06221176,1.98 L1.06221176,0.858125 L1.54376471,0.858125 C1.64414118,0.858125 1.74578824,0.859375 1.83472941,0.914375 C1.92684706,0.978125 1.97894118,1.08375 1.97894118,1.195 C1.97894118,1.323125 1.90461176,1.441875 1.78263529,1.485625 L1.99101176,1.98 L1.6956,1.98 L1.5228,1.535625 L1.32776471,1.535625 L1.32776471,1.98 L1.32776471,1.98 Z M1.32776471,1.34375 L1.47388235,1.34375 C1.52915294,1.34375 1.58823529,1.34875 1.63651765,1.323125 C1.68035294,1.295 1.70322353,1.2425 1.70322353,1.1925 C1.70322353,1.15125 1.67654118,1.10125 1.63905882,1.079375 C1.59204706,1.0525 1.51835294,1.058125 1.4688,1.058125 L1.32776471,1.058125 L1.32776471,1.34375 L1.32776471,1.34375 Z"></path>
                    </g>
                    <path d="M71.6211989,24.1316106 L70.8859714,20.6310096 L62.9090596,20.6310096 L61.6014195,24.1316106 L55.062195,24.1316106 L64.4184265,2.31570513 C64.4184265,2.31570513 64.986743,0.559895833 67.3163289,0.559895833 L72.3594985,0.559895833 L77.3821881,24.1316106 L71.6211989,24.1316106 Z M64.7174327,15.7942708 L69.8691455,15.7942708 L68.0136687,6.97115385 L64.7174327,15.7942708 Z" id="a" fill="#0066B2"></path>
                    <path d="M55.5516641,6.22796474 L56.4476587,1.16586538 C56.4476587,1.16586538 53.6838994,0.138221154 50.8044288,0.138221154 C47.6904636,0.138221154 40.2962043,1.46935096 40.2962043,7.94170673 C40.2962043,14.0324519 48.9755759,14.1085737 48.9755759,17.3046875 C48.9755759,20.5028045 41.1911749,19.931891 38.6209505,17.9146635 L37.6891161,23.2061298 C37.6891161,23.2061298 40.4897392,24.5382612 44.7720813,24.5382612 C49.0523754,24.5382612 55.5137763,22.3687901 55.5137763,16.4683494 C55.5137763,10.3395433 46.7565813,9.76762821 46.7565813,7.10336538 C46.7565813,4.43810096 52.8677763,4.78064904 55.5516641,6.22796474" id="s" fill="#0066B2"></path>
                    <polyline id="i" fill="#0066B2" points="33.8225155 24.1316106 27.5485054 24.1316106 31.4693777 0.559895833 37.7454358 0.559895833 33.8225155 24.1316106"></polyline>
                    <path d="M5.54851045,0.559895833 L0.604156347,0.559895833 L0.488445046,0.958533654 C0.48946904,0.958533654 5.2428483,1.92207532 9.80166873,5.53084936 C14.1593032,8.98117845 15.579084,13.2792784 15.5800653,13.2822501 L15.5800658,13.28125 L16.2886695,16.7728365 L22.2698173,0.559895833 L29.0230565,0.559895833 L19.0401409,24.1316106 L12.5029644,24.1316106 L7.05326935,3.65284455 C3.51332276,1.57351763 0.48946904,0.958533654 0.488445046,0.958533654 L0.604156347,0.559895833 L5.54851045,0.559895833 Z M15.5800654,13.2822503 C15.5800654,13.2822503 15.5800653,13.2822503 15.5800653,13.2822502 L15.5800658,13.2821264 Z" id="v" fill="#0066B2"></path>
                    <path d="M15.5800658,13.2822516 L13.4685906,2.68229167 C13.4685906,2.68229167 13.2146401,0.559895833 10.4928646,0.559895833 L0.604156347,0.559895833 L0.488445046,0.958533654 C0.48946904,0.958533654 5.2428483,1.92207532 9.80166873,5.53084936 C14.1608104,8.98237179 15.5800658,13.2822516 15.5800658,13.2822516" id="shape" fill="#F9A533"></path>
                </g>
            </g>
        </g>
    </g>
</svg>