<?xml version="1.0" encoding="UTF-8"?>
<svg width="157px" height="39px" viewBox="0 0 157 39" version="1.1" xmlns="http://www.w3.org/2000/svg" xmlns:xlink="http://www.w3.org/1999/xlink">
    <!-- Generator: Sketch 50.2 (55047) - http://www.bohemiancoding.com/sketch -->
    <title>AllAbordo Logo Copy</title>
    <desc>Created with Sketch.</desc>
    <defs></defs>
    <g id="Symbols" stroke="none" stroke-width="1" fill="none" fill-rule="evenodd">
        <g id="AllAbordo-Logo-Copy">
            <path d="M143.010922,36.6399532 C143.010922,37.1294014 142.379248,37.3807113 141.746359,37.3807113 C141.113471,37.3807113 140.470267,37.1404654 140.470267,36.6399532 L140.470267,34.3075662 C140.470267,33.8054734 141.090413,33.5378311 141.713592,33.5378311 C142.355583,33.5378311 143.010922,33.7770233 143.010922,34.3075662 L143.010922,36.6399532 Z M141.73483,31.9656959 C140.103762,31.9656959 138.483617,32.7375384 138.483617,34.3075662 L138.483617,36.6399532 C138.483617,38.1999707 140.114684,38.9807698 141.746359,38.9807698 C143.378034,38.9807698 145,38.1999707 145,36.6399532 L145,34.3075662 C145,32.746495 143.366505,31.9656959 141.73483,31.9656959 Z M135.008495,35.1558027 C135.019417,35.1558027 135.219053,36.331743 135.229976,36.331743 L135.175364,36.3406995 L134.507888,34.9719303 L132.610437,32.0626372 L130.723301,32.0626372 L130.723301,38.885409 L132.709951,38.885409 L132.709951,36.1568272 L132.455704,34.8391629 L132.509709,34.8286258 L133.198422,36.1952876 L134.974515,38.885409 L136.983617,38.885409 L136.983617,32.0626372 L135.008495,32.0626372 L135.008495,35.1558027 Z M127.04733,38.8848822 L129.037015,38.8848822 L129.037015,32.0626372 L127.04733,32.0626372 L127.04733,38.8848822 Z M119.645024,33.6900922 L121.731189,33.6900922 L121.731189,38.8848822 L123.741505,38.8848822 L123.741505,33.6900922 L125.827063,33.6900922 L125.827063,32.052627 L119.645024,32.052627 L119.645024,33.6900922 Z M116.103762,34.6168301 C115.493325,34.4993414 115.080704,34.3075662 115.059466,33.9798624 C115.094053,33.18958 116.503034,33.1611298 117.32585,33.9224352 L118.623786,33.0541783 C117.8125,32.1969852 116.89199,31.9656959 115.9375,31.9656959 C114.495146,31.9656959 113.095874,32.6695741 113.095874,34.0088395 C113.095874,35.3101712 114.249393,36.0035124 115.514563,36.1773745 C116.159587,36.2548222 116.880461,36.4755744 116.858617,36.8612323 C116.801578,37.5935607 115.071602,37.5540465 114.284587,36.7268842 L113.029733,37.748456 C113.761529,38.5666618 114.760922,38.9807698 115.706311,38.9807698 C117.146845,38.9807698 118.745752,38.2579248 118.813107,36.9376262 C118.902306,35.2606469 117.500607,34.8391629 116.103762,34.6168301 Z M106.435073,38.8848822 L111.907767,38.8848822 L111.907767,37.2558466 L108.444782,37.2558466 L108.444782,36.2342748 L111.631068,36.2342748 L111.631068,34.7401142 L108.444782,34.7401142 L108.444782,33.6821894 L111.907767,33.6821894 L111.907767,32.0626372 L106.435073,32.0626372 L106.435073,38.8848822 Z M102.925971,36.5229914 C102.925971,36.9671301 102.615898,37.2663837 101.938714,37.2663837 L100.928398,37.2663837 L100.928398,33.6721791 L101.938714,33.6721791 C102.603762,33.6721791 102.925971,33.9514123 102.925971,34.3934436 L102.925971,36.5229914 Z M101.871966,32.0626372 L98.9320388,32.0626372 L98.9320388,38.885409 L101.871966,38.885409 C103.448422,38.8943656 104.925364,38.2105078 104.925364,36.6399532 L104.925364,34.3449729 C104.925364,32.7554515 103.448422,32.0626372 101.871966,32.0626372 Z M92.2712379,32.0626372 L90.2724515,32.0626372 L90.2724515,38.885409 L95.4678398,38.885409 L95.4678398,37.1794527 L92.2712379,37.1794527 L92.2712379,32.0626372 Z M83.3009709,38.8848822 L88.7730583,38.8848822 L88.7730583,37.2558466 L85.3100728,37.2558466 L85.3100728,36.2342748 L88.4963592,36.2342748 L88.4963592,34.7401142 L85.3100728,34.7401142 L85.3100728,33.6821894 L88.7730583,33.6821894 L88.7730583,32.0626372 L83.3009709,32.0626372 L83.3009709,38.8848822 Z M76.8288835,34.6168301 C76.217233,34.4993414 75.806432,34.3075662 75.785801,33.9798624 C75.8191748,33.18958 77.2293689,33.1611298 78.0485437,33.9224352 L79.3476942,33.0541783 C78.5364078,32.1969852 77.6171117,31.9656959 76.6632282,31.9656959 C75.220267,31.9656959 73.8216019,32.6695741 73.8216019,34.0088395 C73.8216019,35.3101712 74.9739078,36.0035124 76.2408981,36.1773745 C76.8834951,36.2548222 77.6061893,36.4755744 77.5843447,36.8612323 C77.526699,37.5935607 75.7967233,37.5540465 75.0091019,36.7268842 L73.7542476,37.748456 C74.4860437,38.5666618 75.4848301,38.9807698 76.4290049,38.9807698 C77.871966,38.9807698 79.4708738,38.2579248 79.5382282,36.9376262 C79.6268204,35.2606469 78.226335,34.8391629 76.8288835,34.6168301 Z M67.1595874,38.8848822 L72.6334951,38.8848822 L72.6334951,37.2558466 L69.1705097,37.2558466 L69.1705097,36.2342748 L72.3537621,36.2342748 L72.3537621,34.7401142 L69.1705097,34.7401142 L69.1705097,33.6821894 L72.6334951,33.6821894 L72.6334951,32.0626372 L67.1595874,32.0626372 L67.1595874,38.8848822 Z M62.6322816,36.3691497 L63.8859223,36.3691497 L63.8859223,36.6204595 C63.8859223,37.6804917 61.5873786,37.6894483 61.5873786,36.6204595 L61.5873786,34.2780623 C61.5873786,33.3824089 63.3410194,33.1706132 63.7754854,34.0852334 L65.440534,33.4208693 C64.8968447,32.3323869 63.7311893,31.9656959 62.7093447,31.9656959 C61.154733,31.9656959 59.6001214,32.7370116 59.6001214,34.2780623 L59.6001214,36.6204595 C59.6001214,38.1904873 61.154733,38.9807698 62.7093447,38.9807698 C64.285801,38.9807698 65.7955097,38.1904873 65.7955097,36.6204595 L65.7955097,34.9239865 L62.6322816,34.9239865 L62.6322816,36.3691497 Z M56.1158981,38.8848822 L58.1025485,38.8848822 L58.1025485,32.0626372 L56.1158981,32.0626372 L56.1158981,38.8848822 Z M51.6850728,32.0626372 L49.6881068,32.0626372 L49.6881068,38.885409 L54.8828883,38.885409 L54.8828883,37.1794527 L51.6850728,37.1794527 L51.6850728,32.0626372 Z M42.717233,38.8848822 L48.1899272,38.8848822 L48.1899272,37.2558466 L44.7257282,37.2558466 L44.7257282,36.2342748 L47.9120146,36.2342748 L47.9120146,34.7401142 L44.7257282,34.7401142 L44.7257282,33.6821894 L48.1899272,33.6821894 L48.1899272,32.0626372 L42.717233,32.0626372 L42.717233,38.8848822 Z M36.621966,36.5999122 C36.6122573,37.6989317 34.3701456,37.6989317 34.3701456,36.5999122 L34.3701456,32.0626372 L32.3579985,32.0626372 L32.3580097,36.5999122 C32.348301,39.8000293 38.621966,39.8000293 38.6316748,36.5999122 L38.6316748,32.0626372 L36.621966,32.0626372 L36.621966,36.5999122 Z M37.532767,30 L35.4684466,30 L34.3586165,31.6005854 L36.0782767,31.6005854 L37.532767,30 Z M25,33.6900922 L27.0873786,33.6900922 L27.0873786,38.8848822 L29.095267,38.8848822 L29.095267,33.6900922 L31.1826456,33.6900922 L31.1826456,32.052627 L25,32.052627 L25,33.6900922 Z" id="tu-eliges-el-destino" fill="#737277"></path>
            <path d="M14.803947,16 L13.4279961,16 C13.2400885,16 13.1188936,16.0760045 13.0516249,16.2259022 L9.37297155,23.6616745 C9.30737065,23.8105166 9.35962899,23.8870489 9.54197723,23.8870489 L10.9173722,23.8870489 C11.1013882,23.8870489 11.2225831,23.8105166 11.2948553,23.6616745 L14.970173,16.2259022 C15.0407774,16.0760045 14.9862953,16 14.803947,16 M11.685125,16 L10.3091741,16 C10.1262699,16 10.0000716,16.0760045 9.93224694,16.2259022 L6.25414951,23.6616745 C6.18799268,23.8105166 6.2413629,23.8870489 6.4231552,23.8870489 L7.80188579,23.8870489 C7.98256621,23.8870489 8.1082086,23.8105166 8.17770107,23.6616745 L11.8541307,16.2259022 C11.9213994,16.0760045 11.8652495,16 11.685125,16 M5.08167256,19.7527215 C5.04386866,19.8788678 4.96937273,20.0530448 4.86985951,20.2705021 L4.2110709,21.5894966 C4.02872266,21.9494623 3.80189924,22.2202283 3.53338034,22.4054892 C3.26319362,22.5886389 2.97243712,22.6820611 2.6644465,22.6820611 C2.52212592,22.6820611 2.41204985,22.6683381 2.33421828,22.643531 C2.26139018,22.6171406 2.2113556,22.5543313 2.18244673,22.4598535 C2.1568735,22.3669592 2.16576854,22.2297288 2.21580312,22.049746 C2.27862431,21.8180379 2.41927707,21.4871017 2.63164605,21.0585208 C2.87959519,20.5555189 3.10641861,20.1723296 3.30155346,19.908953 C3.50780711,19.6450485 3.69905039,19.4745662 3.87194765,19.3911724 C4.04984837,19.3088342 4.2683327,19.2671373 4.53518378,19.2671373 C4.98938656,19.2671373 5.17117886,19.4286468 5.08167256,19.7527215 M7.13531402,19.3241407 C7.18979612,19.1146005 7.20758619,18.928284 7.17478575,18.765191 C7.14031748,18.6052649 7.05915028,18.4595896 6.92127722,18.3329155 C6.78507198,18.2057135 6.56881141,18.1101801 6.27305146,18.0447318 C5.97506775,17.9808669 5.60314405,17.950254 5.15116503,17.950254 C4.63247324,17.950254 4.17493482,17.9919509 3.78188541,18.0785116 C3.39050382,18.1656001 3.01913606,18.317609 2.66277868,18.5340107 C2.3036416,18.7525236 1.97452526,19.0475688 1.67042621,19.4191463 C1.36743905,19.7907238 1.07279098,20.2631128 0.783702302,20.8326186 C0.442911231,21.5092696 0.209416533,22.0692749 0.0865538466,22.5126344 C-0.062993948,23.0393877 -0.0179628277,23.4194102 0.21553187,23.6511183 C0.450138448,23.8828264 0.882659578,24 1.51754278,24 C2.33699798,24 3.01691231,23.7550967 3.56451297,23.2668734 C3.5873065,23.2510391 3.60620845,23.2441776 3.61899506,23.2441776 C3.6306698,23.2441776 3.6334495,23.2510391 3.63178168,23.2668734 L3.57729958,23.707066 C3.56340109,23.8252952 3.6334495,23.8870489 3.78633293,23.8870489 L4.64470391,23.8870489 C4.86207636,23.8870489 5.01051227,23.7978492 5.09946263,23.6157551 L6.68500282,20.3940094 C6.9057109,19.9590948 7.05748246,19.6007125 7.13531402,19.3241407" id="All" fill="#CF1D56"></path>
            <path d="M71.308658,15.8621738 L71.3110178,15.8653561 L71.3157373,15.8698112 C71.3865304,15.9480942 71.4272365,16.0467435 71.4449348,16.155576 L72.1493263,20.7831837 C72.2684947,21.5583764 72.9321802,22.1585461 73.6519102,22.177003 C74.2801992,22.1948236 74.9014088,21.77986 75.1320764,21.1440492 L79.456946,9.13938194 C79.6362886,8.56148787 79.4952923,7.89894633 79.0894117,7.47061735 C78.6923803,7.03528746 78.0806098,6.88254013 77.5443519,7.07474719 L66.4139038,11.7399052 C65.8227812,11.9868468 65.4369587,12.6627537 65.454657,13.3367513 C65.4723553,14.111944 66.0298511,14.8285836 66.7460415,14.955873 L71.0384643,15.7164274 C71.1405243,15.7342479 71.2290157,15.7807086 71.3027586,15.8577187 L71.3027586,15.8589916 L71.3074781,15.8615374 L71.308658,15.8621738 Z M73.4784671,0 C80.392595,0 86,6.08252599 86,13.5346864 C86,20.990029 80.392595,27 73.4784671,27 C66.5755481,27 61,20.990029 61,13.5346864 C61,6.08252599 66.5755481,0 73.4784671,0 Z" id="O" fill="#CF1D56"></path>
            <path d="M143.983709,19.9426032 C140.583941,19.9426032 137.808057,17.0264709 137.808057,13.5012729 C137.808057,9.93597963 140.583941,7.05485103 143.983709,7.05485103 C147.421512,7.05485103 150.19985,9.93597963 150.19985,13.5012729 C150.19985,17.0264709 147.421512,19.9426032 143.983709,19.9426032 Z M118.507532,20.0145201 L115.6292,20.0145201 L115.6292,7.23496134 L118.507532,7.23496134 C121.90914,7.23496134 124.682571,10.1148171 124.682571,13.607557 C124.682571,17.1346643 121.90914,20.0145201 118.507532,20.0145201 Z M97.7126304,13.7138412 L93.4822439,13.7138412 L93.4822439,5.97800773 L97.7126304,5.97800773 C99.7965374,5.97800773 101.463295,7.70464831 101.463295,9.86342636 C101.463295,12.0241137 99.7965374,13.7138412 97.7126304,13.7138412 Z M143.983709,0.000636432208 C137.668189,0.000636432208 132.425602,4.70259759 131.250835,10.9014473 C130.082203,4.69177824 124.800968,0.000636432208 118.475632,0.000636432208 L108.823529,0.000636432208 L108.823529,25.5801197 L104.096858,17.207854 C105.974644,15.4080238 107.189285,12.8151989 107.189285,9.93597963 C107.189285,4.46329908 102.888351,0.000636432208 97.6089564,0.000636432208 L86.6422193,0.000636432208 L86.6422193,27 L93.4822439,27 L93.4822439,19.8344098 L97.7126304,19.8344098 L101.744871,27 L118.475632,27 C124.787472,27 130.061959,22.3234961 131.243474,16.1291015 C132.403517,22.333679 137.656533,27 143.983709,27 C151.141504,27 156.954604,21.033448 157,13.6215586 L157,13.4503583 C156.954604,6.03719593 151.141504,0.000636432208 143.983709,0.000636432208 Z M51.221321,21.1670988 L46.6339036,21.1670988 L46.6339036,16.4874128 L51.221321,16.4874128 C52.3973144,16.4874128 53.4745416,17.531798 53.4745416,18.8250283 C53.4745416,20.12335 52.4697021,21.1670988 51.221321,21.1670988 Z M46.6339036,5.86599566 L49.9306114,5.86599566 C51.1808329,5.86599566 52.1887397,6.90974448 52.1887397,8.20806619 C52.1887397,9.50384216 51.1808329,10.547591 49.9306114,10.547591 L46.6339036,10.547591 L46.6339036,5.86599566 Z M24.0747052,17.4955214 L26.7450753,11.5544267 L29.3823189,17.4955214 L24.0747052,17.4955214 Z M57.3288801,12.8877522 C58.3312658,11.5544267 58.9919569,9.86278993 58.9919569,8.02668301 C58.9919569,3.70658118 55.4547747,0 51.2894145,0 L39.8000136,0 L39.8000136,25.4763813 L28.2382251,0 L25.1513189,0 L13,27 L19.8381842,27 L21.4031082,23.470347 L32.0600504,23.470347 L33.6544203,27 L52.6377888,27 C56.7724763,27 60.2765319,23.3621535 60.2765319,19.0783283 C60.2765319,16.6293372 59.0956308,14.3623656 57.3288801,12.8877522 Z" id="AB-RDO" fill="#27377D"></path>
        </g>
    </g>
</svg>