<?xml version="1.0" encoding="UTF-8"?>
<svg width="321px" height="80px" viewBox="0 0 321 80" version="1.1" xmlns="http://www.w3.org/2000/svg" xmlns:xlink="http://www.w3.org/1999/xlink">
    <!-- Generator: Sketch 50.2 (55047) - http://www.bohemiancoding.com/sketch -->
    <title>Fill 1</title>
    <desc>Created with Sketch.</desc>
    <defs></defs>
    <g id="Symbols" stroke="none" stroke-width="1" fill="none" fill-rule="evenodd">
        <g id="footer" transform="translate(-656.000000, -61.000000)" fill="#FFFFFF">
            <path d="M950.459158,100 C943.600248,100 938,94.3432099 938,87.5049383 C938,80.5876543 943.600248,75 950.459158,75 C957.394802,75 963,80.5876543 963,87.5049383 C963,94.3432099 957.394802,100 950.459158,100 Z M899.040656,100 L893,100 L893,75 L899.040656,75 C906.179496,75 912,80.6327506 912,87.4670053 C912,94.3672494 906.179496,100 899.040656,100 Z M856.480861,88 L848,88 L848,73 L856.480861,73 C860.65857,73 864,76.3467709 864,80.5339367 C864,84.7223365 860.65857,88 856.480861,88 Z M950.359793,61 C937.433931,61 926.704022,70.2299932 924.299649,82.3983924 C921.907831,70.2087547 911.098822,61 898.152872,61 L878.398087,61 L878.398087,111.211513 L868.724093,94.7779271 C872.567324,91.2448436 875.053308,86.1551045 875.053308,80.5019211 C875.053308,69.760248 866.250665,61 855.445423,61 L833,61 L833,114 L846.999355,114 L846.999355,99.9338802 L855.65761,99.9338802 L863.910324,114 L898.152872,114 C911.0712,114 921.866398,104.81998 924.284582,92.6603258 C926.658822,104.839969 937.410076,114 950.359793,114 C965.009521,114 976.907089,102.287603 977,87.7367466 L977,87.4019282 C976.907089,72.8485727 965.009521,61 950.359793,61 Z M818.836854,79.2389274 L809.621566,102.958178 C809.130068,104.214303 807.806415,105.034116 806.467678,104.998909 C804.934101,104.95993 803.519942,103.776734 803.266022,102.243985 L801.765128,93.1028195 C801.727417,92.8878072 801.640682,92.692913 801.489839,92.5369977 L801.479783,92.5294534 L801.474754,92.5231665 L801.47224,92.5219091 L801.462184,92.5168796 L801.462184,92.5143648 C801.305055,92.3622216 801.116501,92.2704328 800.899035,92.2339687 L791.752884,90.7326548 C790.226849,90.4811784 789.038956,89.0653665 789.001245,87.5338754 C788.963534,86.2010506 789.785632,84.8669685 791.045176,84.377847 L814.761562,75.1612381 C815.904203,74.7815088 817.207743,75.0845379 818.053724,75.9433296 C818.918561,76.790805 819.218991,78.0997395 818.836854,79.2389274 Z M806.45435,61 C791.820162,61 780,72.9397732 780,87.5680881 C780,102.2014 791.820162,114 806.45435,114 C821.112301,114 833,102.2014 833,87.5680881 C833,72.9397732 821.112301,61 806.45435,61 Z M761.388575,102 L752,102 L752,93 L761.388575,93 C763.795355,93 766,95.0095186 766,97.4963285 C766,99.992929 763.943503,102 761.388575,102 Z M752,72 L758.528327,72 C761.004086,72 763,74.0055744 763,76.5018355 C763,78.9944256 761.004086,81 758.528327,81 L752,81 L752,72 Z M706,96 L711.534327,84 L717,96 L706,96 Z M773.014481,86.2981803 C775.049931,83.6796625 776.391535,80.3602913 776.391535,76.7548322 C776.391535,68.2746323 769.208912,61 760.750707,61 L737.420263,61 L737.420263,111.007944 L713.942828,61 L707.674539,61 L683,114 L696.885656,114 L700.0634,107.071422 L721.703449,107.071422 L724.940986,114 L763.488724,114 C771.884644,114 779,106.859042 779,98.4488026 C779,93.642773 776.602055,89.1915425 773.014481,86.2981803 Z M689.549236,95 L686.385658,95 C685.953622,95 685.674972,95.1830835 685.520308,95.5428935 L677.062371,113.455835 C676.911542,113.813102 677.031694,114 677.450948,114 L680.613247,114 C681.036336,114 681.314986,113.813102 681.479876,113.455835 L689.931422,95.5428935 C690.093755,95.1830835 689.96849,95 689.549236,95 Z M682.548272,95 L679.385024,95 C678.964536,95 678.674412,95.1830835 678.518486,95.5428935 L670.062709,113.455835 C669.910617,113.813102 670.033313,114 670.451245,114 L673.620883,114 C674.036259,114 674.325106,113.813102 674.484866,113.455835 L682.936808,95.5428935 C683.091456,95.1830835 682.96237,95 682.548272,95 Z M666.947195,104.137558 C666.857041,104.431839 666.679384,104.83864 666.442067,105.348068 L664.870997,108.438022 C664.436136,109.283771 663.895211,109.918083 663.254851,110.349614 C662.610514,110.781144 661.917122,111 661.182631,111 C660.843227,111 660.580719,110.965379 660.395107,110.907264 C660.221428,110.847913 660.102106,110.699536 660.033165,110.479444 C659.972178,110.260587 659.993391,109.937867 660.112713,109.516229 C660.262528,108.975889 660.597954,108.199382 661.104409,107.195363 C661.695714,106.015765 662.236639,105.120556 662.701994,104.503555 C663.193864,103.885317 663.649939,103.484699 664.062261,103.288099 C664.486516,103.096445 665.007555,103 665.643937,103 C666.727113,103 667.160649,103.377125 666.947195,104.137558 Z M671.875561,102.176932 C671.996779,101.694469 672.036361,101.260862 671.963382,100.885884 C671.886693,100.51457 671.706102,100.178677 671.399344,99.883092 C671.096297,99.588728 670.615133,99.3688711 669.957088,99.2174141 C669.294096,99.0683999 668.466593,99 667.460972,99 C666.30692,99 665.28893,99.0964928 664.414423,99.2955854 C663.543627,99.4971209 662.717361,99.848892 661.924491,100.348456 C661.125437,100.854127 660.393177,101.539347 659.716578,102.398011 C659.042454,103.257896 658.386883,104.352295 657.743681,105.670215 C656.985446,107.234863 656.465937,108.530797 656.192576,109.555575 C655.859843,110.774559 655.960034,111.655209 656.479543,112.192637 C657.001526,112.727622 657.963854,113 659.376424,113 C661.199652,113 662.712413,112.433258 663.930785,111.302216 C663.981499,111.266795 664.023554,111.249695 664.052004,111.249695 C664.077979,111.249695 664.084164,111.266795 664.080453,111.302216 L663.959234,112.320886 C663.928311,112.595708 664.084164,112.738615 664.424318,112.738615 L666.334132,112.738615 C666.81777,112.738615 667.148029,112.532193 667.345938,112.108358 L670.873651,104.655209 C671.36471,103.647531 671.702391,102.819403 671.875561,102.176932 Z M949,135.266383 C949,136.412668 947.756866,137 946.511345,137 C945.265823,137 944,136.437346 944,135.266383 L944,129.802715 C944,128.62805 945.220444,128 946.446859,128 C947.710294,128 949,128.56142 949,129.802715 L949,135.266383 Z M947.486079,125 C944.232145,125 941,126.760553 941,130.340544 L941,135.66186 C941,139.220219 944.253934,141 947.509079,141 C950.764224,141 954,139.220219 954,135.66186 L954,130.340544 C954,126.779781 950.741224,125 947.486079,125 Z M932.898517,132.253745 C932.921198,132.253745 933.335757,135.011429 933.358438,135.011429 L933.245032,135.032432 L931.858971,131.822548 L927.918775,125 L924,125 L924,141 L928.125424,141 L928.125424,134.601236 L927.597461,131.511197 L927.709606,131.485251 L929.139769,134.690193 L932.827954,141 L937,141 L937,125 L932.898517,125 L932.898517,132.253745 Z M917,141 L921,141 L921,125 L917,125 L917,141 Z M901,128.833436 L905.386926,128.833436 L905.386926,141 L909.61435,141 L909.61435,128.833436 L914,128.833436 L914,125 L901,125 L901,128.833436 Z M894.373888,131.045967 C893.108169,130.777978 892.252614,130.340544 892.208578,129.59306 C892.280294,127.790446 895.201764,127.726754 896.907842,129.463272 L899.599067,127.481598 C897.916894,125.526363 896.008251,125 894.029149,125 C891.03848,125 888.137141,126.605528 888.137141,129.660358 C888.137141,132.628662 890.528921,134.210155 893.152205,134.60673 C894.48964,134.782184 895.984345,135.286916 895.939051,136.166592 C895.820783,137.837014 892.233741,137.745681 890.601895,135.860147 L888,138.190326 C889.517353,140.05543 891.589558,141 893.549787,141 C896.536682,141 899.851959,139.351209 899.991616,136.340844 C900.176567,132.515698 897.270195,131.554304 894.373888,131.045967 Z M874,141 L885,141 L885,137.179768 L878.039472,137.179768 L878.039472,134.784093 L884.443841,134.784093 L884.443841,131.280154 L878.039472,131.280154 L878.039472,128.799228 L885,128.799228 L885,125 L874,125 L874,141 Z M867,135.137476 C867,136.250769 866.379101,137 865.023086,137 L863,137 L863,128 L865.023086,128 C866.3548,128 867,128.700425 867,129.805804 L867,135.137476 Z M864.886403,125 L859,125 L859,140.999819 L864.886403,140.999819 C868.042827,141.019588 871,139.417135 871,135.734087 L871,130.352218 C871,126.624692 868.042827,125 864.886403,125 Z M845.231955,125 L841,125 L841,141 L852,141 L852,136.999382 L845.231955,136.999382 L845.231955,125 Z M827,141 L838,141 L838,137.179768 L831.0387,137.179768 L831.0387,134.784093 L837.443779,134.784093 L837.443779,131.280154 L831.0387,131.280154 L831.0387,128.799228 L838,128.799228 L838,125 L827,125 L827,141 Z M813.374533,131.045967 C812.10642,130.777978 811.254721,130.340544 811.211947,129.59306 C811.28114,127.790446 814.204845,127.726754 815.903211,129.463272 L818.596694,127.481598 C816.914682,125.526363 815.008738,125 813.031086,125 C810.039446,125 807.139643,126.605528 807.139643,129.660358 C807.139643,132.628662 809.528678,134.210155 812.155484,134.60673 C813.487758,134.782184 814.986094,135.286916 814.940804,136.166592 C814.821289,137.837014 811.234592,137.745681 809.601645,135.860147 L807,138.190326 C808.517207,140.05543 810.587955,141 812.545479,141 C815.537119,141 818.852078,139.351209 818.991721,136.340844 C819.175396,132.515698 816.271819,131.554304 813.374533,131.045967 Z M794,141 L805,141 L805,137.179768 L798.041015,137.179768 L798.041015,134.784093 L804.437867,134.784093 L804.437867,131.280154 L798.041015,131.280154 L798.041015,128.799228 L805,128.799228 L805,125 L794,125 L794,141 Z M784.362488,135.042962 L786.993046,135.042962 L786.993046,135.617395 C786.993046,138.035301 782.169931,138.054529 782.169931,135.617395 L782.169931,130.274448 C782.169931,128.230284 785.849657,127.748385 786.761312,129.833408 L790.255142,128.319213 C789.1143,125.835211 786.668364,125 784.524192,125 C781.262096,125 778,126.759351 778,130.274448 L778,135.617395 C778,139.197386 781.262096,141 784.524192,141 C787.832125,141 791,139.197386 791,135.617395 L791,131.746583 L784.362488,131.746583 L784.362488,135.042962 Z M771,141 L775,141 L775,125 L771,125 L771,141 Z M762.228595,125 L758,125 L758,141 L769,141 L769,136.999382 L762.228595,136.999382 L762.228595,125 Z M744,141 L755,141 L755,137.179768 L748.037033,137.179768 L748.037033,134.784093 L754.441401,134.784093 L754.441401,131.280154 L748.037033,131.280154 L748.037033,128.799228 L755,128.799228 L755,125 L744,125 L744,141 Z M730.835582,135.464553 C730.815464,137.999279 726.169471,137.999279 726.169471,135.464553 L726.169471,125 L722,125 L722.000023,135.464553 C721.979905,142.845149 734.979882,142.845149 735,135.464553 L735,125 L730.835582,125 L730.835582,135.464553 Z M733,120 L728.447524,120 L726,123 L729.792392,123 L733,120 Z M706,128.833436 L710.389047,128.833436 L710.389047,141 L714.610953,141 L714.610953,128.833436 L719,128.833436 L719,125 L706,125 L706,128.833436 Z" id="Fill-1"></path>
        </g>
    </g>
</svg>