<?xml version="1.0" encoding="UTF-8"?>
<svg width="23px" height="23px" viewBox="0 0 23 23" version="1.1" xmlns="http://www.w3.org/2000/svg" xmlns:xlink="http://www.w3.org/1999/xlink">
    <!-- Generator: Sketch 52 (66869) - http://www.bohemiancoding.com/sketch -->
    <title>noun_Discount_1253946</title>
    <desc>Created with Sketch.</desc>
    <g id="Page-1" stroke="none" stroke-width="1" fill="none" fill-rule="evenodd">
        <g id="Alianzas" transform="translate(-287.000000, -775.000000)" fill="#27387E">
            <g id="noun_Discount_1253946" transform="translate(287.000000, 775.000000)">
                <g id="Group">
                    <circle id="Oval" cx="8.76190476" cy="8.76190476" r="1.0952381"></circle>
                    <path d="M22.3647619,8.58995238 C22.3253333,8.43990476 22.2245714,8.31504762 22.0876667,8.24495238 L19.4777143,6.89561905 L19.614619,3.95928571 C19.6211905,3.80485714 19.5642381,3.65590476 19.4547143,3.54638095 C19.3451905,3.43685714 19.1896667,3.37004762 19.0418095,3.38647619 L16.1065714,3.52338095 L14.7572381,0.912333333 C14.6860476,0.775428571 14.5611905,0.674666667 14.4122381,0.634142857 C14.264381,0.595809524 14.1055714,0.618809524 13.9752381,0.702047619 L11.5,2.28904762 L9.02585714,0.703142857 C8.89552381,0.619904762 8.73671429,0.595809524 8.58885714,0.635238095 C8.43990476,0.675761905 8.31504762,0.77652381 8.24385714,0.913428571 L6.89452381,3.52338095 L3.95928571,3.38647619 C3.80485714,3.37114286 3.65480952,3.43685714 3.54638095,3.54528571 C3.43795238,3.65371429 3.37880952,3.80485714 3.38647619,3.95819048 L3.52338095,6.89452381 L0.912333333,8.24385714 C0.775428571,8.31504762 0.674666667,8.43990476 0.635238095,8.58995238 C0.594714286,8.73890476 0.619904762,8.89661905 0.703142857,9.02585714 L2.28904762,11.5 L0.703142857,13.9741429 C0.619904762,14.103381 0.594714286,14.2621905 0.635238095,14.4100476 C0.674666667,14.5600952 0.775428571,14.6849524 0.912333333,14.7550476 L3.52228571,16.104381 L3.38538095,19.0407143 C3.37880952,19.1951429 3.4357619,19.3440952 3.54528571,19.453619 C3.65480952,19.5620476 3.80157143,19.6277619 3.95819048,19.6135238 L6.89452381,19.4755238 L8.2427619,22.0876667 C8.31285714,22.2245714 8.43880952,22.3253333 8.5877619,22.3658571 C8.73671429,22.4030952 8.89442857,22.3811905 9.0247619,22.2979524 L11.5,20.7109524 L13.9741429,22.2968571 C14.0639524,22.3538095 14.1658095,22.383381 14.2698571,22.383381 C14.3169524,22.383381 14.3651429,22.3768095 14.4111429,22.3647619 C14.5600952,22.3242381 14.6849524,22.2234762 14.7561429,22.0865714 L16.1054762,19.4744286 L19.0407143,19.6124286 C19.1907619,19.6299524 19.3440952,19.5609524 19.453619,19.4525238 C19.5631429,19.343 19.6200952,19.1940476 19.6135238,19.039619 L19.476619,16.1032857 L22.0865714,14.7539524 C22.2234762,14.6838571 22.3242381,14.5579048 22.3636667,14.4089524 C22.4041905,14.26 22.379,14.1022857 22.2957619,13.9730476 L20.7109524,11.5 L22.2968571,9.02585714 C22.3811905,8.89661905 22.4052857,8.73890476 22.3647619,8.58995238 Z M6.57142857,8.76190476 C6.57142857,7.55385714 7.55385714,6.57142857 8.76190476,6.57142857 C9.96995238,6.57142857 10.952381,7.55385714 10.952381,8.76190476 C10.952381,9.96995238 9.96995238,10.952381 8.76190476,10.952381 C7.55385714,10.952381 6.57142857,9.96995238 6.57142857,8.76190476 Z M8.602,15.1734286 C8.49466667,15.2796667 8.35447619,15.3333333 8.21428571,15.3333333 C8.07409524,15.3333333 7.93390476,15.2796667 7.82657143,15.1734286 C7.613,14.9598571 7.613,14.6126667 7.82657143,14.3990952 L14.398,7.82766667 C14.6115714,7.61409524 14.9587619,7.61409524 15.1723333,7.82766667 C15.3859048,8.0412381 15.3859048,8.38842857 15.1723333,8.602 L8.602,15.1734286 Z M14.2380952,16.4285714 C13.0300476,16.4285714 12.047619,15.4461429 12.047619,14.2380952 C12.047619,13.0300476 13.0300476,12.047619 14.2380952,12.047619 C15.4461429,12.047619 16.4285714,13.0300476 16.4285714,14.2380952 C16.4285714,15.4461429 15.4461429,16.4285714 14.2380952,16.4285714 Z" id="Shape" fill-rule="nonzero"></path>
                    <circle id="Oval" cx="14.2380952" cy="14.2380952" r="1.0952381"></circle>
                </g>
            </g>
        </g>
    </g>
</svg>